%TF.GenerationSoftware,KiCad,Pcbnew,(5.1.12-1-10_14)*%
%TF.CreationDate,2022-12-20T21:08:20-08:00*%
%TF.ProjectId,nabu-keyboard-usb,6e616275-2d75-4736-922d-6b6579626f61,0.1*%
%TF.SameCoordinates,Original*%
%TF.FileFunction,Soldermask,Top*%
%TF.FilePolarity,Negative*%
%FSLAX46Y46*%
G04 Gerber Fmt 4.6, Leading zero omitted, Abs format (unit mm)*
G04 Created by KiCad (PCBNEW (5.1.12-1-10_14)) date 2022-12-20 21:08:20*
%MOMM*%
%LPD*%
G01*
G04 APERTURE LIST*
%ADD10R,1.600000X1.600000*%
%ADD11O,1.600000X1.600000*%
%ADD12C,2.200000*%
%ADD13O,2.000000X0.750000*%
%ADD14O,1.700000X1.700000*%
%ADD15R,1.700000X1.700000*%
%ADD16C,3.200000*%
%ADD17R,5.700000X6.200000*%
%ADD18R,1.717500X1.800000*%
%ADD19O,1.717500X1.800000*%
%ADD20C,1.600000*%
%ADD21O,4.000000X2.000000*%
%ADD22O,4.500000X2.500000*%
%ADD23O,2.000000X4.000000*%
%ADD24R,2.200000X2.200000*%
%ADD25O,2.200000X2.200000*%
G04 APERTURE END LIST*
D10*
%TO.C,U3*%
X120650000Y-107950000D03*
D11*
X128270000Y-115570000D03*
X120650000Y-110490000D03*
X128270000Y-113030000D03*
X120650000Y-113030000D03*
X128270000Y-110490000D03*
X120650000Y-115570000D03*
X128270000Y-107950000D03*
%TD*%
D12*
%TO.C,J2*%
X149145000Y-121200000D03*
X139145000Y-121200000D03*
X144145000Y-118700000D03*
X136645000Y-123700000D03*
X151645000Y-123700000D03*
X144145000Y-123700000D03*
D13*
X139145000Y-133700000D03*
X149145000Y-133700000D03*
%TD*%
D14*
%TO.C,U2*%
X150495000Y-65405000D03*
X150495000Y-67945000D03*
D15*
X150495000Y-70485000D03*
D14*
X150495000Y-73025000D03*
X150495000Y-75565000D03*
X150495000Y-78105000D03*
X150495000Y-80645000D03*
D15*
X150495000Y-83185000D03*
D14*
X150495000Y-85725000D03*
X150495000Y-88265000D03*
X150495000Y-90805000D03*
X150495000Y-93345000D03*
D15*
X150495000Y-95885000D03*
D14*
X150495000Y-98425000D03*
X150495000Y-100965000D03*
X150495000Y-103505000D03*
X150495000Y-106045000D03*
D15*
X150495000Y-108585000D03*
D14*
X150495000Y-111125000D03*
X150495000Y-113665000D03*
X132715000Y-113665000D03*
X132715000Y-111125000D03*
D15*
X132715000Y-108585000D03*
D14*
X132715000Y-106045000D03*
X132715000Y-103505000D03*
X132715000Y-100965000D03*
X132715000Y-98425000D03*
D15*
X132715000Y-95885000D03*
D14*
X132715000Y-93345000D03*
X132715000Y-90805000D03*
X132715000Y-88265000D03*
X132715000Y-85725000D03*
D15*
X132715000Y-83185000D03*
D14*
X132715000Y-80645000D03*
X132715000Y-78105000D03*
X132715000Y-75565000D03*
X132715000Y-73025000D03*
D15*
X132715000Y-70485000D03*
D14*
X132715000Y-67945000D03*
X132715000Y-65405000D03*
%TD*%
D16*
%TO.C,REF\u002A\u002A*%
X168910000Y-67310000D03*
%TD*%
%TO.C,REF\u002A\u002A*%
X168910000Y-131445000D03*
%TD*%
%TO.C,REF\u002A\u002A*%
X121285000Y-131445000D03*
%TD*%
%TO.C,REF\u002A\u002A*%
X121285000Y-67310000D03*
%TD*%
D15*
%TO.C,J1*%
X158115000Y-85090000D03*
D14*
X158115000Y-87630000D03*
X158115000Y-90170000D03*
%TD*%
D15*
%TO.C,JP1*%
X158115000Y-97790000D03*
D14*
X158115000Y-100330000D03*
%TD*%
D10*
%TO.C,U1*%
X120650000Y-76200000D03*
D11*
X128270000Y-99060000D03*
X120650000Y-78740000D03*
X128270000Y-96520000D03*
X120650000Y-81280000D03*
X128270000Y-93980000D03*
X120650000Y-83820000D03*
X128270000Y-91440000D03*
X120650000Y-86360000D03*
X128270000Y-88900000D03*
X120650000Y-88900000D03*
X128270000Y-86360000D03*
X120650000Y-91440000D03*
X128270000Y-83820000D03*
X120650000Y-93980000D03*
X128270000Y-81280000D03*
X120650000Y-96520000D03*
X128270000Y-78740000D03*
X120650000Y-99060000D03*
X128270000Y-76200000D03*
%TD*%
D17*
%TO.C,Q1*%
X141605000Y-101786667D03*
D18*
X139315000Y-109220000D03*
D19*
X141605000Y-109220000D03*
X143895000Y-109220000D03*
%TD*%
D20*
%TO.C,C3*%
X157480000Y-121920000D03*
X162480000Y-121920000D03*
%TD*%
%TO.C,C4*%
X162480000Y-127635000D03*
X157480000Y-127635000D03*
%TD*%
%TO.C,R1*%
X137795000Y-112395000D03*
D11*
X145415000Y-112395000D03*
%TD*%
D20*
%TO.C,R2*%
X165100000Y-125730000D03*
D11*
X165100000Y-123190000D03*
%TD*%
D20*
%TO.C,C1*%
X127635000Y-72390000D03*
X127635000Y-67390000D03*
%TD*%
%TO.C,C2*%
X123270000Y-103505000D03*
X128270000Y-103505000D03*
%TD*%
D21*
%TO.C,J3*%
X159385000Y-70200000D03*
D22*
X159385000Y-76200000D03*
D23*
X154485000Y-73250000D03*
%TD*%
D24*
%TO.C,D1*%
X158115000Y-114935000D03*
D25*
X158115000Y-104775000D03*
%TD*%
M02*
