%TF.GenerationSoftware,KiCad,Pcbnew,(5.1.12-1-10_14)*%
%TF.CreationDate,2022-12-20T21:08:20-08:00*%
%TF.ProjectId,nabu-keyboard-usb,6e616275-2d75-4736-922d-6b6579626f61,0.1*%
%TF.SameCoordinates,Original*%
%TF.FileFunction,Copper,L2,Bot*%
%TF.FilePolarity,Positive*%
%FSLAX46Y46*%
G04 Gerber Fmt 4.6, Leading zero omitted, Abs format (unit mm)*
G04 Created by KiCad (PCBNEW (5.1.12-1-10_14)) date 2022-12-20 21:08:20*
%MOMM*%
%LPD*%
G01*
G04 APERTURE LIST*
%TA.AperFunction,ComponentPad*%
%ADD10R,1.600000X1.600000*%
%TD*%
%TA.AperFunction,ComponentPad*%
%ADD11O,1.600000X1.600000*%
%TD*%
%TA.AperFunction,ComponentPad*%
%ADD12C,2.200000*%
%TD*%
%TA.AperFunction,ComponentPad*%
%ADD13O,2.000000X0.750000*%
%TD*%
%TA.AperFunction,ComponentPad*%
%ADD14O,1.700000X1.700000*%
%TD*%
%TA.AperFunction,ComponentPad*%
%ADD15R,1.700000X1.700000*%
%TD*%
%TA.AperFunction,ComponentPad*%
%ADD16R,1.717500X1.800000*%
%TD*%
%TA.AperFunction,ComponentPad*%
%ADD17O,1.717500X1.800000*%
%TD*%
%TA.AperFunction,ComponentPad*%
%ADD18C,1.600000*%
%TD*%
%TA.AperFunction,ComponentPad*%
%ADD19O,4.000000X2.000000*%
%TD*%
%TA.AperFunction,ComponentPad*%
%ADD20O,4.500000X2.500000*%
%TD*%
%TA.AperFunction,ComponentPad*%
%ADD21O,2.000000X4.000000*%
%TD*%
%TA.AperFunction,ComponentPad*%
%ADD22R,2.200000X2.200000*%
%TD*%
%TA.AperFunction,ComponentPad*%
%ADD23O,2.200000X2.200000*%
%TD*%
%TA.AperFunction,ViaPad*%
%ADD24C,0.800000*%
%TD*%
%TA.AperFunction,Conductor*%
%ADD25C,0.350000*%
%TD*%
%TA.AperFunction,Conductor*%
%ADD26C,0.250000*%
%TD*%
%TA.AperFunction,Conductor*%
%ADD27C,1.000000*%
%TD*%
%TA.AperFunction,Conductor*%
%ADD28C,0.254000*%
%TD*%
%TA.AperFunction,Conductor*%
%ADD29C,0.100000*%
%TD*%
G04 APERTURE END LIST*
D10*
%TO.P,U3,1*%
%TO.N,Net-(U1-Pad18)*%
X120650000Y-107950000D03*
D11*
%TO.P,U3,5*%
%TO.N,GND*%
X128270000Y-115570000D03*
%TO.P,U3,2*%
X120650000Y-110490000D03*
%TO.P,U3,6*%
%TO.N,Net-(C3-Pad1)*%
X128270000Y-113030000D03*
%TO.P,U3,3*%
%TO.N,GND*%
X120650000Y-113030000D03*
%TO.P,U3,7*%
%TO.N,Net-(C4-Pad1)*%
X128270000Y-110490000D03*
%TO.P,U3,4*%
%TO.N,GND*%
X120650000Y-115570000D03*
%TO.P,U3,8*%
%TO.N,+5V*%
X128270000Y-107950000D03*
%TD*%
D12*
%TO.P,J2,2*%
%TO.N,/9VRET*%
X149145000Y-121200000D03*
%TO.P,J2,4*%
%TO.N,Net-(C4-Pad1)*%
X139145000Y-121200000D03*
%TO.P,J2,6*%
%TO.N,Net-(J2-Pad6)*%
X144145000Y-118700000D03*
%TO.P,J2,5*%
%TO.N,Net-(C3-Pad1)*%
X136645000Y-123700000D03*
%TO.P,J2,1*%
%TO.N,Net-(J2-Pad1)*%
X151645000Y-123700000D03*
%TO.P,J2,3*%
%TO.N,Net-(D1-Pad1)*%
X144145000Y-123700000D03*
D13*
%TO.P,J2,*%
%TO.N,*%
X139145000Y-133700000D03*
X149145000Y-133700000D03*
%TD*%
D14*
%TO.P,U2,40*%
%TO.N,+5V*%
X150495000Y-65405000D03*
%TO.P,U2,39*%
%TO.N,Net-(U2-Pad39)*%
X150495000Y-67945000D03*
D15*
%TO.P,U2,38*%
%TO.N,GND*%
X150495000Y-70485000D03*
D14*
%TO.P,U2,37*%
%TO.N,Net-(U2-Pad37)*%
X150495000Y-73025000D03*
%TO.P,U2,36*%
%TO.N,+3V3*%
X150495000Y-75565000D03*
%TO.P,U2,35*%
%TO.N,Net-(U2-Pad35)*%
X150495000Y-78105000D03*
%TO.P,U2,34*%
%TO.N,Net-(U2-Pad34)*%
X150495000Y-80645000D03*
D15*
%TO.P,U2,33*%
%TO.N,GND*%
X150495000Y-83185000D03*
D14*
%TO.P,U2,32*%
%TO.N,Net-(U2-Pad32)*%
X150495000Y-85725000D03*
%TO.P,U2,31*%
%TO.N,Net-(Q1-Pad1)*%
X150495000Y-88265000D03*
%TO.P,U2,30*%
%TO.N,Net-(U2-Pad30)*%
X150495000Y-90805000D03*
%TO.P,U2,29*%
%TO.N,Net-(JP1-Pad1)*%
X150495000Y-93345000D03*
D15*
%TO.P,U2,28*%
%TO.N,GND*%
X150495000Y-95885000D03*
D14*
%TO.P,U2,27*%
%TO.N,Net-(U2-Pad27)*%
X150495000Y-98425000D03*
%TO.P,U2,26*%
%TO.N,Net-(U2-Pad26)*%
X150495000Y-100965000D03*
%TO.P,U2,25*%
%TO.N,Net-(U2-Pad25)*%
X150495000Y-103505000D03*
%TO.P,U2,24*%
%TO.N,Net-(U2-Pad24)*%
X150495000Y-106045000D03*
D15*
%TO.P,U2,23*%
%TO.N,GND*%
X150495000Y-108585000D03*
D14*
%TO.P,U2,22*%
%TO.N,Net-(U2-Pad22)*%
X150495000Y-111125000D03*
%TO.P,U2,21*%
%TO.N,Net-(U2-Pad21)*%
X150495000Y-113665000D03*
%TO.P,U2,20*%
%TO.N,Net-(U2-Pad20)*%
X132715000Y-113665000D03*
%TO.P,U2,19*%
%TO.N,Net-(U2-Pad19)*%
X132715000Y-111125000D03*
D15*
%TO.P,U2,18*%
%TO.N,GND*%
X132715000Y-108585000D03*
D14*
%TO.P,U2,17*%
%TO.N,Net-(U2-Pad17)*%
X132715000Y-106045000D03*
%TO.P,U2,16*%
%TO.N,Net-(U2-Pad16)*%
X132715000Y-103505000D03*
%TO.P,U2,15*%
%TO.N,Net-(U2-Pad15)*%
X132715000Y-100965000D03*
%TO.P,U2,14*%
%TO.N,Net-(U2-Pad14)*%
X132715000Y-98425000D03*
D15*
%TO.P,U2,13*%
%TO.N,GND*%
X132715000Y-95885000D03*
D14*
%TO.P,U2,12*%
%TO.N,Net-(U2-Pad12)*%
X132715000Y-93345000D03*
%TO.P,U2,11*%
%TO.N,Net-(U2-Pad11)*%
X132715000Y-90805000D03*
%TO.P,U2,10*%
%TO.N,Net-(U2-Pad10)*%
X132715000Y-88265000D03*
%TO.P,U2,9*%
%TO.N,Net-(U2-Pad9)*%
X132715000Y-85725000D03*
D15*
%TO.P,U2,8*%
%TO.N,GND*%
X132715000Y-83185000D03*
D14*
%TO.P,U2,7*%
%TO.N,Net-(U1-Pad2)*%
X132715000Y-80645000D03*
%TO.P,U2,6*%
%TO.N,Net-(U2-Pad6)*%
X132715000Y-78105000D03*
%TO.P,U2,5*%
%TO.N,Net-(U2-Pad5)*%
X132715000Y-75565000D03*
%TO.P,U2,4*%
%TO.N,Net-(U2-Pad4)*%
X132715000Y-73025000D03*
D15*
%TO.P,U2,3*%
%TO.N,GND*%
X132715000Y-70485000D03*
D14*
%TO.P,U2,2*%
%TO.N,Net-(J1-Pad2)*%
X132715000Y-67945000D03*
%TO.P,U2,1*%
%TO.N,Net-(J1-Pad1)*%
X132715000Y-65405000D03*
%TD*%
D15*
%TO.P,J1,1*%
%TO.N,Net-(J1-Pad1)*%
X158115000Y-85090000D03*
D14*
%TO.P,J1,2*%
%TO.N,Net-(J1-Pad2)*%
X158115000Y-87630000D03*
%TO.P,J1,3*%
%TO.N,GND*%
X158115000Y-90170000D03*
%TD*%
D15*
%TO.P,JP1,1*%
%TO.N,Net-(JP1-Pad1)*%
X158115000Y-97790000D03*
D14*
%TO.P,JP1,2*%
%TO.N,GND*%
X158115000Y-100330000D03*
%TD*%
D10*
%TO.P,U1,1*%
%TO.N,GND*%
X120650000Y-76200000D03*
D11*
%TO.P,U1,11*%
X128270000Y-99060000D03*
%TO.P,U1,2*%
%TO.N,Net-(U1-Pad2)*%
X120650000Y-78740000D03*
%TO.P,U1,12*%
%TO.N,GND*%
X128270000Y-96520000D03*
%TO.P,U1,3*%
%TO.N,Net-(U1-Pad3)*%
X120650000Y-81280000D03*
%TO.P,U1,13*%
%TO.N,GND*%
X128270000Y-93980000D03*
%TO.P,U1,4*%
%TO.N,Net-(U1-Pad4)*%
X120650000Y-83820000D03*
%TO.P,U1,14*%
%TO.N,GND*%
X128270000Y-91440000D03*
%TO.P,U1,5*%
%TO.N,Net-(U1-Pad5)*%
X120650000Y-86360000D03*
%TO.P,U1,15*%
%TO.N,GND*%
X128270000Y-88900000D03*
%TO.P,U1,6*%
%TO.N,Net-(U1-Pad6)*%
X120650000Y-88900000D03*
%TO.P,U1,16*%
%TO.N,GND*%
X128270000Y-86360000D03*
%TO.P,U1,7*%
%TO.N,Net-(U1-Pad7)*%
X120650000Y-91440000D03*
%TO.P,U1,17*%
%TO.N,GND*%
X128270000Y-83820000D03*
%TO.P,U1,8*%
%TO.N,Net-(U1-Pad8)*%
X120650000Y-93980000D03*
%TO.P,U1,18*%
%TO.N,Net-(U1-Pad18)*%
X128270000Y-81280000D03*
%TO.P,U1,9*%
%TO.N,Net-(U1-Pad9)*%
X120650000Y-96520000D03*
%TO.P,U1,19*%
%TO.N,GND*%
X128270000Y-78740000D03*
%TO.P,U1,10*%
X120650000Y-99060000D03*
%TO.P,U1,20*%
%TO.N,+3V3*%
X128270000Y-76200000D03*
%TD*%
D16*
%TO.P,Q1,1*%
%TO.N,Net-(Q1-Pad1)*%
X139315000Y-109220000D03*
D17*
%TO.P,Q1,2*%
%TO.N,/9VRET*%
X141605000Y-109220000D03*
%TO.P,Q1,3*%
%TO.N,GND*%
X143895000Y-109220000D03*
%TD*%
D18*
%TO.P,C3,1*%
%TO.N,Net-(C3-Pad1)*%
X157480000Y-121920000D03*
%TO.P,C3,2*%
%TO.N,GND*%
X162480000Y-121920000D03*
%TD*%
%TO.P,C4,2*%
%TO.N,GND*%
X162480000Y-127635000D03*
%TO.P,C4,1*%
%TO.N,Net-(C4-Pad1)*%
X157480000Y-127635000D03*
%TD*%
%TO.P,R1,1*%
%TO.N,Net-(Q1-Pad1)*%
X137795000Y-112395000D03*
D11*
%TO.P,R1,2*%
%TO.N,GND*%
X145415000Y-112395000D03*
%TD*%
D18*
%TO.P,R2,1*%
%TO.N,Net-(C4-Pad1)*%
X165100000Y-125730000D03*
D11*
%TO.P,R2,2*%
%TO.N,Net-(C3-Pad1)*%
X165100000Y-123190000D03*
%TD*%
D18*
%TO.P,C1,1*%
%TO.N,+3V3*%
X127635000Y-72390000D03*
%TO.P,C1,2*%
%TO.N,GND*%
X127635000Y-67390000D03*
%TD*%
%TO.P,C2,2*%
%TO.N,GND*%
X123270000Y-103505000D03*
%TO.P,C2,1*%
%TO.N,+5V*%
X128270000Y-103505000D03*
%TD*%
D19*
%TO.P,J3,2*%
%TO.N,GND*%
X159385000Y-70200000D03*
D20*
%TO.P,J3,1*%
%TO.N,+9V*%
X159385000Y-76200000D03*
D21*
%TO.P,J3,3*%
%TO.N,Net-(J3-Pad3)*%
X154485000Y-73250000D03*
%TD*%
D22*
%TO.P,D1,1*%
%TO.N,Net-(D1-Pad1)*%
X158115000Y-114935000D03*
D23*
%TO.P,D1,2*%
%TO.N,+9V*%
X158115000Y-104775000D03*
%TD*%
D24*
%TO.N,GND*%
X162560000Y-108585000D03*
X142240000Y-65405000D03*
X140970000Y-67945000D03*
X125730000Y-80645000D03*
X157480000Y-80010000D03*
%TO.N,Net-(J1-Pad1)*%
X155575000Y-67310000D03*
X135255000Y-66675000D03*
%TO.N,Net-(J1-Pad2)*%
X153670000Y-83820000D03*
X152400000Y-69455165D03*
%TO.N,Net-(Q1-Pad1)*%
X139700000Y-88265000D03*
%TO.N,Net-(U1-Pad18)*%
X122555000Y-81915000D03*
%TO.N,Net-(C4-Pad1)*%
X139065000Y-127635000D03*
%TD*%
D25*
%TO.N,+5V*%
X133213003Y-99739999D02*
X132035001Y-99739999D01*
X135255000Y-80645000D02*
X135255000Y-97698002D01*
X135255000Y-97698002D02*
X133213003Y-99739999D01*
X150495000Y-65405000D02*
X135255000Y-80645000D01*
X128270000Y-107950000D02*
X128270000Y-103505000D01*
X132035001Y-99739999D02*
X128270000Y-103505000D01*
D26*
%TO.N,GND*%
X152400000Y-95885000D02*
X158115000Y-90170000D01*
X150495000Y-95885000D02*
X152400000Y-95885000D01*
X153670000Y-95885000D02*
X158115000Y-100330000D01*
X150495000Y-95885000D02*
X153670000Y-95885000D01*
X128270000Y-99060000D02*
X128270000Y-96520000D01*
X128270000Y-96520000D02*
X128270000Y-93980000D01*
X128270000Y-93980000D02*
X128270000Y-91440000D01*
X128270000Y-91440000D02*
X128270000Y-88900000D01*
X128270000Y-88900000D02*
X128270000Y-86360000D01*
X128270000Y-86360000D02*
X128270000Y-83820000D01*
X131539999Y-82009999D02*
X132715000Y-83185000D01*
X131539999Y-71660001D02*
X131539999Y-82009999D01*
X132715000Y-70485000D02*
X131539999Y-71660001D01*
X151130000Y-83185000D02*
X158115000Y-90170000D01*
X150495000Y-83185000D02*
X151130000Y-83185000D01*
X128270000Y-78740000D02*
X132715000Y-83185000D01*
X145415000Y-110740000D02*
X143895000Y-109220000D01*
X145415000Y-112395000D02*
X145415000Y-110740000D01*
X162480000Y-127635000D02*
X162480000Y-121920000D01*
X162480000Y-108665000D02*
X162560000Y-108585000D01*
X162480000Y-121920000D02*
X162480000Y-108665000D01*
X150495000Y-107950000D02*
X158115000Y-100330000D01*
X150495000Y-108585000D02*
X150495000Y-107950000D01*
X120650000Y-110490000D02*
X120650000Y-113030000D01*
X120650000Y-113030000D02*
X120650000Y-115570000D01*
X123270000Y-107870000D02*
X123270000Y-103505000D01*
X120650000Y-110490000D02*
X123270000Y-107870000D01*
X127715000Y-99060000D02*
X128270000Y-99060000D01*
X123270000Y-103505000D02*
X127715000Y-99060000D01*
D25*
%TO.N,+3V3*%
X128270000Y-72390000D02*
X128270000Y-76200000D01*
D26*
%TO.N,Net-(J1-Pad1)*%
X157259988Y-84234988D02*
X158115000Y-85090000D01*
X133985000Y-65405000D02*
X135255000Y-66675000D01*
X132715000Y-65405000D02*
X133985000Y-65405000D01*
X155974999Y-82949999D02*
X158115000Y-85090000D01*
X155974999Y-67709999D02*
X155974999Y-82949999D01*
X155575000Y-67310000D02*
X155974999Y-67709999D01*
%TO.N,Net-(J1-Pad2)*%
X153670000Y-83820000D02*
X152400000Y-82550000D01*
X152400000Y-82550000D02*
X152400000Y-69455165D01*
D27*
%TO.N,+9V*%
X159385000Y-75930000D02*
X159715001Y-76260001D01*
X159715001Y-103174999D02*
X158115000Y-104775000D01*
X159715001Y-76530001D02*
X159715001Y-103174999D01*
X159385000Y-76200000D02*
X159715001Y-76530001D01*
D26*
%TO.N,Net-(Q1-Pad1)*%
X139065000Y-109470000D02*
X139315000Y-109220000D01*
X139315000Y-88650000D02*
X139700000Y-88265000D01*
X139315000Y-109220000D02*
X139315000Y-88650000D01*
X137795000Y-110740000D02*
X139315000Y-109220000D01*
X137795000Y-112395000D02*
X137795000Y-110740000D01*
%TO.N,Net-(U1-Pad18)*%
X121775001Y-82694999D02*
X122555000Y-81915000D01*
X121775001Y-106824999D02*
X121775001Y-82694999D01*
X120650000Y-107950000D02*
X121775001Y-106824999D01*
%TO.N,Net-(C3-Pad1)*%
X136645000Y-121405000D02*
X136645000Y-123700000D01*
X128270000Y-113030000D02*
X136645000Y-121405000D01*
%TO.N,Net-(C4-Pad1)*%
X139065000Y-120930000D02*
X139145000Y-120850000D01*
X138510998Y-121200000D02*
X139145000Y-121200000D01*
X129395001Y-112084003D02*
X138510998Y-121200000D01*
X129395001Y-111615001D02*
X129395001Y-112084003D01*
X128270000Y-110490000D02*
X129395001Y-111615001D01*
X139065000Y-121280000D02*
X139145000Y-121200000D01*
X139065000Y-127635000D02*
X139065000Y-121280000D01*
D27*
%TO.N,Net-(D1-Pad1)*%
X144145000Y-123111998D02*
X144145000Y-123350000D01*
X144145000Y-123461998D02*
X144145000Y-123700000D01*
X152671998Y-114935000D02*
X144145000Y-123461998D01*
X158115000Y-114935000D02*
X152671998Y-114935000D01*
%TD*%
D28*
%TO.N,GND*%
X131768368Y-64251525D02*
X131561525Y-64458368D01*
X131399010Y-64701589D01*
X131287068Y-64971842D01*
X131230000Y-65258740D01*
X131230000Y-65551260D01*
X131287068Y-65838158D01*
X131399010Y-66108411D01*
X131561525Y-66351632D01*
X131768368Y-66558475D01*
X131942760Y-66675000D01*
X131768368Y-66791525D01*
X131561525Y-66998368D01*
X131399010Y-67241589D01*
X131287068Y-67511842D01*
X131230000Y-67798740D01*
X131230000Y-68091260D01*
X131287068Y-68378158D01*
X131399010Y-68648411D01*
X131561525Y-68891632D01*
X131693380Y-69023487D01*
X131620820Y-69045498D01*
X131510506Y-69104463D01*
X131413815Y-69183815D01*
X131334463Y-69280506D01*
X131275498Y-69390820D01*
X131239188Y-69510518D01*
X131226928Y-69635000D01*
X131230000Y-70199250D01*
X131388750Y-70358000D01*
X132588000Y-70358000D01*
X132588000Y-70338000D01*
X132842000Y-70338000D01*
X132842000Y-70358000D01*
X134041250Y-70358000D01*
X134200000Y-70199250D01*
X134203072Y-69635000D01*
X134190812Y-69510518D01*
X134154502Y-69390820D01*
X134095537Y-69280506D01*
X134016185Y-69183815D01*
X133919494Y-69104463D01*
X133809180Y-69045498D01*
X133736620Y-69023487D01*
X133868475Y-68891632D01*
X134030990Y-68648411D01*
X134142932Y-68378158D01*
X134200000Y-68091260D01*
X134200000Y-67798740D01*
X134142932Y-67511842D01*
X134030990Y-67241589D01*
X133868475Y-66998368D01*
X133661632Y-66791525D01*
X133487240Y-66675000D01*
X133661632Y-66558475D01*
X133862653Y-66357454D01*
X134220000Y-66714802D01*
X134220000Y-66776939D01*
X134259774Y-66976898D01*
X134337795Y-67165256D01*
X134451063Y-67334774D01*
X134595226Y-67478937D01*
X134764744Y-67592205D01*
X134953102Y-67670226D01*
X135153061Y-67710000D01*
X135356939Y-67710000D01*
X135556898Y-67670226D01*
X135745256Y-67592205D01*
X135914774Y-67478937D01*
X136058937Y-67334774D01*
X136172205Y-67165256D01*
X136250226Y-66976898D01*
X136290000Y-66776939D01*
X136290000Y-66573061D01*
X136250226Y-66373102D01*
X136172205Y-66184744D01*
X136058937Y-66015226D01*
X135914774Y-65871063D01*
X135745256Y-65757795D01*
X135556898Y-65679774D01*
X135356939Y-65640000D01*
X135294802Y-65640000D01*
X134548804Y-64894003D01*
X134525001Y-64864999D01*
X134409276Y-64770026D01*
X134277247Y-64699454D01*
X134133986Y-64655997D01*
X134022333Y-64645000D01*
X134022322Y-64645000D01*
X133991125Y-64641927D01*
X133868475Y-64458368D01*
X133661632Y-64251525D01*
X133524655Y-64160000D01*
X149685345Y-64160000D01*
X149548368Y-64251525D01*
X149341525Y-64458368D01*
X149179010Y-64701589D01*
X149067068Y-64971842D01*
X149010000Y-65258740D01*
X149010000Y-65551260D01*
X149042059Y-65712428D01*
X134710388Y-80044100D01*
X134679472Y-80069472D01*
X134609703Y-80154487D01*
X134578251Y-80192811D01*
X134568079Y-80211842D01*
X134503037Y-80333528D01*
X134456720Y-80486213D01*
X134445486Y-80600273D01*
X134441081Y-80645000D01*
X134445000Y-80684788D01*
X134445001Y-97362488D01*
X134047073Y-97760417D01*
X134030990Y-97721589D01*
X133868475Y-97478368D01*
X133736620Y-97346513D01*
X133809180Y-97324502D01*
X133919494Y-97265537D01*
X134016185Y-97186185D01*
X134095537Y-97089494D01*
X134154502Y-96979180D01*
X134190812Y-96859482D01*
X134203072Y-96735000D01*
X134200000Y-96170750D01*
X134041250Y-96012000D01*
X132842000Y-96012000D01*
X132842000Y-96032000D01*
X132588000Y-96032000D01*
X132588000Y-96012000D01*
X131388750Y-96012000D01*
X131230000Y-96170750D01*
X131226928Y-96735000D01*
X131239188Y-96859482D01*
X131275498Y-96979180D01*
X131334463Y-97089494D01*
X131413815Y-97186185D01*
X131510506Y-97265537D01*
X131620820Y-97324502D01*
X131693380Y-97346513D01*
X131561525Y-97478368D01*
X131399010Y-97721589D01*
X131287068Y-97991842D01*
X131230000Y-98278740D01*
X131230000Y-98571260D01*
X131287068Y-98858158D01*
X131399010Y-99128411D01*
X131439426Y-99188898D01*
X131434108Y-99195379D01*
X128534907Y-102094580D01*
X128411335Y-102070000D01*
X128128665Y-102070000D01*
X127851426Y-102125147D01*
X127590273Y-102233320D01*
X127355241Y-102390363D01*
X127155363Y-102590241D01*
X126998320Y-102825273D01*
X126890147Y-103086426D01*
X126835000Y-103363665D01*
X126835000Y-103646335D01*
X126890147Y-103923574D01*
X126998320Y-104184727D01*
X127155363Y-104419759D01*
X127355241Y-104619637D01*
X127460001Y-104689635D01*
X127460000Y-106765365D01*
X127355241Y-106835363D01*
X127155363Y-107035241D01*
X126998320Y-107270273D01*
X126890147Y-107531426D01*
X126835000Y-107808665D01*
X126835000Y-108091335D01*
X126890147Y-108368574D01*
X126998320Y-108629727D01*
X127155363Y-108864759D01*
X127355241Y-109064637D01*
X127587759Y-109220000D01*
X127355241Y-109375363D01*
X127155363Y-109575241D01*
X126998320Y-109810273D01*
X126890147Y-110071426D01*
X126835000Y-110348665D01*
X126835000Y-110631335D01*
X126890147Y-110908574D01*
X126998320Y-111169727D01*
X127155363Y-111404759D01*
X127355241Y-111604637D01*
X127587759Y-111760000D01*
X127355241Y-111915363D01*
X127155363Y-112115241D01*
X126998320Y-112350273D01*
X126890147Y-112611426D01*
X126835000Y-112888665D01*
X126835000Y-113171335D01*
X126890147Y-113448574D01*
X126998320Y-113709727D01*
X127155363Y-113944759D01*
X127355241Y-114144637D01*
X127590273Y-114301680D01*
X127600865Y-114306067D01*
X127414869Y-114417615D01*
X127206481Y-114606586D01*
X127038963Y-114832580D01*
X126918754Y-115086913D01*
X126878096Y-115220961D01*
X127000085Y-115443000D01*
X128143000Y-115443000D01*
X128143000Y-115423000D01*
X128397000Y-115423000D01*
X128397000Y-115443000D01*
X129539915Y-115443000D01*
X129564128Y-115398929D01*
X135885000Y-121719802D01*
X135885000Y-122136852D01*
X135823169Y-122162463D01*
X135539002Y-122352337D01*
X135297337Y-122594002D01*
X135107463Y-122878169D01*
X134976675Y-123193919D01*
X134910000Y-123529117D01*
X134910000Y-123870883D01*
X134976675Y-124206081D01*
X135107463Y-124521831D01*
X135297337Y-124805998D01*
X135539002Y-125047663D01*
X135823169Y-125237537D01*
X136138919Y-125368325D01*
X136474117Y-125435000D01*
X136815883Y-125435000D01*
X137151081Y-125368325D01*
X137466831Y-125237537D01*
X137750998Y-125047663D01*
X137992663Y-124805998D01*
X138182537Y-124521831D01*
X138305001Y-124226178D01*
X138305000Y-126931289D01*
X138261063Y-126975226D01*
X138147795Y-127144744D01*
X138069774Y-127333102D01*
X138030000Y-127533061D01*
X138030000Y-127736939D01*
X138069774Y-127936898D01*
X138147795Y-128125256D01*
X138261063Y-128294774D01*
X138405226Y-128438937D01*
X138574744Y-128552205D01*
X138763102Y-128630226D01*
X138963061Y-128670000D01*
X139166939Y-128670000D01*
X139366898Y-128630226D01*
X139555256Y-128552205D01*
X139724774Y-128438937D01*
X139868937Y-128294774D01*
X139982205Y-128125256D01*
X140060226Y-127936898D01*
X140100000Y-127736939D01*
X140100000Y-127533061D01*
X140092164Y-127493665D01*
X156045000Y-127493665D01*
X156045000Y-127776335D01*
X156100147Y-128053574D01*
X156208320Y-128314727D01*
X156365363Y-128549759D01*
X156565241Y-128749637D01*
X156800273Y-128906680D01*
X157061426Y-129014853D01*
X157338665Y-129070000D01*
X157621335Y-129070000D01*
X157898574Y-129014853D01*
X158159727Y-128906680D01*
X158394759Y-128749637D01*
X158516694Y-128627702D01*
X161666903Y-128627702D01*
X161738486Y-128871671D01*
X161993996Y-128992571D01*
X162268184Y-129061300D01*
X162550512Y-129075217D01*
X162830130Y-129033787D01*
X163096292Y-128938603D01*
X163221514Y-128871671D01*
X163293097Y-128627702D01*
X162480000Y-127814605D01*
X161666903Y-128627702D01*
X158516694Y-128627702D01*
X158594637Y-128549759D01*
X158751680Y-128314727D01*
X158859853Y-128053574D01*
X158915000Y-127776335D01*
X158915000Y-127705512D01*
X161039783Y-127705512D01*
X161081213Y-127985130D01*
X161176397Y-128251292D01*
X161243329Y-128376514D01*
X161487298Y-128448097D01*
X162300395Y-127635000D01*
X162659605Y-127635000D01*
X163472702Y-128448097D01*
X163716671Y-128376514D01*
X163837571Y-128121004D01*
X163906300Y-127846816D01*
X163920217Y-127564488D01*
X163878787Y-127284870D01*
X163783603Y-127018708D01*
X163716671Y-126893486D01*
X163472702Y-126821903D01*
X162659605Y-127635000D01*
X162300395Y-127635000D01*
X161487298Y-126821903D01*
X161243329Y-126893486D01*
X161122429Y-127148996D01*
X161053700Y-127423184D01*
X161039783Y-127705512D01*
X158915000Y-127705512D01*
X158915000Y-127493665D01*
X158859853Y-127216426D01*
X158751680Y-126955273D01*
X158594637Y-126720241D01*
X158516694Y-126642298D01*
X161666903Y-126642298D01*
X162480000Y-127455395D01*
X163293097Y-126642298D01*
X163221514Y-126398329D01*
X162966004Y-126277429D01*
X162691816Y-126208700D01*
X162409488Y-126194783D01*
X162129870Y-126236213D01*
X161863708Y-126331397D01*
X161738486Y-126398329D01*
X161666903Y-126642298D01*
X158516694Y-126642298D01*
X158394759Y-126520363D01*
X158159727Y-126363320D01*
X157898574Y-126255147D01*
X157621335Y-126200000D01*
X157338665Y-126200000D01*
X157061426Y-126255147D01*
X156800273Y-126363320D01*
X156565241Y-126520363D01*
X156365363Y-126720241D01*
X156208320Y-126955273D01*
X156100147Y-127216426D01*
X156045000Y-127493665D01*
X140092164Y-127493665D01*
X140060226Y-127333102D01*
X139982205Y-127144744D01*
X139868937Y-126975226D01*
X139825000Y-126931289D01*
X139825000Y-123529117D01*
X142410000Y-123529117D01*
X142410000Y-123870883D01*
X142476675Y-124206081D01*
X142607463Y-124521831D01*
X142797337Y-124805998D01*
X143039002Y-125047663D01*
X143323169Y-125237537D01*
X143638919Y-125368325D01*
X143974117Y-125435000D01*
X144315883Y-125435000D01*
X144651081Y-125368325D01*
X144966831Y-125237537D01*
X145250998Y-125047663D01*
X145492663Y-124805998D01*
X145682537Y-124521831D01*
X145813325Y-124206081D01*
X145880000Y-123870883D01*
X145880000Y-123529117D01*
X149910000Y-123529117D01*
X149910000Y-123870883D01*
X149976675Y-124206081D01*
X150107463Y-124521831D01*
X150297337Y-124805998D01*
X150539002Y-125047663D01*
X150823169Y-125237537D01*
X151138919Y-125368325D01*
X151474117Y-125435000D01*
X151815883Y-125435000D01*
X152151081Y-125368325D01*
X152466831Y-125237537D01*
X152750998Y-125047663D01*
X152992663Y-124805998D01*
X153182537Y-124521831D01*
X153313325Y-124206081D01*
X153380000Y-123870883D01*
X153380000Y-123529117D01*
X153313325Y-123193919D01*
X153182537Y-122878169D01*
X152992663Y-122594002D01*
X152750998Y-122352337D01*
X152466831Y-122162463D01*
X152151081Y-122031675D01*
X151815883Y-121965000D01*
X151474117Y-121965000D01*
X151138919Y-122031675D01*
X150823169Y-122162463D01*
X150539002Y-122352337D01*
X150297337Y-122594002D01*
X150107463Y-122878169D01*
X149976675Y-123193919D01*
X149910000Y-123529117D01*
X145880000Y-123529117D01*
X145847318Y-123364811D01*
X147485278Y-121726851D01*
X147607463Y-122021831D01*
X147797337Y-122305998D01*
X148039002Y-122547663D01*
X148323169Y-122737537D01*
X148638919Y-122868325D01*
X148974117Y-122935000D01*
X149315883Y-122935000D01*
X149651081Y-122868325D01*
X149966831Y-122737537D01*
X150250998Y-122547663D01*
X150492663Y-122305998D01*
X150682537Y-122021831D01*
X150783259Y-121778665D01*
X156045000Y-121778665D01*
X156045000Y-122061335D01*
X156100147Y-122338574D01*
X156208320Y-122599727D01*
X156365363Y-122834759D01*
X156565241Y-123034637D01*
X156800273Y-123191680D01*
X157061426Y-123299853D01*
X157338665Y-123355000D01*
X157621335Y-123355000D01*
X157898574Y-123299853D01*
X158159727Y-123191680D01*
X158394759Y-123034637D01*
X158516694Y-122912702D01*
X161666903Y-122912702D01*
X161738486Y-123156671D01*
X161993996Y-123277571D01*
X162268184Y-123346300D01*
X162550512Y-123360217D01*
X162830130Y-123318787D01*
X163096292Y-123223603D01*
X163221514Y-123156671D01*
X163253204Y-123048665D01*
X163665000Y-123048665D01*
X163665000Y-123331335D01*
X163720147Y-123608574D01*
X163828320Y-123869727D01*
X163985363Y-124104759D01*
X164185241Y-124304637D01*
X164417759Y-124460000D01*
X164185241Y-124615363D01*
X163985363Y-124815241D01*
X163828320Y-125050273D01*
X163720147Y-125311426D01*
X163665000Y-125588665D01*
X163665000Y-125871335D01*
X163720147Y-126148574D01*
X163828320Y-126409727D01*
X163985363Y-126644759D01*
X164185241Y-126844637D01*
X164420273Y-127001680D01*
X164681426Y-127109853D01*
X164958665Y-127165000D01*
X165241335Y-127165000D01*
X165518574Y-127109853D01*
X165779727Y-127001680D01*
X166014759Y-126844637D01*
X166214637Y-126644759D01*
X166371680Y-126409727D01*
X166479853Y-126148574D01*
X166535000Y-125871335D01*
X166535000Y-125588665D01*
X166479853Y-125311426D01*
X166371680Y-125050273D01*
X166214637Y-124815241D01*
X166014759Y-124615363D01*
X165782241Y-124460000D01*
X166014759Y-124304637D01*
X166214637Y-124104759D01*
X166371680Y-123869727D01*
X166479853Y-123608574D01*
X166535000Y-123331335D01*
X166535000Y-123048665D01*
X166479853Y-122771426D01*
X166371680Y-122510273D01*
X166214637Y-122275241D01*
X166014759Y-122075363D01*
X165779727Y-121918320D01*
X165518574Y-121810147D01*
X165241335Y-121755000D01*
X164958665Y-121755000D01*
X164681426Y-121810147D01*
X164420273Y-121918320D01*
X164185241Y-122075363D01*
X163985363Y-122275241D01*
X163828320Y-122510273D01*
X163720147Y-122771426D01*
X163665000Y-123048665D01*
X163253204Y-123048665D01*
X163293097Y-122912702D01*
X162480000Y-122099605D01*
X161666903Y-122912702D01*
X158516694Y-122912702D01*
X158594637Y-122834759D01*
X158751680Y-122599727D01*
X158859853Y-122338574D01*
X158915000Y-122061335D01*
X158915000Y-121990512D01*
X161039783Y-121990512D01*
X161081213Y-122270130D01*
X161176397Y-122536292D01*
X161243329Y-122661514D01*
X161487298Y-122733097D01*
X162300395Y-121920000D01*
X162659605Y-121920000D01*
X163472702Y-122733097D01*
X163716671Y-122661514D01*
X163837571Y-122406004D01*
X163906300Y-122131816D01*
X163920217Y-121849488D01*
X163878787Y-121569870D01*
X163783603Y-121303708D01*
X163716671Y-121178486D01*
X163472702Y-121106903D01*
X162659605Y-121920000D01*
X162300395Y-121920000D01*
X161487298Y-121106903D01*
X161243329Y-121178486D01*
X161122429Y-121433996D01*
X161053700Y-121708184D01*
X161039783Y-121990512D01*
X158915000Y-121990512D01*
X158915000Y-121778665D01*
X158859853Y-121501426D01*
X158751680Y-121240273D01*
X158594637Y-121005241D01*
X158516694Y-120927298D01*
X161666903Y-120927298D01*
X162480000Y-121740395D01*
X163293097Y-120927298D01*
X163221514Y-120683329D01*
X162966004Y-120562429D01*
X162691816Y-120493700D01*
X162409488Y-120479783D01*
X162129870Y-120521213D01*
X161863708Y-120616397D01*
X161738486Y-120683329D01*
X161666903Y-120927298D01*
X158516694Y-120927298D01*
X158394759Y-120805363D01*
X158159727Y-120648320D01*
X157898574Y-120540147D01*
X157621335Y-120485000D01*
X157338665Y-120485000D01*
X157061426Y-120540147D01*
X156800273Y-120648320D01*
X156565241Y-120805363D01*
X156365363Y-121005241D01*
X156208320Y-121240273D01*
X156100147Y-121501426D01*
X156045000Y-121778665D01*
X150783259Y-121778665D01*
X150813325Y-121706081D01*
X150880000Y-121370883D01*
X150880000Y-121029117D01*
X150813325Y-120693919D01*
X150682537Y-120378169D01*
X150492663Y-120094002D01*
X150250998Y-119852337D01*
X149966831Y-119662463D01*
X149671851Y-119540278D01*
X153142130Y-116070000D01*
X156380375Y-116070000D01*
X156389188Y-116159482D01*
X156425498Y-116279180D01*
X156484463Y-116389494D01*
X156563815Y-116486185D01*
X156660506Y-116565537D01*
X156770820Y-116624502D01*
X156890518Y-116660812D01*
X157015000Y-116673072D01*
X159215000Y-116673072D01*
X159339482Y-116660812D01*
X159459180Y-116624502D01*
X159569494Y-116565537D01*
X159666185Y-116486185D01*
X159745537Y-116389494D01*
X159804502Y-116279180D01*
X159840812Y-116159482D01*
X159853072Y-116035000D01*
X159853072Y-113835000D01*
X159840812Y-113710518D01*
X159804502Y-113590820D01*
X159745537Y-113480506D01*
X159666185Y-113383815D01*
X159569494Y-113304463D01*
X159459180Y-113245498D01*
X159339482Y-113209188D01*
X159215000Y-113196928D01*
X157015000Y-113196928D01*
X156890518Y-113209188D01*
X156770820Y-113245498D01*
X156660506Y-113304463D01*
X156563815Y-113383815D01*
X156484463Y-113480506D01*
X156425498Y-113590820D01*
X156389188Y-113710518D01*
X156380375Y-113800000D01*
X152727741Y-113800000D01*
X152671997Y-113794510D01*
X152616253Y-113800000D01*
X152616246Y-113800000D01*
X152470491Y-113814356D01*
X152449498Y-113816423D01*
X152404742Y-113830000D01*
X152235551Y-113881324D01*
X152038375Y-113986716D01*
X151926902Y-114078200D01*
X151980000Y-113811260D01*
X151980000Y-113518740D01*
X151922932Y-113231842D01*
X151810990Y-112961589D01*
X151648475Y-112718368D01*
X151441632Y-112511525D01*
X151267240Y-112395000D01*
X151441632Y-112278475D01*
X151648475Y-112071632D01*
X151810990Y-111828411D01*
X151922932Y-111558158D01*
X151980000Y-111271260D01*
X151980000Y-110978740D01*
X151922932Y-110691842D01*
X151810990Y-110421589D01*
X151648475Y-110178368D01*
X151516620Y-110046513D01*
X151589180Y-110024502D01*
X151699494Y-109965537D01*
X151796185Y-109886185D01*
X151875537Y-109789494D01*
X151934502Y-109679180D01*
X151970812Y-109559482D01*
X151983072Y-109435000D01*
X151980000Y-108870750D01*
X151821250Y-108712000D01*
X150622000Y-108712000D01*
X150622000Y-108732000D01*
X150368000Y-108732000D01*
X150368000Y-108712000D01*
X149168750Y-108712000D01*
X149010000Y-108870750D01*
X149006928Y-109435000D01*
X149019188Y-109559482D01*
X149055498Y-109679180D01*
X149114463Y-109789494D01*
X149193815Y-109886185D01*
X149290506Y-109965537D01*
X149400820Y-110024502D01*
X149473380Y-110046513D01*
X149341525Y-110178368D01*
X149179010Y-110421589D01*
X149067068Y-110691842D01*
X149010000Y-110978740D01*
X149010000Y-111271260D01*
X149067068Y-111558158D01*
X149179010Y-111828411D01*
X149341525Y-112071632D01*
X149548368Y-112278475D01*
X149722760Y-112395000D01*
X149548368Y-112511525D01*
X149341525Y-112718368D01*
X149179010Y-112961589D01*
X149067068Y-113231842D01*
X149010000Y-113518740D01*
X149010000Y-113811260D01*
X149067068Y-114098158D01*
X149179010Y-114368411D01*
X149341525Y-114611632D01*
X149548368Y-114818475D01*
X149791589Y-114980990D01*
X150061842Y-115092932D01*
X150348740Y-115150000D01*
X150641260Y-115150000D01*
X150904161Y-115097705D01*
X144036867Y-121965000D01*
X143974117Y-121965000D01*
X143638919Y-122031675D01*
X143323169Y-122162463D01*
X143039002Y-122352337D01*
X142797337Y-122594002D01*
X142607463Y-122878169D01*
X142476675Y-123193919D01*
X142410000Y-123529117D01*
X139825000Y-123529117D01*
X139825000Y-122796285D01*
X139966831Y-122737537D01*
X140250998Y-122547663D01*
X140492663Y-122305998D01*
X140682537Y-122021831D01*
X140813325Y-121706081D01*
X140880000Y-121370883D01*
X140880000Y-121029117D01*
X140813325Y-120693919D01*
X140682537Y-120378169D01*
X140492663Y-120094002D01*
X140250998Y-119852337D01*
X139966831Y-119662463D01*
X139651081Y-119531675D01*
X139315883Y-119465000D01*
X138974117Y-119465000D01*
X138638919Y-119531675D01*
X138323169Y-119662463D01*
X138158375Y-119772575D01*
X136914917Y-118529117D01*
X142410000Y-118529117D01*
X142410000Y-118870883D01*
X142476675Y-119206081D01*
X142607463Y-119521831D01*
X142797337Y-119805998D01*
X143039002Y-120047663D01*
X143323169Y-120237537D01*
X143638919Y-120368325D01*
X143974117Y-120435000D01*
X144315883Y-120435000D01*
X144651081Y-120368325D01*
X144966831Y-120237537D01*
X145250998Y-120047663D01*
X145492663Y-119805998D01*
X145682537Y-119521831D01*
X145813325Y-119206081D01*
X145880000Y-118870883D01*
X145880000Y-118529117D01*
X145813325Y-118193919D01*
X145682537Y-117878169D01*
X145492663Y-117594002D01*
X145250998Y-117352337D01*
X144966831Y-117162463D01*
X144651081Y-117031675D01*
X144315883Y-116965000D01*
X143974117Y-116965000D01*
X143638919Y-117031675D01*
X143323169Y-117162463D01*
X143039002Y-117352337D01*
X142797337Y-117594002D01*
X142607463Y-117878169D01*
X142476675Y-118193919D01*
X142410000Y-118529117D01*
X136914917Y-118529117D01*
X133381909Y-114996110D01*
X133418411Y-114980990D01*
X133661632Y-114818475D01*
X133868475Y-114611632D01*
X134030990Y-114368411D01*
X134142932Y-114098158D01*
X134200000Y-113811260D01*
X134200000Y-113518740D01*
X134142932Y-113231842D01*
X134030990Y-112961589D01*
X133868475Y-112718368D01*
X133661632Y-112511525D01*
X133487240Y-112395000D01*
X133661632Y-112278475D01*
X133686442Y-112253665D01*
X136360000Y-112253665D01*
X136360000Y-112536335D01*
X136415147Y-112813574D01*
X136523320Y-113074727D01*
X136680363Y-113309759D01*
X136880241Y-113509637D01*
X137115273Y-113666680D01*
X137376426Y-113774853D01*
X137653665Y-113830000D01*
X137936335Y-113830000D01*
X138213574Y-113774853D01*
X138474727Y-113666680D01*
X138709759Y-113509637D01*
X138909637Y-113309759D01*
X139066680Y-113074727D01*
X139174853Y-112813574D01*
X139188684Y-112744039D01*
X144023096Y-112744039D01*
X144063754Y-112878087D01*
X144183963Y-113132420D01*
X144351481Y-113358414D01*
X144559869Y-113547385D01*
X144801119Y-113692070D01*
X145065960Y-113786909D01*
X145288000Y-113665624D01*
X145288000Y-112522000D01*
X145542000Y-112522000D01*
X145542000Y-113665624D01*
X145764040Y-113786909D01*
X146028881Y-113692070D01*
X146270131Y-113547385D01*
X146478519Y-113358414D01*
X146646037Y-113132420D01*
X146766246Y-112878087D01*
X146806904Y-112744039D01*
X146684915Y-112522000D01*
X145542000Y-112522000D01*
X145288000Y-112522000D01*
X144145085Y-112522000D01*
X144023096Y-112744039D01*
X139188684Y-112744039D01*
X139230000Y-112536335D01*
X139230000Y-112253665D01*
X139188685Y-112045961D01*
X144023096Y-112045961D01*
X144145085Y-112268000D01*
X145288000Y-112268000D01*
X145288000Y-111124376D01*
X145542000Y-111124376D01*
X145542000Y-112268000D01*
X146684915Y-112268000D01*
X146806904Y-112045961D01*
X146766246Y-111911913D01*
X146646037Y-111657580D01*
X146478519Y-111431586D01*
X146270131Y-111242615D01*
X146028881Y-111097930D01*
X145764040Y-111003091D01*
X145542000Y-111124376D01*
X145288000Y-111124376D01*
X145065960Y-111003091D01*
X144801119Y-111097930D01*
X144559869Y-111242615D01*
X144351481Y-111431586D01*
X144183963Y-111657580D01*
X144063754Y-111911913D01*
X144023096Y-112045961D01*
X139188685Y-112045961D01*
X139174853Y-111976426D01*
X139066680Y-111715273D01*
X138909637Y-111480241D01*
X138709759Y-111280363D01*
X138555000Y-111176957D01*
X138555000Y-111054801D01*
X138851729Y-110758072D01*
X140173750Y-110758072D01*
X140298232Y-110745812D01*
X140417930Y-110709502D01*
X140528244Y-110650537D01*
X140624935Y-110571185D01*
X140704287Y-110474494D01*
X140711741Y-110460550D01*
X140771103Y-110509267D01*
X141030602Y-110647972D01*
X141312175Y-110733386D01*
X141605000Y-110762227D01*
X141897826Y-110733386D01*
X142179399Y-110647972D01*
X142438898Y-110509267D01*
X142666351Y-110322601D01*
X142755413Y-110214078D01*
X142858990Y-110335702D01*
X143088512Y-110517172D01*
X143349027Y-110650378D01*
X143536736Y-110711400D01*
X143768000Y-110590195D01*
X143768000Y-109347000D01*
X144022000Y-109347000D01*
X144022000Y-110590195D01*
X144253264Y-110711400D01*
X144440973Y-110650378D01*
X144701488Y-110517172D01*
X144931010Y-110335702D01*
X145120718Y-110112941D01*
X145263323Y-109857450D01*
X145353344Y-109579048D01*
X145226354Y-109347000D01*
X144022000Y-109347000D01*
X143768000Y-109347000D01*
X143748000Y-109347000D01*
X143748000Y-109093000D01*
X143768000Y-109093000D01*
X143768000Y-107849805D01*
X144022000Y-107849805D01*
X144022000Y-109093000D01*
X145226354Y-109093000D01*
X145353344Y-108860952D01*
X145263323Y-108582550D01*
X145120718Y-108327059D01*
X144931010Y-108104298D01*
X144701488Y-107922828D01*
X144440973Y-107789622D01*
X144253264Y-107728600D01*
X144022000Y-107849805D01*
X143768000Y-107849805D01*
X143536736Y-107728600D01*
X143349027Y-107789622D01*
X143088512Y-107922828D01*
X142858990Y-108104298D01*
X142755413Y-108225921D01*
X142666351Y-108117399D01*
X142438897Y-107930733D01*
X142179398Y-107792028D01*
X141897825Y-107706614D01*
X141605000Y-107677773D01*
X141312174Y-107706614D01*
X141030601Y-107792028D01*
X140771102Y-107930733D01*
X140711740Y-107979450D01*
X140704287Y-107965506D01*
X140624935Y-107868815D01*
X140528244Y-107789463D01*
X140417930Y-107730498D01*
X140298232Y-107694188D01*
X140173750Y-107681928D01*
X140075000Y-107681928D01*
X140075000Y-96735000D01*
X149006928Y-96735000D01*
X149019188Y-96859482D01*
X149055498Y-96979180D01*
X149114463Y-97089494D01*
X149193815Y-97186185D01*
X149290506Y-97265537D01*
X149400820Y-97324502D01*
X149473380Y-97346513D01*
X149341525Y-97478368D01*
X149179010Y-97721589D01*
X149067068Y-97991842D01*
X149010000Y-98278740D01*
X149010000Y-98571260D01*
X149067068Y-98858158D01*
X149179010Y-99128411D01*
X149341525Y-99371632D01*
X149548368Y-99578475D01*
X149722760Y-99695000D01*
X149548368Y-99811525D01*
X149341525Y-100018368D01*
X149179010Y-100261589D01*
X149067068Y-100531842D01*
X149010000Y-100818740D01*
X149010000Y-101111260D01*
X149067068Y-101398158D01*
X149179010Y-101668411D01*
X149341525Y-101911632D01*
X149548368Y-102118475D01*
X149722760Y-102235000D01*
X149548368Y-102351525D01*
X149341525Y-102558368D01*
X149179010Y-102801589D01*
X149067068Y-103071842D01*
X149010000Y-103358740D01*
X149010000Y-103651260D01*
X149067068Y-103938158D01*
X149179010Y-104208411D01*
X149341525Y-104451632D01*
X149548368Y-104658475D01*
X149722760Y-104775000D01*
X149548368Y-104891525D01*
X149341525Y-105098368D01*
X149179010Y-105341589D01*
X149067068Y-105611842D01*
X149010000Y-105898740D01*
X149010000Y-106191260D01*
X149067068Y-106478158D01*
X149179010Y-106748411D01*
X149341525Y-106991632D01*
X149473380Y-107123487D01*
X149400820Y-107145498D01*
X149290506Y-107204463D01*
X149193815Y-107283815D01*
X149114463Y-107380506D01*
X149055498Y-107490820D01*
X149019188Y-107610518D01*
X149006928Y-107735000D01*
X149010000Y-108299250D01*
X149168750Y-108458000D01*
X150368000Y-108458000D01*
X150368000Y-108438000D01*
X150622000Y-108438000D01*
X150622000Y-108458000D01*
X151821250Y-108458000D01*
X151980000Y-108299250D01*
X151983072Y-107735000D01*
X151970812Y-107610518D01*
X151934502Y-107490820D01*
X151875537Y-107380506D01*
X151796185Y-107283815D01*
X151699494Y-107204463D01*
X151589180Y-107145498D01*
X151516620Y-107123487D01*
X151648475Y-106991632D01*
X151810990Y-106748411D01*
X151922932Y-106478158D01*
X151980000Y-106191260D01*
X151980000Y-105898740D01*
X151922932Y-105611842D01*
X151810990Y-105341589D01*
X151648475Y-105098368D01*
X151441632Y-104891525D01*
X151267240Y-104775000D01*
X151441632Y-104658475D01*
X151648475Y-104451632D01*
X151810990Y-104208411D01*
X151922932Y-103938158D01*
X151980000Y-103651260D01*
X151980000Y-103358740D01*
X151922932Y-103071842D01*
X151810990Y-102801589D01*
X151648475Y-102558368D01*
X151441632Y-102351525D01*
X151267240Y-102235000D01*
X151441632Y-102118475D01*
X151648475Y-101911632D01*
X151810990Y-101668411D01*
X151922932Y-101398158D01*
X151980000Y-101111260D01*
X151980000Y-100818740D01*
X151953774Y-100686890D01*
X156673524Y-100686890D01*
X156718175Y-100834099D01*
X156843359Y-101096920D01*
X157017412Y-101330269D01*
X157233645Y-101525178D01*
X157483748Y-101674157D01*
X157758109Y-101771481D01*
X157988000Y-101650814D01*
X157988000Y-100457000D01*
X156794845Y-100457000D01*
X156673524Y-100686890D01*
X151953774Y-100686890D01*
X151922932Y-100531842D01*
X151810990Y-100261589D01*
X151648475Y-100018368D01*
X151441632Y-99811525D01*
X151267240Y-99695000D01*
X151441632Y-99578475D01*
X151648475Y-99371632D01*
X151810990Y-99128411D01*
X151922932Y-98858158D01*
X151980000Y-98571260D01*
X151980000Y-98278740D01*
X151922932Y-97991842D01*
X151810990Y-97721589D01*
X151648475Y-97478368D01*
X151516620Y-97346513D01*
X151589180Y-97324502D01*
X151699494Y-97265537D01*
X151796185Y-97186185D01*
X151875537Y-97089494D01*
X151934502Y-96979180D01*
X151970812Y-96859482D01*
X151983072Y-96735000D01*
X151980000Y-96170750D01*
X151821250Y-96012000D01*
X150622000Y-96012000D01*
X150622000Y-96032000D01*
X150368000Y-96032000D01*
X150368000Y-96012000D01*
X149168750Y-96012000D01*
X149010000Y-96170750D01*
X149006928Y-96735000D01*
X140075000Y-96735000D01*
X140075000Y-89229946D01*
X140190256Y-89182205D01*
X140359774Y-89068937D01*
X140503937Y-88924774D01*
X140617205Y-88755256D01*
X140695226Y-88566898D01*
X140735000Y-88366939D01*
X140735000Y-88163061D01*
X140695226Y-87963102D01*
X140617205Y-87774744D01*
X140503937Y-87605226D01*
X140359774Y-87461063D01*
X140190256Y-87347795D01*
X140001898Y-87269774D01*
X139801939Y-87230000D01*
X139598061Y-87230000D01*
X139398102Y-87269774D01*
X139209744Y-87347795D01*
X139040226Y-87461063D01*
X138896063Y-87605226D01*
X138782795Y-87774744D01*
X138704774Y-87963102D01*
X138665000Y-88163061D01*
X138665000Y-88253835D01*
X138609454Y-88357754D01*
X138593224Y-88411260D01*
X138565998Y-88501014D01*
X138559509Y-88566898D01*
X138551324Y-88650000D01*
X138555001Y-88687333D01*
X138555000Y-107681928D01*
X138456250Y-107681928D01*
X138331768Y-107694188D01*
X138212070Y-107730498D01*
X138101756Y-107789463D01*
X138005065Y-107868815D01*
X137925713Y-107965506D01*
X137866748Y-108075820D01*
X137830438Y-108195518D01*
X137818178Y-108320000D01*
X137818178Y-109642021D01*
X137283998Y-110176201D01*
X137255000Y-110199999D01*
X137231202Y-110228997D01*
X137231201Y-110228998D01*
X137160026Y-110315724D01*
X137089454Y-110447754D01*
X137070795Y-110509267D01*
X137046247Y-110590195D01*
X137045998Y-110591015D01*
X137031324Y-110740000D01*
X137035001Y-110777332D01*
X137035001Y-111176956D01*
X136880241Y-111280363D01*
X136680363Y-111480241D01*
X136523320Y-111715273D01*
X136415147Y-111976426D01*
X136360000Y-112253665D01*
X133686442Y-112253665D01*
X133868475Y-112071632D01*
X134030990Y-111828411D01*
X134142932Y-111558158D01*
X134200000Y-111271260D01*
X134200000Y-110978740D01*
X134142932Y-110691842D01*
X134030990Y-110421589D01*
X133868475Y-110178368D01*
X133736620Y-110046513D01*
X133809180Y-110024502D01*
X133919494Y-109965537D01*
X134016185Y-109886185D01*
X134095537Y-109789494D01*
X134154502Y-109679180D01*
X134190812Y-109559482D01*
X134203072Y-109435000D01*
X134200000Y-108870750D01*
X134041250Y-108712000D01*
X132842000Y-108712000D01*
X132842000Y-108732000D01*
X132588000Y-108732000D01*
X132588000Y-108712000D01*
X131388750Y-108712000D01*
X131230000Y-108870750D01*
X131226928Y-109435000D01*
X131239188Y-109559482D01*
X131275498Y-109679180D01*
X131334463Y-109789494D01*
X131413815Y-109886185D01*
X131510506Y-109965537D01*
X131620820Y-110024502D01*
X131693380Y-110046513D01*
X131561525Y-110178368D01*
X131399010Y-110421589D01*
X131287068Y-110691842D01*
X131230000Y-110978740D01*
X131230000Y-111271260D01*
X131287068Y-111558158D01*
X131399010Y-111828411D01*
X131561525Y-112071632D01*
X131768368Y-112278475D01*
X131942760Y-112395000D01*
X131768368Y-112511525D01*
X131561525Y-112718368D01*
X131399010Y-112961589D01*
X131383890Y-112998091D01*
X130155001Y-111769202D01*
X130155001Y-111652326D01*
X130158677Y-111615001D01*
X130155001Y-111577676D01*
X130155001Y-111577668D01*
X130144004Y-111466015D01*
X130100547Y-111322754D01*
X130029975Y-111190725D01*
X129935002Y-111075000D01*
X129906005Y-111051203D01*
X129668688Y-110813886D01*
X129705000Y-110631335D01*
X129705000Y-110348665D01*
X129649853Y-110071426D01*
X129541680Y-109810273D01*
X129384637Y-109575241D01*
X129184759Y-109375363D01*
X128952241Y-109220000D01*
X129184759Y-109064637D01*
X129384637Y-108864759D01*
X129541680Y-108629727D01*
X129649853Y-108368574D01*
X129705000Y-108091335D01*
X129705000Y-107808665D01*
X129649853Y-107531426D01*
X129541680Y-107270273D01*
X129384637Y-107035241D01*
X129184759Y-106835363D01*
X129080000Y-106765365D01*
X129080000Y-104689635D01*
X129184759Y-104619637D01*
X129384637Y-104419759D01*
X129541680Y-104184727D01*
X129649853Y-103923574D01*
X129705000Y-103646335D01*
X129705000Y-103363665D01*
X129680420Y-103240093D01*
X131355982Y-101564531D01*
X131399010Y-101668411D01*
X131561525Y-101911632D01*
X131768368Y-102118475D01*
X131942760Y-102235000D01*
X131768368Y-102351525D01*
X131561525Y-102558368D01*
X131399010Y-102801589D01*
X131287068Y-103071842D01*
X131230000Y-103358740D01*
X131230000Y-103651260D01*
X131287068Y-103938158D01*
X131399010Y-104208411D01*
X131561525Y-104451632D01*
X131768368Y-104658475D01*
X131942760Y-104775000D01*
X131768368Y-104891525D01*
X131561525Y-105098368D01*
X131399010Y-105341589D01*
X131287068Y-105611842D01*
X131230000Y-105898740D01*
X131230000Y-106191260D01*
X131287068Y-106478158D01*
X131399010Y-106748411D01*
X131561525Y-106991632D01*
X131693380Y-107123487D01*
X131620820Y-107145498D01*
X131510506Y-107204463D01*
X131413815Y-107283815D01*
X131334463Y-107380506D01*
X131275498Y-107490820D01*
X131239188Y-107610518D01*
X131226928Y-107735000D01*
X131230000Y-108299250D01*
X131388750Y-108458000D01*
X132588000Y-108458000D01*
X132588000Y-108438000D01*
X132842000Y-108438000D01*
X132842000Y-108458000D01*
X134041250Y-108458000D01*
X134200000Y-108299250D01*
X134203072Y-107735000D01*
X134190812Y-107610518D01*
X134154502Y-107490820D01*
X134095537Y-107380506D01*
X134016185Y-107283815D01*
X133919494Y-107204463D01*
X133809180Y-107145498D01*
X133736620Y-107123487D01*
X133868475Y-106991632D01*
X134030990Y-106748411D01*
X134142932Y-106478158D01*
X134200000Y-106191260D01*
X134200000Y-105898740D01*
X134142932Y-105611842D01*
X134030990Y-105341589D01*
X133868475Y-105098368D01*
X133661632Y-104891525D01*
X133487240Y-104775000D01*
X133661632Y-104658475D01*
X133868475Y-104451632D01*
X134030990Y-104208411D01*
X134142932Y-103938158D01*
X134200000Y-103651260D01*
X134200000Y-103358740D01*
X134142932Y-103071842D01*
X134030990Y-102801589D01*
X133868475Y-102558368D01*
X133661632Y-102351525D01*
X133487240Y-102235000D01*
X133661632Y-102118475D01*
X133868475Y-101911632D01*
X134030990Y-101668411D01*
X134142932Y-101398158D01*
X134200000Y-101111260D01*
X134200000Y-100818740D01*
X134142932Y-100531842D01*
X134030990Y-100261589D01*
X133953259Y-100145256D01*
X135799618Y-98298897D01*
X135830528Y-98273530D01*
X135879214Y-98214206D01*
X135931749Y-98150192D01*
X136006962Y-98009476D01*
X136006963Y-98009475D01*
X136053280Y-97856790D01*
X136065000Y-97737793D01*
X136065000Y-97737790D01*
X136068919Y-97698002D01*
X136065000Y-97658214D01*
X136065000Y-80980512D01*
X149010000Y-68035513D01*
X149010000Y-68091260D01*
X149067068Y-68378158D01*
X149179010Y-68648411D01*
X149341525Y-68891632D01*
X149473380Y-69023487D01*
X149400820Y-69045498D01*
X149290506Y-69104463D01*
X149193815Y-69183815D01*
X149114463Y-69280506D01*
X149055498Y-69390820D01*
X149019188Y-69510518D01*
X149006928Y-69635000D01*
X149010000Y-70199250D01*
X149168750Y-70358000D01*
X150368000Y-70358000D01*
X150368000Y-70338000D01*
X150622000Y-70338000D01*
X150622000Y-70358000D01*
X150642000Y-70358000D01*
X150642000Y-70612000D01*
X150622000Y-70612000D01*
X150622000Y-70632000D01*
X150368000Y-70632000D01*
X150368000Y-70612000D01*
X149168750Y-70612000D01*
X149010000Y-70770750D01*
X149006928Y-71335000D01*
X149019188Y-71459482D01*
X149055498Y-71579180D01*
X149114463Y-71689494D01*
X149193815Y-71786185D01*
X149290506Y-71865537D01*
X149400820Y-71924502D01*
X149473380Y-71946513D01*
X149341525Y-72078368D01*
X149179010Y-72321589D01*
X149067068Y-72591842D01*
X149010000Y-72878740D01*
X149010000Y-73171260D01*
X149067068Y-73458158D01*
X149179010Y-73728411D01*
X149341525Y-73971632D01*
X149548368Y-74178475D01*
X149722760Y-74295000D01*
X149548368Y-74411525D01*
X149341525Y-74618368D01*
X149179010Y-74861589D01*
X149067068Y-75131842D01*
X149010000Y-75418740D01*
X149010000Y-75711260D01*
X149067068Y-75998158D01*
X149179010Y-76268411D01*
X149341525Y-76511632D01*
X149548368Y-76718475D01*
X149722760Y-76835000D01*
X149548368Y-76951525D01*
X149341525Y-77158368D01*
X149179010Y-77401589D01*
X149067068Y-77671842D01*
X149010000Y-77958740D01*
X149010000Y-78251260D01*
X149067068Y-78538158D01*
X149179010Y-78808411D01*
X149341525Y-79051632D01*
X149548368Y-79258475D01*
X149722760Y-79375000D01*
X149548368Y-79491525D01*
X149341525Y-79698368D01*
X149179010Y-79941589D01*
X149067068Y-80211842D01*
X149010000Y-80498740D01*
X149010000Y-80791260D01*
X149067068Y-81078158D01*
X149179010Y-81348411D01*
X149341525Y-81591632D01*
X149473380Y-81723487D01*
X149400820Y-81745498D01*
X149290506Y-81804463D01*
X149193815Y-81883815D01*
X149114463Y-81980506D01*
X149055498Y-82090820D01*
X149019188Y-82210518D01*
X149006928Y-82335000D01*
X149010000Y-82899250D01*
X149168750Y-83058000D01*
X150368000Y-83058000D01*
X150368000Y-83038000D01*
X150622000Y-83038000D01*
X150622000Y-83058000D01*
X150642000Y-83058000D01*
X150642000Y-83312000D01*
X150622000Y-83312000D01*
X150622000Y-83332000D01*
X150368000Y-83332000D01*
X150368000Y-83312000D01*
X149168750Y-83312000D01*
X149010000Y-83470750D01*
X149006928Y-84035000D01*
X149019188Y-84159482D01*
X149055498Y-84279180D01*
X149114463Y-84389494D01*
X149193815Y-84486185D01*
X149290506Y-84565537D01*
X149400820Y-84624502D01*
X149473380Y-84646513D01*
X149341525Y-84778368D01*
X149179010Y-85021589D01*
X149067068Y-85291842D01*
X149010000Y-85578740D01*
X149010000Y-85871260D01*
X149067068Y-86158158D01*
X149179010Y-86428411D01*
X149341525Y-86671632D01*
X149548368Y-86878475D01*
X149722760Y-86995000D01*
X149548368Y-87111525D01*
X149341525Y-87318368D01*
X149179010Y-87561589D01*
X149067068Y-87831842D01*
X149010000Y-88118740D01*
X149010000Y-88411260D01*
X149067068Y-88698158D01*
X149179010Y-88968411D01*
X149341525Y-89211632D01*
X149548368Y-89418475D01*
X149722760Y-89535000D01*
X149548368Y-89651525D01*
X149341525Y-89858368D01*
X149179010Y-90101589D01*
X149067068Y-90371842D01*
X149010000Y-90658740D01*
X149010000Y-90951260D01*
X149067068Y-91238158D01*
X149179010Y-91508411D01*
X149341525Y-91751632D01*
X149548368Y-91958475D01*
X149722760Y-92075000D01*
X149548368Y-92191525D01*
X149341525Y-92398368D01*
X149179010Y-92641589D01*
X149067068Y-92911842D01*
X149010000Y-93198740D01*
X149010000Y-93491260D01*
X149067068Y-93778158D01*
X149179010Y-94048411D01*
X149341525Y-94291632D01*
X149473380Y-94423487D01*
X149400820Y-94445498D01*
X149290506Y-94504463D01*
X149193815Y-94583815D01*
X149114463Y-94680506D01*
X149055498Y-94790820D01*
X149019188Y-94910518D01*
X149006928Y-95035000D01*
X149010000Y-95599250D01*
X149168750Y-95758000D01*
X150368000Y-95758000D01*
X150368000Y-95738000D01*
X150622000Y-95738000D01*
X150622000Y-95758000D01*
X151821250Y-95758000D01*
X151980000Y-95599250D01*
X151983072Y-95035000D01*
X151970812Y-94910518D01*
X151934502Y-94790820D01*
X151875537Y-94680506D01*
X151796185Y-94583815D01*
X151699494Y-94504463D01*
X151589180Y-94445498D01*
X151516620Y-94423487D01*
X151648475Y-94291632D01*
X151810990Y-94048411D01*
X151922932Y-93778158D01*
X151980000Y-93491260D01*
X151980000Y-93198740D01*
X151922932Y-92911842D01*
X151810990Y-92641589D01*
X151648475Y-92398368D01*
X151441632Y-92191525D01*
X151267240Y-92075000D01*
X151441632Y-91958475D01*
X151648475Y-91751632D01*
X151810990Y-91508411D01*
X151922932Y-91238158D01*
X151980000Y-90951260D01*
X151980000Y-90658740D01*
X151953774Y-90526890D01*
X156673524Y-90526890D01*
X156718175Y-90674099D01*
X156843359Y-90936920D01*
X157017412Y-91170269D01*
X157233645Y-91365178D01*
X157483748Y-91514157D01*
X157758109Y-91611481D01*
X157988000Y-91490814D01*
X157988000Y-90297000D01*
X156794845Y-90297000D01*
X156673524Y-90526890D01*
X151953774Y-90526890D01*
X151922932Y-90371842D01*
X151810990Y-90101589D01*
X151648475Y-89858368D01*
X151441632Y-89651525D01*
X151267240Y-89535000D01*
X151441632Y-89418475D01*
X151648475Y-89211632D01*
X151810990Y-88968411D01*
X151922932Y-88698158D01*
X151980000Y-88411260D01*
X151980000Y-88118740D01*
X151922932Y-87831842D01*
X151810990Y-87561589D01*
X151648475Y-87318368D01*
X151441632Y-87111525D01*
X151267240Y-86995000D01*
X151441632Y-86878475D01*
X151648475Y-86671632D01*
X151810990Y-86428411D01*
X151922932Y-86158158D01*
X151980000Y-85871260D01*
X151980000Y-85578740D01*
X151922932Y-85291842D01*
X151810990Y-85021589D01*
X151648475Y-84778368D01*
X151516620Y-84646513D01*
X151589180Y-84624502D01*
X151699494Y-84565537D01*
X151796185Y-84486185D01*
X151875537Y-84389494D01*
X151934502Y-84279180D01*
X151970812Y-84159482D01*
X151983072Y-84035000D01*
X151980000Y-83470750D01*
X151821252Y-83312002D01*
X151980000Y-83312002D01*
X151980000Y-83204801D01*
X152635000Y-83859802D01*
X152635000Y-83921939D01*
X152674774Y-84121898D01*
X152752795Y-84310256D01*
X152866063Y-84479774D01*
X153010226Y-84623937D01*
X153179744Y-84737205D01*
X153368102Y-84815226D01*
X153568061Y-84855000D01*
X153771939Y-84855000D01*
X153971898Y-84815226D01*
X154160256Y-84737205D01*
X154329774Y-84623937D01*
X154473937Y-84479774D01*
X154587205Y-84310256D01*
X154665226Y-84121898D01*
X154705000Y-83921939D01*
X154705000Y-83718061D01*
X154665226Y-83518102D01*
X154587205Y-83329744D01*
X154473937Y-83160226D01*
X154329774Y-83016063D01*
X154160256Y-82902795D01*
X153971898Y-82824774D01*
X153771939Y-82785000D01*
X153709802Y-82785000D01*
X153160000Y-82235199D01*
X153160000Y-75212748D01*
X153323286Y-75411714D01*
X153572248Y-75616031D01*
X153856285Y-75767852D01*
X154164484Y-75861343D01*
X154485000Y-75892911D01*
X154805515Y-75861343D01*
X155113714Y-75767852D01*
X155215000Y-75713714D01*
X155215000Y-82912666D01*
X155211323Y-82949999D01*
X155225997Y-83098984D01*
X155269453Y-83242245D01*
X155340025Y-83374275D01*
X155409291Y-83458675D01*
X155434999Y-83490000D01*
X155463997Y-83513798D01*
X156626928Y-84676730D01*
X156626928Y-85940000D01*
X156639188Y-86064482D01*
X156675498Y-86184180D01*
X156734463Y-86294494D01*
X156813815Y-86391185D01*
X156910506Y-86470537D01*
X157020820Y-86529502D01*
X157093380Y-86551513D01*
X156961525Y-86683368D01*
X156799010Y-86926589D01*
X156687068Y-87196842D01*
X156630000Y-87483740D01*
X156630000Y-87776260D01*
X156687068Y-88063158D01*
X156799010Y-88333411D01*
X156961525Y-88576632D01*
X157168368Y-88783475D01*
X157350534Y-88905195D01*
X157233645Y-88974822D01*
X157017412Y-89169731D01*
X156843359Y-89403080D01*
X156718175Y-89665901D01*
X156673524Y-89813110D01*
X156794845Y-90043000D01*
X157988000Y-90043000D01*
X157988000Y-90023000D01*
X158242000Y-90023000D01*
X158242000Y-90043000D01*
X158262000Y-90043000D01*
X158262000Y-90297000D01*
X158242000Y-90297000D01*
X158242000Y-91490814D01*
X158471891Y-91611481D01*
X158580002Y-91573131D01*
X158580002Y-96301928D01*
X157265000Y-96301928D01*
X157140518Y-96314188D01*
X157020820Y-96350498D01*
X156910506Y-96409463D01*
X156813815Y-96488815D01*
X156734463Y-96585506D01*
X156675498Y-96695820D01*
X156639188Y-96815518D01*
X156626928Y-96940000D01*
X156626928Y-98640000D01*
X156639188Y-98764482D01*
X156675498Y-98884180D01*
X156734463Y-98994494D01*
X156813815Y-99091185D01*
X156910506Y-99170537D01*
X157020820Y-99229502D01*
X157101466Y-99253966D01*
X157017412Y-99329731D01*
X156843359Y-99563080D01*
X156718175Y-99825901D01*
X156673524Y-99973110D01*
X156794845Y-100203000D01*
X157988000Y-100203000D01*
X157988000Y-100183000D01*
X158242000Y-100183000D01*
X158242000Y-100203000D01*
X158262000Y-100203000D01*
X158262000Y-100457000D01*
X158242000Y-100457000D01*
X158242000Y-101650814D01*
X158471891Y-101771481D01*
X158580002Y-101733131D01*
X158580002Y-102704866D01*
X158244868Y-103040000D01*
X157944117Y-103040000D01*
X157608919Y-103106675D01*
X157293169Y-103237463D01*
X157009002Y-103427337D01*
X156767337Y-103669002D01*
X156577463Y-103953169D01*
X156446675Y-104268919D01*
X156380000Y-104604117D01*
X156380000Y-104945883D01*
X156446675Y-105281081D01*
X156577463Y-105596831D01*
X156767337Y-105880998D01*
X157009002Y-106122663D01*
X157293169Y-106312537D01*
X157608919Y-106443325D01*
X157944117Y-106510000D01*
X158285883Y-106510000D01*
X158621081Y-106443325D01*
X158936831Y-106312537D01*
X159220998Y-106122663D01*
X159462663Y-105880998D01*
X159652537Y-105596831D01*
X159783325Y-105281081D01*
X159850000Y-104945883D01*
X159850000Y-104645132D01*
X160478141Y-104016990D01*
X160521450Y-103981448D01*
X160663285Y-103808622D01*
X160768677Y-103611446D01*
X160833578Y-103397498D01*
X160840680Y-103325395D01*
X160855492Y-103175000D01*
X160850001Y-103119248D01*
X160850001Y-78028762D01*
X161109848Y-77949939D01*
X161437317Y-77774903D01*
X161724345Y-77539345D01*
X161959903Y-77252317D01*
X162134939Y-76924848D01*
X162242725Y-76569524D01*
X162279120Y-76200000D01*
X162242725Y-75830476D01*
X162134939Y-75475152D01*
X161959903Y-75147683D01*
X161724345Y-74860655D01*
X161437317Y-74625097D01*
X161109848Y-74450061D01*
X160754524Y-74342275D01*
X160477597Y-74315000D01*
X158292403Y-74315000D01*
X158015476Y-74342275D01*
X157660152Y-74450061D01*
X157332683Y-74625097D01*
X157045655Y-74860655D01*
X156810097Y-75147683D01*
X156734999Y-75288181D01*
X156734999Y-70580434D01*
X156794876Y-70580434D01*
X156825856Y-70708355D01*
X156954990Y-71002761D01*
X157139078Y-71266317D01*
X157371046Y-71488895D01*
X157641980Y-71661942D01*
X157941468Y-71778807D01*
X158258000Y-71835000D01*
X159258000Y-71835000D01*
X159258000Y-70327000D01*
X159512000Y-70327000D01*
X159512000Y-71835000D01*
X160512000Y-71835000D01*
X160828532Y-71778807D01*
X161128020Y-71661942D01*
X161398954Y-71488895D01*
X161630922Y-71266317D01*
X161815010Y-71002761D01*
X161944144Y-70708355D01*
X161975124Y-70580434D01*
X161855777Y-70327000D01*
X159512000Y-70327000D01*
X159258000Y-70327000D01*
X156914223Y-70327000D01*
X156794876Y-70580434D01*
X156734999Y-70580434D01*
X156734999Y-69819566D01*
X156794876Y-69819566D01*
X156914223Y-70073000D01*
X159258000Y-70073000D01*
X159258000Y-68565000D01*
X159512000Y-68565000D01*
X159512000Y-70073000D01*
X161855777Y-70073000D01*
X161975124Y-69819566D01*
X161944144Y-69691645D01*
X161815010Y-69397239D01*
X161630922Y-69133683D01*
X161398954Y-68911105D01*
X161128020Y-68738058D01*
X160828532Y-68621193D01*
X160512000Y-68565000D01*
X159512000Y-68565000D01*
X159258000Y-68565000D01*
X158258000Y-68565000D01*
X157941468Y-68621193D01*
X157641980Y-68738058D01*
X157371046Y-68911105D01*
X157139078Y-69133683D01*
X156954990Y-69397239D01*
X156825856Y-69691645D01*
X156794876Y-69819566D01*
X156734999Y-69819566D01*
X156734999Y-67747321D01*
X156738675Y-67709998D01*
X156734999Y-67672676D01*
X156734999Y-67672666D01*
X156724002Y-67561013D01*
X156680545Y-67417752D01*
X156610000Y-67285774D01*
X156610000Y-67208061D01*
X156586491Y-67089872D01*
X166675000Y-67089872D01*
X166675000Y-67530128D01*
X166760890Y-67961925D01*
X166929369Y-68368669D01*
X167173962Y-68734729D01*
X167485271Y-69046038D01*
X167851331Y-69290631D01*
X168258075Y-69459110D01*
X168689872Y-69545000D01*
X169130128Y-69545000D01*
X169561925Y-69459110D01*
X169968669Y-69290631D01*
X170334729Y-69046038D01*
X170646038Y-68734729D01*
X170890631Y-68368669D01*
X171059110Y-67961925D01*
X171145000Y-67530128D01*
X171145000Y-67089872D01*
X171059110Y-66658075D01*
X170890631Y-66251331D01*
X170646038Y-65885271D01*
X170334729Y-65573962D01*
X169968669Y-65329369D01*
X169561925Y-65160890D01*
X169130128Y-65075000D01*
X168689872Y-65075000D01*
X168258075Y-65160890D01*
X167851331Y-65329369D01*
X167485271Y-65573962D01*
X167173962Y-65885271D01*
X166929369Y-66251331D01*
X166760890Y-66658075D01*
X166675000Y-67089872D01*
X156586491Y-67089872D01*
X156570226Y-67008102D01*
X156492205Y-66819744D01*
X156378937Y-66650226D01*
X156234774Y-66506063D01*
X156065256Y-66392795D01*
X155876898Y-66314774D01*
X155676939Y-66275000D01*
X155473061Y-66275000D01*
X155273102Y-66314774D01*
X155084744Y-66392795D01*
X154915226Y-66506063D01*
X154771063Y-66650226D01*
X154657795Y-66819744D01*
X154579774Y-67008102D01*
X154540000Y-67208061D01*
X154540000Y-67411939D01*
X154579774Y-67611898D01*
X154657795Y-67800256D01*
X154771063Y-67969774D01*
X154915226Y-68113937D01*
X155084744Y-68227205D01*
X155214999Y-68281159D01*
X155214999Y-70786286D01*
X155113715Y-70732148D01*
X154805516Y-70638657D01*
X154485000Y-70607089D01*
X154164485Y-70638657D01*
X153856286Y-70732148D01*
X153572249Y-70883969D01*
X153323287Y-71088286D01*
X153160000Y-71287253D01*
X153160000Y-70158876D01*
X153203937Y-70114939D01*
X153317205Y-69945421D01*
X153395226Y-69757063D01*
X153435000Y-69557104D01*
X153435000Y-69353226D01*
X153395226Y-69153267D01*
X153317205Y-68964909D01*
X153203937Y-68795391D01*
X153059774Y-68651228D01*
X152890256Y-68537960D01*
X152701898Y-68459939D01*
X152501939Y-68420165D01*
X152298061Y-68420165D01*
X152098102Y-68459939D01*
X151909744Y-68537960D01*
X151836457Y-68586929D01*
X151922932Y-68378158D01*
X151980000Y-68091260D01*
X151980000Y-67798740D01*
X151922932Y-67511842D01*
X151810990Y-67241589D01*
X151648475Y-66998368D01*
X151441632Y-66791525D01*
X151267240Y-66675000D01*
X151441632Y-66558475D01*
X151648475Y-66351632D01*
X151810990Y-66108411D01*
X151922932Y-65838158D01*
X151980000Y-65551260D01*
X151980000Y-65258740D01*
X151922932Y-64971842D01*
X151810990Y-64701589D01*
X151648475Y-64458368D01*
X151441632Y-64251525D01*
X151304655Y-64160000D01*
X168877721Y-64160000D01*
X169521222Y-64223096D01*
X170109164Y-64400606D01*
X170651436Y-64688937D01*
X171127364Y-65077094D01*
X171518845Y-65550314D01*
X171810951Y-66090552D01*
X171992563Y-66677244D01*
X172060000Y-67318879D01*
X172060001Y-131412711D01*
X171996904Y-132056221D01*
X171819394Y-132644164D01*
X171531063Y-133186436D01*
X171142906Y-133662364D01*
X170669686Y-134053845D01*
X170129449Y-134345950D01*
X169542756Y-134527563D01*
X168901130Y-134595000D01*
X150238139Y-134595000D01*
X150333840Y-134543847D01*
X150487633Y-134417633D01*
X150613847Y-134263840D01*
X150707632Y-134088380D01*
X150765385Y-133897994D01*
X150784886Y-133700000D01*
X150765385Y-133502006D01*
X150707632Y-133311620D01*
X150613847Y-133136160D01*
X150487633Y-132982367D01*
X150333840Y-132856153D01*
X150158380Y-132762368D01*
X149967994Y-132704615D01*
X149819608Y-132690000D01*
X148470392Y-132690000D01*
X148322006Y-132704615D01*
X148131620Y-132762368D01*
X147956160Y-132856153D01*
X147802367Y-132982367D01*
X147676153Y-133136160D01*
X147582368Y-133311620D01*
X147524615Y-133502006D01*
X147505114Y-133700000D01*
X147524615Y-133897994D01*
X147582368Y-134088380D01*
X147676153Y-134263840D01*
X147802367Y-134417633D01*
X147956160Y-134543847D01*
X148051861Y-134595000D01*
X140238139Y-134595000D01*
X140333840Y-134543847D01*
X140487633Y-134417633D01*
X140613847Y-134263840D01*
X140707632Y-134088380D01*
X140765385Y-133897994D01*
X140784886Y-133700000D01*
X140765385Y-133502006D01*
X140707632Y-133311620D01*
X140613847Y-133136160D01*
X140487633Y-132982367D01*
X140333840Y-132856153D01*
X140158380Y-132762368D01*
X139967994Y-132704615D01*
X139819608Y-132690000D01*
X138470392Y-132690000D01*
X138322006Y-132704615D01*
X138131620Y-132762368D01*
X137956160Y-132856153D01*
X137802367Y-132982367D01*
X137676153Y-133136160D01*
X137582368Y-133311620D01*
X137524615Y-133502006D01*
X137505114Y-133700000D01*
X137524615Y-133897994D01*
X137582368Y-134088380D01*
X137676153Y-134263840D01*
X137802367Y-134417633D01*
X137956160Y-134543847D01*
X138051861Y-134595000D01*
X121317279Y-134595000D01*
X120673779Y-134531904D01*
X120085836Y-134354394D01*
X119543564Y-134066063D01*
X119067636Y-133677906D01*
X118676155Y-133204686D01*
X118384050Y-132664449D01*
X118202437Y-132077756D01*
X118135000Y-131436130D01*
X118135000Y-131224872D01*
X119050000Y-131224872D01*
X119050000Y-131665128D01*
X119135890Y-132096925D01*
X119304369Y-132503669D01*
X119548962Y-132869729D01*
X119860271Y-133181038D01*
X120226331Y-133425631D01*
X120633075Y-133594110D01*
X121064872Y-133680000D01*
X121505128Y-133680000D01*
X121936925Y-133594110D01*
X122343669Y-133425631D01*
X122709729Y-133181038D01*
X123021038Y-132869729D01*
X123265631Y-132503669D01*
X123434110Y-132096925D01*
X123520000Y-131665128D01*
X123520000Y-131224872D01*
X166675000Y-131224872D01*
X166675000Y-131665128D01*
X166760890Y-132096925D01*
X166929369Y-132503669D01*
X167173962Y-132869729D01*
X167485271Y-133181038D01*
X167851331Y-133425631D01*
X168258075Y-133594110D01*
X168689872Y-133680000D01*
X169130128Y-133680000D01*
X169561925Y-133594110D01*
X169968669Y-133425631D01*
X170334729Y-133181038D01*
X170646038Y-132869729D01*
X170890631Y-132503669D01*
X171059110Y-132096925D01*
X171145000Y-131665128D01*
X171145000Y-131224872D01*
X171059110Y-130793075D01*
X170890631Y-130386331D01*
X170646038Y-130020271D01*
X170334729Y-129708962D01*
X169968669Y-129464369D01*
X169561925Y-129295890D01*
X169130128Y-129210000D01*
X168689872Y-129210000D01*
X168258075Y-129295890D01*
X167851331Y-129464369D01*
X167485271Y-129708962D01*
X167173962Y-130020271D01*
X166929369Y-130386331D01*
X166760890Y-130793075D01*
X166675000Y-131224872D01*
X123520000Y-131224872D01*
X123434110Y-130793075D01*
X123265631Y-130386331D01*
X123021038Y-130020271D01*
X122709729Y-129708962D01*
X122343669Y-129464369D01*
X121936925Y-129295890D01*
X121505128Y-129210000D01*
X121064872Y-129210000D01*
X120633075Y-129295890D01*
X120226331Y-129464369D01*
X119860271Y-129708962D01*
X119548962Y-130020271D01*
X119304369Y-130386331D01*
X119135890Y-130793075D01*
X119050000Y-131224872D01*
X118135000Y-131224872D01*
X118135000Y-115919039D01*
X119258096Y-115919039D01*
X119298754Y-116053087D01*
X119418963Y-116307420D01*
X119586481Y-116533414D01*
X119794869Y-116722385D01*
X120036119Y-116867070D01*
X120300960Y-116961909D01*
X120523000Y-116840624D01*
X120523000Y-115697000D01*
X120777000Y-115697000D01*
X120777000Y-116840624D01*
X120999040Y-116961909D01*
X121263881Y-116867070D01*
X121505131Y-116722385D01*
X121713519Y-116533414D01*
X121881037Y-116307420D01*
X122001246Y-116053087D01*
X122041904Y-115919039D01*
X126878096Y-115919039D01*
X126918754Y-116053087D01*
X127038963Y-116307420D01*
X127206481Y-116533414D01*
X127414869Y-116722385D01*
X127656119Y-116867070D01*
X127920960Y-116961909D01*
X128143000Y-116840624D01*
X128143000Y-115697000D01*
X128397000Y-115697000D01*
X128397000Y-116840624D01*
X128619040Y-116961909D01*
X128883881Y-116867070D01*
X129125131Y-116722385D01*
X129333519Y-116533414D01*
X129501037Y-116307420D01*
X129621246Y-116053087D01*
X129661904Y-115919039D01*
X129539915Y-115697000D01*
X128397000Y-115697000D01*
X128143000Y-115697000D01*
X127000085Y-115697000D01*
X126878096Y-115919039D01*
X122041904Y-115919039D01*
X121919915Y-115697000D01*
X120777000Y-115697000D01*
X120523000Y-115697000D01*
X119380085Y-115697000D01*
X119258096Y-115919039D01*
X118135000Y-115919039D01*
X118135000Y-113379039D01*
X119258096Y-113379039D01*
X119298754Y-113513087D01*
X119418963Y-113767420D01*
X119586481Y-113993414D01*
X119794869Y-114182385D01*
X119990982Y-114300000D01*
X119794869Y-114417615D01*
X119586481Y-114606586D01*
X119418963Y-114832580D01*
X119298754Y-115086913D01*
X119258096Y-115220961D01*
X119380085Y-115443000D01*
X120523000Y-115443000D01*
X120523000Y-113157000D01*
X120777000Y-113157000D01*
X120777000Y-115443000D01*
X121919915Y-115443000D01*
X122041904Y-115220961D01*
X122001246Y-115086913D01*
X121881037Y-114832580D01*
X121713519Y-114606586D01*
X121505131Y-114417615D01*
X121309018Y-114300000D01*
X121505131Y-114182385D01*
X121713519Y-113993414D01*
X121881037Y-113767420D01*
X122001246Y-113513087D01*
X122041904Y-113379039D01*
X121919915Y-113157000D01*
X120777000Y-113157000D01*
X120523000Y-113157000D01*
X119380085Y-113157000D01*
X119258096Y-113379039D01*
X118135000Y-113379039D01*
X118135000Y-110839039D01*
X119258096Y-110839039D01*
X119298754Y-110973087D01*
X119418963Y-111227420D01*
X119586481Y-111453414D01*
X119794869Y-111642385D01*
X119990982Y-111760000D01*
X119794869Y-111877615D01*
X119586481Y-112066586D01*
X119418963Y-112292580D01*
X119298754Y-112546913D01*
X119258096Y-112680961D01*
X119380085Y-112903000D01*
X120523000Y-112903000D01*
X120523000Y-110617000D01*
X120777000Y-110617000D01*
X120777000Y-112903000D01*
X121919915Y-112903000D01*
X122041904Y-112680961D01*
X122001246Y-112546913D01*
X121881037Y-112292580D01*
X121713519Y-112066586D01*
X121505131Y-111877615D01*
X121309018Y-111760000D01*
X121505131Y-111642385D01*
X121713519Y-111453414D01*
X121881037Y-111227420D01*
X122001246Y-110973087D01*
X122041904Y-110839039D01*
X121919915Y-110617000D01*
X120777000Y-110617000D01*
X120523000Y-110617000D01*
X119380085Y-110617000D01*
X119258096Y-110839039D01*
X118135000Y-110839039D01*
X118135000Y-99409039D01*
X119258096Y-99409039D01*
X119298754Y-99543087D01*
X119418963Y-99797420D01*
X119586481Y-100023414D01*
X119794869Y-100212385D01*
X120036119Y-100357070D01*
X120300960Y-100451909D01*
X120523000Y-100330624D01*
X120523000Y-99187000D01*
X119380085Y-99187000D01*
X119258096Y-99409039D01*
X118135000Y-99409039D01*
X118135000Y-77000000D01*
X119211928Y-77000000D01*
X119224188Y-77124482D01*
X119260498Y-77244180D01*
X119319463Y-77354494D01*
X119398815Y-77451185D01*
X119495506Y-77530537D01*
X119605820Y-77589502D01*
X119725518Y-77625812D01*
X119733961Y-77626643D01*
X119535363Y-77825241D01*
X119378320Y-78060273D01*
X119270147Y-78321426D01*
X119215000Y-78598665D01*
X119215000Y-78881335D01*
X119270147Y-79158574D01*
X119378320Y-79419727D01*
X119535363Y-79654759D01*
X119735241Y-79854637D01*
X119967759Y-80010000D01*
X119735241Y-80165363D01*
X119535363Y-80365241D01*
X119378320Y-80600273D01*
X119270147Y-80861426D01*
X119215000Y-81138665D01*
X119215000Y-81421335D01*
X119270147Y-81698574D01*
X119378320Y-81959727D01*
X119535363Y-82194759D01*
X119735241Y-82394637D01*
X119967759Y-82550000D01*
X119735241Y-82705363D01*
X119535363Y-82905241D01*
X119378320Y-83140273D01*
X119270147Y-83401426D01*
X119215000Y-83678665D01*
X119215000Y-83961335D01*
X119270147Y-84238574D01*
X119378320Y-84499727D01*
X119535363Y-84734759D01*
X119735241Y-84934637D01*
X119967759Y-85090000D01*
X119735241Y-85245363D01*
X119535363Y-85445241D01*
X119378320Y-85680273D01*
X119270147Y-85941426D01*
X119215000Y-86218665D01*
X119215000Y-86501335D01*
X119270147Y-86778574D01*
X119378320Y-87039727D01*
X119535363Y-87274759D01*
X119735241Y-87474637D01*
X119967759Y-87630000D01*
X119735241Y-87785363D01*
X119535363Y-87985241D01*
X119378320Y-88220273D01*
X119270147Y-88481426D01*
X119215000Y-88758665D01*
X119215000Y-89041335D01*
X119270147Y-89318574D01*
X119378320Y-89579727D01*
X119535363Y-89814759D01*
X119735241Y-90014637D01*
X119967759Y-90170000D01*
X119735241Y-90325363D01*
X119535363Y-90525241D01*
X119378320Y-90760273D01*
X119270147Y-91021426D01*
X119215000Y-91298665D01*
X119215000Y-91581335D01*
X119270147Y-91858574D01*
X119378320Y-92119727D01*
X119535363Y-92354759D01*
X119735241Y-92554637D01*
X119967759Y-92710000D01*
X119735241Y-92865363D01*
X119535363Y-93065241D01*
X119378320Y-93300273D01*
X119270147Y-93561426D01*
X119215000Y-93838665D01*
X119215000Y-94121335D01*
X119270147Y-94398574D01*
X119378320Y-94659727D01*
X119535363Y-94894759D01*
X119735241Y-95094637D01*
X119967759Y-95250000D01*
X119735241Y-95405363D01*
X119535363Y-95605241D01*
X119378320Y-95840273D01*
X119270147Y-96101426D01*
X119215000Y-96378665D01*
X119215000Y-96661335D01*
X119270147Y-96938574D01*
X119378320Y-97199727D01*
X119535363Y-97434759D01*
X119735241Y-97634637D01*
X119970273Y-97791680D01*
X119980865Y-97796067D01*
X119794869Y-97907615D01*
X119586481Y-98096586D01*
X119418963Y-98322580D01*
X119298754Y-98576913D01*
X119258096Y-98710961D01*
X119380085Y-98933000D01*
X120523000Y-98933000D01*
X120523000Y-98913000D01*
X120777000Y-98913000D01*
X120777000Y-98933000D01*
X120797000Y-98933000D01*
X120797000Y-99187000D01*
X120777000Y-99187000D01*
X120777000Y-100330624D01*
X120999040Y-100451909D01*
X121015001Y-100446193D01*
X121015001Y-106510197D01*
X121013270Y-106511928D01*
X119850000Y-106511928D01*
X119725518Y-106524188D01*
X119605820Y-106560498D01*
X119495506Y-106619463D01*
X119398815Y-106698815D01*
X119319463Y-106795506D01*
X119260498Y-106905820D01*
X119224188Y-107025518D01*
X119211928Y-107150000D01*
X119211928Y-108750000D01*
X119224188Y-108874482D01*
X119260498Y-108994180D01*
X119319463Y-109104494D01*
X119398815Y-109201185D01*
X119495506Y-109280537D01*
X119605820Y-109339502D01*
X119725518Y-109375812D01*
X119750080Y-109378231D01*
X119586481Y-109526586D01*
X119418963Y-109752580D01*
X119298754Y-110006913D01*
X119258096Y-110140961D01*
X119380085Y-110363000D01*
X120523000Y-110363000D01*
X120523000Y-110343000D01*
X120777000Y-110343000D01*
X120777000Y-110363000D01*
X121919915Y-110363000D01*
X122041904Y-110140961D01*
X122001246Y-110006913D01*
X121881037Y-109752580D01*
X121713519Y-109526586D01*
X121549920Y-109378231D01*
X121574482Y-109375812D01*
X121694180Y-109339502D01*
X121804494Y-109280537D01*
X121901185Y-109201185D01*
X121980537Y-109104494D01*
X122039502Y-108994180D01*
X122075812Y-108874482D01*
X122088072Y-108750000D01*
X122088072Y-107586730D01*
X122286005Y-107388797D01*
X122315002Y-107365000D01*
X122409975Y-107249275D01*
X122480547Y-107117246D01*
X122524004Y-106973985D01*
X122535001Y-106862332D01*
X122535001Y-106862324D01*
X122538677Y-106824999D01*
X122535001Y-106787674D01*
X122535001Y-104744754D01*
X122783996Y-104862571D01*
X123058184Y-104931300D01*
X123340512Y-104945217D01*
X123620130Y-104903787D01*
X123886292Y-104808603D01*
X124011514Y-104741671D01*
X124083097Y-104497702D01*
X123270000Y-103684605D01*
X123255858Y-103698748D01*
X123076253Y-103519143D01*
X123090395Y-103505000D01*
X123449605Y-103505000D01*
X124262702Y-104318097D01*
X124506671Y-104246514D01*
X124627571Y-103991004D01*
X124696300Y-103716816D01*
X124710217Y-103434488D01*
X124668787Y-103154870D01*
X124573603Y-102888708D01*
X124506671Y-102763486D01*
X124262702Y-102691903D01*
X123449605Y-103505000D01*
X123090395Y-103505000D01*
X123076253Y-103490858D01*
X123255858Y-103311253D01*
X123270000Y-103325395D01*
X124083097Y-102512298D01*
X124011514Y-102268329D01*
X123756004Y-102147429D01*
X123481816Y-102078700D01*
X123199488Y-102064783D01*
X122919870Y-102106213D01*
X122653708Y-102201397D01*
X122535001Y-102264847D01*
X122535001Y-99409039D01*
X126878096Y-99409039D01*
X126918754Y-99543087D01*
X127038963Y-99797420D01*
X127206481Y-100023414D01*
X127414869Y-100212385D01*
X127656119Y-100357070D01*
X127920960Y-100451909D01*
X128143000Y-100330624D01*
X128143000Y-99187000D01*
X128397000Y-99187000D01*
X128397000Y-100330624D01*
X128619040Y-100451909D01*
X128883881Y-100357070D01*
X129125131Y-100212385D01*
X129333519Y-100023414D01*
X129501037Y-99797420D01*
X129621246Y-99543087D01*
X129661904Y-99409039D01*
X129539915Y-99187000D01*
X128397000Y-99187000D01*
X128143000Y-99187000D01*
X127000085Y-99187000D01*
X126878096Y-99409039D01*
X122535001Y-99409039D01*
X122535001Y-96869039D01*
X126878096Y-96869039D01*
X126918754Y-97003087D01*
X127038963Y-97257420D01*
X127206481Y-97483414D01*
X127414869Y-97672385D01*
X127610982Y-97790000D01*
X127414869Y-97907615D01*
X127206481Y-98096586D01*
X127038963Y-98322580D01*
X126918754Y-98576913D01*
X126878096Y-98710961D01*
X127000085Y-98933000D01*
X128143000Y-98933000D01*
X128143000Y-96647000D01*
X128397000Y-96647000D01*
X128397000Y-98933000D01*
X129539915Y-98933000D01*
X129661904Y-98710961D01*
X129621246Y-98576913D01*
X129501037Y-98322580D01*
X129333519Y-98096586D01*
X129125131Y-97907615D01*
X128929018Y-97790000D01*
X129125131Y-97672385D01*
X129333519Y-97483414D01*
X129501037Y-97257420D01*
X129621246Y-97003087D01*
X129661904Y-96869039D01*
X129539915Y-96647000D01*
X128397000Y-96647000D01*
X128143000Y-96647000D01*
X127000085Y-96647000D01*
X126878096Y-96869039D01*
X122535001Y-96869039D01*
X122535001Y-94329039D01*
X126878096Y-94329039D01*
X126918754Y-94463087D01*
X127038963Y-94717420D01*
X127206481Y-94943414D01*
X127414869Y-95132385D01*
X127610982Y-95250000D01*
X127414869Y-95367615D01*
X127206481Y-95556586D01*
X127038963Y-95782580D01*
X126918754Y-96036913D01*
X126878096Y-96170961D01*
X127000085Y-96393000D01*
X128143000Y-96393000D01*
X128143000Y-94107000D01*
X128397000Y-94107000D01*
X128397000Y-96393000D01*
X129539915Y-96393000D01*
X129661904Y-96170961D01*
X129621246Y-96036913D01*
X129501037Y-95782580D01*
X129333519Y-95556586D01*
X129125131Y-95367615D01*
X128929018Y-95250000D01*
X129125131Y-95132385D01*
X129333519Y-94943414D01*
X129501037Y-94717420D01*
X129621246Y-94463087D01*
X129661904Y-94329039D01*
X129539915Y-94107000D01*
X128397000Y-94107000D01*
X128143000Y-94107000D01*
X127000085Y-94107000D01*
X126878096Y-94329039D01*
X122535001Y-94329039D01*
X122535001Y-91789039D01*
X126878096Y-91789039D01*
X126918754Y-91923087D01*
X127038963Y-92177420D01*
X127206481Y-92403414D01*
X127414869Y-92592385D01*
X127610982Y-92710000D01*
X127414869Y-92827615D01*
X127206481Y-93016586D01*
X127038963Y-93242580D01*
X126918754Y-93496913D01*
X126878096Y-93630961D01*
X127000085Y-93853000D01*
X128143000Y-93853000D01*
X128143000Y-91567000D01*
X128397000Y-91567000D01*
X128397000Y-93853000D01*
X129539915Y-93853000D01*
X129661904Y-93630961D01*
X129621246Y-93496913D01*
X129501037Y-93242580D01*
X129333519Y-93016586D01*
X129125131Y-92827615D01*
X128929018Y-92710000D01*
X129125131Y-92592385D01*
X129333519Y-92403414D01*
X129501037Y-92177420D01*
X129621246Y-91923087D01*
X129661904Y-91789039D01*
X129539915Y-91567000D01*
X128397000Y-91567000D01*
X128143000Y-91567000D01*
X127000085Y-91567000D01*
X126878096Y-91789039D01*
X122535001Y-91789039D01*
X122535001Y-89249039D01*
X126878096Y-89249039D01*
X126918754Y-89383087D01*
X127038963Y-89637420D01*
X127206481Y-89863414D01*
X127414869Y-90052385D01*
X127610982Y-90170000D01*
X127414869Y-90287615D01*
X127206481Y-90476586D01*
X127038963Y-90702580D01*
X126918754Y-90956913D01*
X126878096Y-91090961D01*
X127000085Y-91313000D01*
X128143000Y-91313000D01*
X128143000Y-89027000D01*
X128397000Y-89027000D01*
X128397000Y-91313000D01*
X129539915Y-91313000D01*
X129661904Y-91090961D01*
X129621246Y-90956913D01*
X129501037Y-90702580D01*
X129333519Y-90476586D01*
X129125131Y-90287615D01*
X128929018Y-90170000D01*
X129125131Y-90052385D01*
X129333519Y-89863414D01*
X129501037Y-89637420D01*
X129621246Y-89383087D01*
X129661904Y-89249039D01*
X129539915Y-89027000D01*
X128397000Y-89027000D01*
X128143000Y-89027000D01*
X127000085Y-89027000D01*
X126878096Y-89249039D01*
X122535001Y-89249039D01*
X122535001Y-86709039D01*
X126878096Y-86709039D01*
X126918754Y-86843087D01*
X127038963Y-87097420D01*
X127206481Y-87323414D01*
X127414869Y-87512385D01*
X127610982Y-87630000D01*
X127414869Y-87747615D01*
X127206481Y-87936586D01*
X127038963Y-88162580D01*
X126918754Y-88416913D01*
X126878096Y-88550961D01*
X127000085Y-88773000D01*
X128143000Y-88773000D01*
X128143000Y-86487000D01*
X128397000Y-86487000D01*
X128397000Y-88773000D01*
X129539915Y-88773000D01*
X129661904Y-88550961D01*
X129621246Y-88416913D01*
X129501037Y-88162580D01*
X129333519Y-87936586D01*
X129125131Y-87747615D01*
X128929018Y-87630000D01*
X129125131Y-87512385D01*
X129333519Y-87323414D01*
X129501037Y-87097420D01*
X129621246Y-86843087D01*
X129661904Y-86709039D01*
X129539915Y-86487000D01*
X128397000Y-86487000D01*
X128143000Y-86487000D01*
X127000085Y-86487000D01*
X126878096Y-86709039D01*
X122535001Y-86709039D01*
X122535001Y-84169039D01*
X126878096Y-84169039D01*
X126918754Y-84303087D01*
X127038963Y-84557420D01*
X127206481Y-84783414D01*
X127414869Y-84972385D01*
X127610982Y-85090000D01*
X127414869Y-85207615D01*
X127206481Y-85396586D01*
X127038963Y-85622580D01*
X126918754Y-85876913D01*
X126878096Y-86010961D01*
X127000085Y-86233000D01*
X128143000Y-86233000D01*
X128143000Y-83947000D01*
X128397000Y-83947000D01*
X128397000Y-86233000D01*
X129539915Y-86233000D01*
X129661904Y-86010961D01*
X129621246Y-85876913D01*
X129501037Y-85622580D01*
X129333519Y-85396586D01*
X129125131Y-85207615D01*
X128929018Y-85090000D01*
X129125131Y-84972385D01*
X129333519Y-84783414D01*
X129501037Y-84557420D01*
X129621246Y-84303087D01*
X129661904Y-84169039D01*
X129588263Y-84035000D01*
X131226928Y-84035000D01*
X131239188Y-84159482D01*
X131275498Y-84279180D01*
X131334463Y-84389494D01*
X131413815Y-84486185D01*
X131510506Y-84565537D01*
X131620820Y-84624502D01*
X131693380Y-84646513D01*
X131561525Y-84778368D01*
X131399010Y-85021589D01*
X131287068Y-85291842D01*
X131230000Y-85578740D01*
X131230000Y-85871260D01*
X131287068Y-86158158D01*
X131399010Y-86428411D01*
X131561525Y-86671632D01*
X131768368Y-86878475D01*
X131942760Y-86995000D01*
X131768368Y-87111525D01*
X131561525Y-87318368D01*
X131399010Y-87561589D01*
X131287068Y-87831842D01*
X131230000Y-88118740D01*
X131230000Y-88411260D01*
X131287068Y-88698158D01*
X131399010Y-88968411D01*
X131561525Y-89211632D01*
X131768368Y-89418475D01*
X131942760Y-89535000D01*
X131768368Y-89651525D01*
X131561525Y-89858368D01*
X131399010Y-90101589D01*
X131287068Y-90371842D01*
X131230000Y-90658740D01*
X131230000Y-90951260D01*
X131287068Y-91238158D01*
X131399010Y-91508411D01*
X131561525Y-91751632D01*
X131768368Y-91958475D01*
X131942760Y-92075000D01*
X131768368Y-92191525D01*
X131561525Y-92398368D01*
X131399010Y-92641589D01*
X131287068Y-92911842D01*
X131230000Y-93198740D01*
X131230000Y-93491260D01*
X131287068Y-93778158D01*
X131399010Y-94048411D01*
X131561525Y-94291632D01*
X131693380Y-94423487D01*
X131620820Y-94445498D01*
X131510506Y-94504463D01*
X131413815Y-94583815D01*
X131334463Y-94680506D01*
X131275498Y-94790820D01*
X131239188Y-94910518D01*
X131226928Y-95035000D01*
X131230000Y-95599250D01*
X131388750Y-95758000D01*
X132588000Y-95758000D01*
X132588000Y-95738000D01*
X132842000Y-95738000D01*
X132842000Y-95758000D01*
X134041250Y-95758000D01*
X134200000Y-95599250D01*
X134203072Y-95035000D01*
X134190812Y-94910518D01*
X134154502Y-94790820D01*
X134095537Y-94680506D01*
X134016185Y-94583815D01*
X133919494Y-94504463D01*
X133809180Y-94445498D01*
X133736620Y-94423487D01*
X133868475Y-94291632D01*
X134030990Y-94048411D01*
X134142932Y-93778158D01*
X134200000Y-93491260D01*
X134200000Y-93198740D01*
X134142932Y-92911842D01*
X134030990Y-92641589D01*
X133868475Y-92398368D01*
X133661632Y-92191525D01*
X133487240Y-92075000D01*
X133661632Y-91958475D01*
X133868475Y-91751632D01*
X134030990Y-91508411D01*
X134142932Y-91238158D01*
X134200000Y-90951260D01*
X134200000Y-90658740D01*
X134142932Y-90371842D01*
X134030990Y-90101589D01*
X133868475Y-89858368D01*
X133661632Y-89651525D01*
X133487240Y-89535000D01*
X133661632Y-89418475D01*
X133868475Y-89211632D01*
X134030990Y-88968411D01*
X134142932Y-88698158D01*
X134200000Y-88411260D01*
X134200000Y-88118740D01*
X134142932Y-87831842D01*
X134030990Y-87561589D01*
X133868475Y-87318368D01*
X133661632Y-87111525D01*
X133487240Y-86995000D01*
X133661632Y-86878475D01*
X133868475Y-86671632D01*
X134030990Y-86428411D01*
X134142932Y-86158158D01*
X134200000Y-85871260D01*
X134200000Y-85578740D01*
X134142932Y-85291842D01*
X134030990Y-85021589D01*
X133868475Y-84778368D01*
X133736620Y-84646513D01*
X133809180Y-84624502D01*
X133919494Y-84565537D01*
X134016185Y-84486185D01*
X134095537Y-84389494D01*
X134154502Y-84279180D01*
X134190812Y-84159482D01*
X134203072Y-84035000D01*
X134200000Y-83470750D01*
X134041250Y-83312000D01*
X132842000Y-83312000D01*
X132842000Y-83332000D01*
X132588000Y-83332000D01*
X132588000Y-83312000D01*
X131388750Y-83312000D01*
X131230000Y-83470750D01*
X131226928Y-84035000D01*
X129588263Y-84035000D01*
X129539915Y-83947000D01*
X128397000Y-83947000D01*
X128143000Y-83947000D01*
X127000085Y-83947000D01*
X126878096Y-84169039D01*
X122535001Y-84169039D01*
X122535001Y-83009800D01*
X122594801Y-82950000D01*
X122656939Y-82950000D01*
X122856898Y-82910226D01*
X123045256Y-82832205D01*
X123214774Y-82718937D01*
X123358937Y-82574774D01*
X123472205Y-82405256D01*
X123550226Y-82216898D01*
X123590000Y-82016939D01*
X123590000Y-81813061D01*
X123550226Y-81613102D01*
X123472205Y-81424744D01*
X123358937Y-81255226D01*
X123242376Y-81138665D01*
X126835000Y-81138665D01*
X126835000Y-81421335D01*
X126890147Y-81698574D01*
X126998320Y-81959727D01*
X127155363Y-82194759D01*
X127355241Y-82394637D01*
X127590273Y-82551680D01*
X127600865Y-82556067D01*
X127414869Y-82667615D01*
X127206481Y-82856586D01*
X127038963Y-83082580D01*
X126918754Y-83336913D01*
X126878096Y-83470961D01*
X127000085Y-83693000D01*
X128143000Y-83693000D01*
X128143000Y-83673000D01*
X128397000Y-83673000D01*
X128397000Y-83693000D01*
X129539915Y-83693000D01*
X129661904Y-83470961D01*
X129621246Y-83336913D01*
X129501037Y-83082580D01*
X129333519Y-82856586D01*
X129125131Y-82667615D01*
X128939135Y-82556067D01*
X128949727Y-82551680D01*
X129184759Y-82394637D01*
X129384637Y-82194759D01*
X129541680Y-81959727D01*
X129649853Y-81698574D01*
X129705000Y-81421335D01*
X129705000Y-81138665D01*
X129649853Y-80861426D01*
X129541680Y-80600273D01*
X129384637Y-80365241D01*
X129184759Y-80165363D01*
X128949727Y-80008320D01*
X128939135Y-80003933D01*
X129125131Y-79892385D01*
X129333519Y-79703414D01*
X129501037Y-79477420D01*
X129621246Y-79223087D01*
X129661904Y-79089039D01*
X129539915Y-78867000D01*
X128397000Y-78867000D01*
X128397000Y-78887000D01*
X128143000Y-78887000D01*
X128143000Y-78867000D01*
X127000085Y-78867000D01*
X126878096Y-79089039D01*
X126918754Y-79223087D01*
X127038963Y-79477420D01*
X127206481Y-79703414D01*
X127414869Y-79892385D01*
X127600865Y-80003933D01*
X127590273Y-80008320D01*
X127355241Y-80165363D01*
X127155363Y-80365241D01*
X126998320Y-80600273D01*
X126890147Y-80861426D01*
X126835000Y-81138665D01*
X123242376Y-81138665D01*
X123214774Y-81111063D01*
X123045256Y-80997795D01*
X122856898Y-80919774D01*
X122656939Y-80880000D01*
X122453061Y-80880000D01*
X122253102Y-80919774D01*
X122064744Y-80997795D01*
X122057890Y-81002375D01*
X122029853Y-80861426D01*
X121921680Y-80600273D01*
X121764637Y-80365241D01*
X121564759Y-80165363D01*
X121332241Y-80010000D01*
X121564759Y-79854637D01*
X121764637Y-79654759D01*
X121921680Y-79419727D01*
X122029853Y-79158574D01*
X122085000Y-78881335D01*
X122085000Y-78598665D01*
X122029853Y-78321426D01*
X121921680Y-78060273D01*
X121764637Y-77825241D01*
X121566039Y-77626643D01*
X121574482Y-77625812D01*
X121694180Y-77589502D01*
X121804494Y-77530537D01*
X121901185Y-77451185D01*
X121980537Y-77354494D01*
X122039502Y-77244180D01*
X122075812Y-77124482D01*
X122088072Y-77000000D01*
X122085000Y-76485750D01*
X121926250Y-76327000D01*
X120777000Y-76327000D01*
X120777000Y-76347000D01*
X120523000Y-76347000D01*
X120523000Y-76327000D01*
X119373750Y-76327000D01*
X119215000Y-76485750D01*
X119211928Y-77000000D01*
X118135000Y-77000000D01*
X118135000Y-75400000D01*
X119211928Y-75400000D01*
X119215000Y-75914250D01*
X119373750Y-76073000D01*
X120523000Y-76073000D01*
X120523000Y-74923750D01*
X120777000Y-74923750D01*
X120777000Y-76073000D01*
X121926250Y-76073000D01*
X122085000Y-75914250D01*
X122088072Y-75400000D01*
X122075812Y-75275518D01*
X122039502Y-75155820D01*
X121980537Y-75045506D01*
X121901185Y-74948815D01*
X121804494Y-74869463D01*
X121694180Y-74810498D01*
X121574482Y-74774188D01*
X121450000Y-74761928D01*
X120935750Y-74765000D01*
X120777000Y-74923750D01*
X120523000Y-74923750D01*
X120364250Y-74765000D01*
X119850000Y-74761928D01*
X119725518Y-74774188D01*
X119605820Y-74810498D01*
X119495506Y-74869463D01*
X119398815Y-74948815D01*
X119319463Y-75045506D01*
X119260498Y-75155820D01*
X119224188Y-75275518D01*
X119211928Y-75400000D01*
X118135000Y-75400000D01*
X118135000Y-72248665D01*
X126200000Y-72248665D01*
X126200000Y-72531335D01*
X126255147Y-72808574D01*
X126363320Y-73069727D01*
X126520363Y-73304759D01*
X126720241Y-73504637D01*
X126955273Y-73661680D01*
X127216426Y-73769853D01*
X127460000Y-73818304D01*
X127460001Y-75015365D01*
X127355241Y-75085363D01*
X127155363Y-75285241D01*
X126998320Y-75520273D01*
X126890147Y-75781426D01*
X126835000Y-76058665D01*
X126835000Y-76341335D01*
X126890147Y-76618574D01*
X126998320Y-76879727D01*
X127155363Y-77114759D01*
X127355241Y-77314637D01*
X127590273Y-77471680D01*
X127600865Y-77476067D01*
X127414869Y-77587615D01*
X127206481Y-77776586D01*
X127038963Y-78002580D01*
X126918754Y-78256913D01*
X126878096Y-78390961D01*
X127000085Y-78613000D01*
X128143000Y-78613000D01*
X128143000Y-78593000D01*
X128397000Y-78593000D01*
X128397000Y-78613000D01*
X129539915Y-78613000D01*
X129661904Y-78390961D01*
X129621246Y-78256913D01*
X129501037Y-78002580D01*
X129333519Y-77776586D01*
X129125131Y-77587615D01*
X128939135Y-77476067D01*
X128949727Y-77471680D01*
X129184759Y-77314637D01*
X129384637Y-77114759D01*
X129541680Y-76879727D01*
X129649853Y-76618574D01*
X129705000Y-76341335D01*
X129705000Y-76058665D01*
X129649853Y-75781426D01*
X129541680Y-75520273D01*
X129384637Y-75285241D01*
X129184759Y-75085363D01*
X129080000Y-75015365D01*
X129080000Y-72350209D01*
X129070000Y-72248676D01*
X129070000Y-72248665D01*
X129069998Y-72248654D01*
X129068280Y-72231212D01*
X129063192Y-72214439D01*
X129014853Y-71971426D01*
X128906680Y-71710273D01*
X128749637Y-71475241D01*
X128609396Y-71335000D01*
X131226928Y-71335000D01*
X131239188Y-71459482D01*
X131275498Y-71579180D01*
X131334463Y-71689494D01*
X131413815Y-71786185D01*
X131510506Y-71865537D01*
X131620820Y-71924502D01*
X131693380Y-71946513D01*
X131561525Y-72078368D01*
X131399010Y-72321589D01*
X131287068Y-72591842D01*
X131230000Y-72878740D01*
X131230000Y-73171260D01*
X131287068Y-73458158D01*
X131399010Y-73728411D01*
X131561525Y-73971632D01*
X131768368Y-74178475D01*
X131942760Y-74295000D01*
X131768368Y-74411525D01*
X131561525Y-74618368D01*
X131399010Y-74861589D01*
X131287068Y-75131842D01*
X131230000Y-75418740D01*
X131230000Y-75711260D01*
X131287068Y-75998158D01*
X131399010Y-76268411D01*
X131561525Y-76511632D01*
X131768368Y-76718475D01*
X131942760Y-76835000D01*
X131768368Y-76951525D01*
X131561525Y-77158368D01*
X131399010Y-77401589D01*
X131287068Y-77671842D01*
X131230000Y-77958740D01*
X131230000Y-78251260D01*
X131287068Y-78538158D01*
X131399010Y-78808411D01*
X131561525Y-79051632D01*
X131768368Y-79258475D01*
X131942760Y-79375000D01*
X131768368Y-79491525D01*
X131561525Y-79698368D01*
X131399010Y-79941589D01*
X131287068Y-80211842D01*
X131230000Y-80498740D01*
X131230000Y-80791260D01*
X131287068Y-81078158D01*
X131399010Y-81348411D01*
X131561525Y-81591632D01*
X131693380Y-81723487D01*
X131620820Y-81745498D01*
X131510506Y-81804463D01*
X131413815Y-81883815D01*
X131334463Y-81980506D01*
X131275498Y-82090820D01*
X131239188Y-82210518D01*
X131226928Y-82335000D01*
X131230000Y-82899250D01*
X131388750Y-83058000D01*
X132588000Y-83058000D01*
X132588000Y-83038000D01*
X132842000Y-83038000D01*
X132842000Y-83058000D01*
X134041250Y-83058000D01*
X134200000Y-82899250D01*
X134203072Y-82335000D01*
X134190812Y-82210518D01*
X134154502Y-82090820D01*
X134095537Y-81980506D01*
X134016185Y-81883815D01*
X133919494Y-81804463D01*
X133809180Y-81745498D01*
X133736620Y-81723487D01*
X133868475Y-81591632D01*
X134030990Y-81348411D01*
X134142932Y-81078158D01*
X134200000Y-80791260D01*
X134200000Y-80498740D01*
X134142932Y-80211842D01*
X134030990Y-79941589D01*
X133868475Y-79698368D01*
X133661632Y-79491525D01*
X133487240Y-79375000D01*
X133661632Y-79258475D01*
X133868475Y-79051632D01*
X134030990Y-78808411D01*
X134142932Y-78538158D01*
X134200000Y-78251260D01*
X134200000Y-77958740D01*
X134142932Y-77671842D01*
X134030990Y-77401589D01*
X133868475Y-77158368D01*
X133661632Y-76951525D01*
X133487240Y-76835000D01*
X133661632Y-76718475D01*
X133868475Y-76511632D01*
X134030990Y-76268411D01*
X134142932Y-75998158D01*
X134200000Y-75711260D01*
X134200000Y-75418740D01*
X134142932Y-75131842D01*
X134030990Y-74861589D01*
X133868475Y-74618368D01*
X133661632Y-74411525D01*
X133487240Y-74295000D01*
X133661632Y-74178475D01*
X133868475Y-73971632D01*
X134030990Y-73728411D01*
X134142932Y-73458158D01*
X134200000Y-73171260D01*
X134200000Y-72878740D01*
X134142932Y-72591842D01*
X134030990Y-72321589D01*
X133868475Y-72078368D01*
X133736620Y-71946513D01*
X133809180Y-71924502D01*
X133919494Y-71865537D01*
X134016185Y-71786185D01*
X134095537Y-71689494D01*
X134154502Y-71579180D01*
X134190812Y-71459482D01*
X134203072Y-71335000D01*
X134200000Y-70770750D01*
X134041250Y-70612000D01*
X132842000Y-70612000D01*
X132842000Y-70632000D01*
X132588000Y-70632000D01*
X132588000Y-70612000D01*
X131388750Y-70612000D01*
X131230000Y-70770750D01*
X131226928Y-71335000D01*
X128609396Y-71335000D01*
X128549759Y-71275363D01*
X128314727Y-71118320D01*
X128053574Y-71010147D01*
X127776335Y-70955000D01*
X127493665Y-70955000D01*
X127216426Y-71010147D01*
X126955273Y-71118320D01*
X126720241Y-71275363D01*
X126520363Y-71475241D01*
X126363320Y-71710273D01*
X126255147Y-71971426D01*
X126200000Y-72248665D01*
X118135000Y-72248665D01*
X118135000Y-67342279D01*
X118159748Y-67089872D01*
X119050000Y-67089872D01*
X119050000Y-67530128D01*
X119135890Y-67961925D01*
X119304369Y-68368669D01*
X119548962Y-68734729D01*
X119860271Y-69046038D01*
X120226331Y-69290631D01*
X120633075Y-69459110D01*
X121064872Y-69545000D01*
X121505128Y-69545000D01*
X121936925Y-69459110D01*
X122343669Y-69290631D01*
X122709729Y-69046038D01*
X123021038Y-68734729D01*
X123256254Y-68382702D01*
X126821903Y-68382702D01*
X126893486Y-68626671D01*
X127148996Y-68747571D01*
X127423184Y-68816300D01*
X127705512Y-68830217D01*
X127985130Y-68788787D01*
X128251292Y-68693603D01*
X128376514Y-68626671D01*
X128448097Y-68382702D01*
X127635000Y-67569605D01*
X126821903Y-68382702D01*
X123256254Y-68382702D01*
X123265631Y-68368669D01*
X123434110Y-67961925D01*
X123520000Y-67530128D01*
X123520000Y-67460512D01*
X126194783Y-67460512D01*
X126236213Y-67740130D01*
X126331397Y-68006292D01*
X126398329Y-68131514D01*
X126642298Y-68203097D01*
X127455395Y-67390000D01*
X127814605Y-67390000D01*
X128627702Y-68203097D01*
X128871671Y-68131514D01*
X128992571Y-67876004D01*
X129061300Y-67601816D01*
X129075217Y-67319488D01*
X129033787Y-67039870D01*
X128938603Y-66773708D01*
X128871671Y-66648486D01*
X128627702Y-66576903D01*
X127814605Y-67390000D01*
X127455395Y-67390000D01*
X126642298Y-66576903D01*
X126398329Y-66648486D01*
X126277429Y-66903996D01*
X126208700Y-67178184D01*
X126194783Y-67460512D01*
X123520000Y-67460512D01*
X123520000Y-67089872D01*
X123434110Y-66658075D01*
X123326093Y-66397298D01*
X126821903Y-66397298D01*
X127635000Y-67210395D01*
X128448097Y-66397298D01*
X128376514Y-66153329D01*
X128121004Y-66032429D01*
X127846816Y-65963700D01*
X127564488Y-65949783D01*
X127284870Y-65991213D01*
X127018708Y-66086397D01*
X126893486Y-66153329D01*
X126821903Y-66397298D01*
X123326093Y-66397298D01*
X123265631Y-66251331D01*
X123021038Y-65885271D01*
X122709729Y-65573962D01*
X122343669Y-65329369D01*
X121936925Y-65160890D01*
X121505128Y-65075000D01*
X121064872Y-65075000D01*
X120633075Y-65160890D01*
X120226331Y-65329369D01*
X119860271Y-65573962D01*
X119548962Y-65885271D01*
X119304369Y-66251331D01*
X119135890Y-66658075D01*
X119050000Y-67089872D01*
X118159748Y-67089872D01*
X118198096Y-66698778D01*
X118375606Y-66110836D01*
X118663937Y-65568564D01*
X119052094Y-65092636D01*
X119525314Y-64701155D01*
X120065552Y-64409049D01*
X120652244Y-64227437D01*
X121293879Y-64160000D01*
X131905345Y-64160000D01*
X131768368Y-64251525D01*
%TA.AperFunction,Conductor*%
D29*
G36*
X131768368Y-64251525D02*
G01*
X131561525Y-64458368D01*
X131399010Y-64701589D01*
X131287068Y-64971842D01*
X131230000Y-65258740D01*
X131230000Y-65551260D01*
X131287068Y-65838158D01*
X131399010Y-66108411D01*
X131561525Y-66351632D01*
X131768368Y-66558475D01*
X131942760Y-66675000D01*
X131768368Y-66791525D01*
X131561525Y-66998368D01*
X131399010Y-67241589D01*
X131287068Y-67511842D01*
X131230000Y-67798740D01*
X131230000Y-68091260D01*
X131287068Y-68378158D01*
X131399010Y-68648411D01*
X131561525Y-68891632D01*
X131693380Y-69023487D01*
X131620820Y-69045498D01*
X131510506Y-69104463D01*
X131413815Y-69183815D01*
X131334463Y-69280506D01*
X131275498Y-69390820D01*
X131239188Y-69510518D01*
X131226928Y-69635000D01*
X131230000Y-70199250D01*
X131388750Y-70358000D01*
X132588000Y-70358000D01*
X132588000Y-70338000D01*
X132842000Y-70338000D01*
X132842000Y-70358000D01*
X134041250Y-70358000D01*
X134200000Y-70199250D01*
X134203072Y-69635000D01*
X134190812Y-69510518D01*
X134154502Y-69390820D01*
X134095537Y-69280506D01*
X134016185Y-69183815D01*
X133919494Y-69104463D01*
X133809180Y-69045498D01*
X133736620Y-69023487D01*
X133868475Y-68891632D01*
X134030990Y-68648411D01*
X134142932Y-68378158D01*
X134200000Y-68091260D01*
X134200000Y-67798740D01*
X134142932Y-67511842D01*
X134030990Y-67241589D01*
X133868475Y-66998368D01*
X133661632Y-66791525D01*
X133487240Y-66675000D01*
X133661632Y-66558475D01*
X133862653Y-66357454D01*
X134220000Y-66714802D01*
X134220000Y-66776939D01*
X134259774Y-66976898D01*
X134337795Y-67165256D01*
X134451063Y-67334774D01*
X134595226Y-67478937D01*
X134764744Y-67592205D01*
X134953102Y-67670226D01*
X135153061Y-67710000D01*
X135356939Y-67710000D01*
X135556898Y-67670226D01*
X135745256Y-67592205D01*
X135914774Y-67478937D01*
X136058937Y-67334774D01*
X136172205Y-67165256D01*
X136250226Y-66976898D01*
X136290000Y-66776939D01*
X136290000Y-66573061D01*
X136250226Y-66373102D01*
X136172205Y-66184744D01*
X136058937Y-66015226D01*
X135914774Y-65871063D01*
X135745256Y-65757795D01*
X135556898Y-65679774D01*
X135356939Y-65640000D01*
X135294802Y-65640000D01*
X134548804Y-64894003D01*
X134525001Y-64864999D01*
X134409276Y-64770026D01*
X134277247Y-64699454D01*
X134133986Y-64655997D01*
X134022333Y-64645000D01*
X134022322Y-64645000D01*
X133991125Y-64641927D01*
X133868475Y-64458368D01*
X133661632Y-64251525D01*
X133524655Y-64160000D01*
X149685345Y-64160000D01*
X149548368Y-64251525D01*
X149341525Y-64458368D01*
X149179010Y-64701589D01*
X149067068Y-64971842D01*
X149010000Y-65258740D01*
X149010000Y-65551260D01*
X149042059Y-65712428D01*
X134710388Y-80044100D01*
X134679472Y-80069472D01*
X134609703Y-80154487D01*
X134578251Y-80192811D01*
X134568079Y-80211842D01*
X134503037Y-80333528D01*
X134456720Y-80486213D01*
X134445486Y-80600273D01*
X134441081Y-80645000D01*
X134445000Y-80684788D01*
X134445001Y-97362488D01*
X134047073Y-97760417D01*
X134030990Y-97721589D01*
X133868475Y-97478368D01*
X133736620Y-97346513D01*
X133809180Y-97324502D01*
X133919494Y-97265537D01*
X134016185Y-97186185D01*
X134095537Y-97089494D01*
X134154502Y-96979180D01*
X134190812Y-96859482D01*
X134203072Y-96735000D01*
X134200000Y-96170750D01*
X134041250Y-96012000D01*
X132842000Y-96012000D01*
X132842000Y-96032000D01*
X132588000Y-96032000D01*
X132588000Y-96012000D01*
X131388750Y-96012000D01*
X131230000Y-96170750D01*
X131226928Y-96735000D01*
X131239188Y-96859482D01*
X131275498Y-96979180D01*
X131334463Y-97089494D01*
X131413815Y-97186185D01*
X131510506Y-97265537D01*
X131620820Y-97324502D01*
X131693380Y-97346513D01*
X131561525Y-97478368D01*
X131399010Y-97721589D01*
X131287068Y-97991842D01*
X131230000Y-98278740D01*
X131230000Y-98571260D01*
X131287068Y-98858158D01*
X131399010Y-99128411D01*
X131439426Y-99188898D01*
X131434108Y-99195379D01*
X128534907Y-102094580D01*
X128411335Y-102070000D01*
X128128665Y-102070000D01*
X127851426Y-102125147D01*
X127590273Y-102233320D01*
X127355241Y-102390363D01*
X127155363Y-102590241D01*
X126998320Y-102825273D01*
X126890147Y-103086426D01*
X126835000Y-103363665D01*
X126835000Y-103646335D01*
X126890147Y-103923574D01*
X126998320Y-104184727D01*
X127155363Y-104419759D01*
X127355241Y-104619637D01*
X127460001Y-104689635D01*
X127460000Y-106765365D01*
X127355241Y-106835363D01*
X127155363Y-107035241D01*
X126998320Y-107270273D01*
X126890147Y-107531426D01*
X126835000Y-107808665D01*
X126835000Y-108091335D01*
X126890147Y-108368574D01*
X126998320Y-108629727D01*
X127155363Y-108864759D01*
X127355241Y-109064637D01*
X127587759Y-109220000D01*
X127355241Y-109375363D01*
X127155363Y-109575241D01*
X126998320Y-109810273D01*
X126890147Y-110071426D01*
X126835000Y-110348665D01*
X126835000Y-110631335D01*
X126890147Y-110908574D01*
X126998320Y-111169727D01*
X127155363Y-111404759D01*
X127355241Y-111604637D01*
X127587759Y-111760000D01*
X127355241Y-111915363D01*
X127155363Y-112115241D01*
X126998320Y-112350273D01*
X126890147Y-112611426D01*
X126835000Y-112888665D01*
X126835000Y-113171335D01*
X126890147Y-113448574D01*
X126998320Y-113709727D01*
X127155363Y-113944759D01*
X127355241Y-114144637D01*
X127590273Y-114301680D01*
X127600865Y-114306067D01*
X127414869Y-114417615D01*
X127206481Y-114606586D01*
X127038963Y-114832580D01*
X126918754Y-115086913D01*
X126878096Y-115220961D01*
X127000085Y-115443000D01*
X128143000Y-115443000D01*
X128143000Y-115423000D01*
X128397000Y-115423000D01*
X128397000Y-115443000D01*
X129539915Y-115443000D01*
X129564128Y-115398929D01*
X135885000Y-121719802D01*
X135885000Y-122136852D01*
X135823169Y-122162463D01*
X135539002Y-122352337D01*
X135297337Y-122594002D01*
X135107463Y-122878169D01*
X134976675Y-123193919D01*
X134910000Y-123529117D01*
X134910000Y-123870883D01*
X134976675Y-124206081D01*
X135107463Y-124521831D01*
X135297337Y-124805998D01*
X135539002Y-125047663D01*
X135823169Y-125237537D01*
X136138919Y-125368325D01*
X136474117Y-125435000D01*
X136815883Y-125435000D01*
X137151081Y-125368325D01*
X137466831Y-125237537D01*
X137750998Y-125047663D01*
X137992663Y-124805998D01*
X138182537Y-124521831D01*
X138305001Y-124226178D01*
X138305000Y-126931289D01*
X138261063Y-126975226D01*
X138147795Y-127144744D01*
X138069774Y-127333102D01*
X138030000Y-127533061D01*
X138030000Y-127736939D01*
X138069774Y-127936898D01*
X138147795Y-128125256D01*
X138261063Y-128294774D01*
X138405226Y-128438937D01*
X138574744Y-128552205D01*
X138763102Y-128630226D01*
X138963061Y-128670000D01*
X139166939Y-128670000D01*
X139366898Y-128630226D01*
X139555256Y-128552205D01*
X139724774Y-128438937D01*
X139868937Y-128294774D01*
X139982205Y-128125256D01*
X140060226Y-127936898D01*
X140100000Y-127736939D01*
X140100000Y-127533061D01*
X140092164Y-127493665D01*
X156045000Y-127493665D01*
X156045000Y-127776335D01*
X156100147Y-128053574D01*
X156208320Y-128314727D01*
X156365363Y-128549759D01*
X156565241Y-128749637D01*
X156800273Y-128906680D01*
X157061426Y-129014853D01*
X157338665Y-129070000D01*
X157621335Y-129070000D01*
X157898574Y-129014853D01*
X158159727Y-128906680D01*
X158394759Y-128749637D01*
X158516694Y-128627702D01*
X161666903Y-128627702D01*
X161738486Y-128871671D01*
X161993996Y-128992571D01*
X162268184Y-129061300D01*
X162550512Y-129075217D01*
X162830130Y-129033787D01*
X163096292Y-128938603D01*
X163221514Y-128871671D01*
X163293097Y-128627702D01*
X162480000Y-127814605D01*
X161666903Y-128627702D01*
X158516694Y-128627702D01*
X158594637Y-128549759D01*
X158751680Y-128314727D01*
X158859853Y-128053574D01*
X158915000Y-127776335D01*
X158915000Y-127705512D01*
X161039783Y-127705512D01*
X161081213Y-127985130D01*
X161176397Y-128251292D01*
X161243329Y-128376514D01*
X161487298Y-128448097D01*
X162300395Y-127635000D01*
X162659605Y-127635000D01*
X163472702Y-128448097D01*
X163716671Y-128376514D01*
X163837571Y-128121004D01*
X163906300Y-127846816D01*
X163920217Y-127564488D01*
X163878787Y-127284870D01*
X163783603Y-127018708D01*
X163716671Y-126893486D01*
X163472702Y-126821903D01*
X162659605Y-127635000D01*
X162300395Y-127635000D01*
X161487298Y-126821903D01*
X161243329Y-126893486D01*
X161122429Y-127148996D01*
X161053700Y-127423184D01*
X161039783Y-127705512D01*
X158915000Y-127705512D01*
X158915000Y-127493665D01*
X158859853Y-127216426D01*
X158751680Y-126955273D01*
X158594637Y-126720241D01*
X158516694Y-126642298D01*
X161666903Y-126642298D01*
X162480000Y-127455395D01*
X163293097Y-126642298D01*
X163221514Y-126398329D01*
X162966004Y-126277429D01*
X162691816Y-126208700D01*
X162409488Y-126194783D01*
X162129870Y-126236213D01*
X161863708Y-126331397D01*
X161738486Y-126398329D01*
X161666903Y-126642298D01*
X158516694Y-126642298D01*
X158394759Y-126520363D01*
X158159727Y-126363320D01*
X157898574Y-126255147D01*
X157621335Y-126200000D01*
X157338665Y-126200000D01*
X157061426Y-126255147D01*
X156800273Y-126363320D01*
X156565241Y-126520363D01*
X156365363Y-126720241D01*
X156208320Y-126955273D01*
X156100147Y-127216426D01*
X156045000Y-127493665D01*
X140092164Y-127493665D01*
X140060226Y-127333102D01*
X139982205Y-127144744D01*
X139868937Y-126975226D01*
X139825000Y-126931289D01*
X139825000Y-123529117D01*
X142410000Y-123529117D01*
X142410000Y-123870883D01*
X142476675Y-124206081D01*
X142607463Y-124521831D01*
X142797337Y-124805998D01*
X143039002Y-125047663D01*
X143323169Y-125237537D01*
X143638919Y-125368325D01*
X143974117Y-125435000D01*
X144315883Y-125435000D01*
X144651081Y-125368325D01*
X144966831Y-125237537D01*
X145250998Y-125047663D01*
X145492663Y-124805998D01*
X145682537Y-124521831D01*
X145813325Y-124206081D01*
X145880000Y-123870883D01*
X145880000Y-123529117D01*
X149910000Y-123529117D01*
X149910000Y-123870883D01*
X149976675Y-124206081D01*
X150107463Y-124521831D01*
X150297337Y-124805998D01*
X150539002Y-125047663D01*
X150823169Y-125237537D01*
X151138919Y-125368325D01*
X151474117Y-125435000D01*
X151815883Y-125435000D01*
X152151081Y-125368325D01*
X152466831Y-125237537D01*
X152750998Y-125047663D01*
X152992663Y-124805998D01*
X153182537Y-124521831D01*
X153313325Y-124206081D01*
X153380000Y-123870883D01*
X153380000Y-123529117D01*
X153313325Y-123193919D01*
X153182537Y-122878169D01*
X152992663Y-122594002D01*
X152750998Y-122352337D01*
X152466831Y-122162463D01*
X152151081Y-122031675D01*
X151815883Y-121965000D01*
X151474117Y-121965000D01*
X151138919Y-122031675D01*
X150823169Y-122162463D01*
X150539002Y-122352337D01*
X150297337Y-122594002D01*
X150107463Y-122878169D01*
X149976675Y-123193919D01*
X149910000Y-123529117D01*
X145880000Y-123529117D01*
X145847318Y-123364811D01*
X147485278Y-121726851D01*
X147607463Y-122021831D01*
X147797337Y-122305998D01*
X148039002Y-122547663D01*
X148323169Y-122737537D01*
X148638919Y-122868325D01*
X148974117Y-122935000D01*
X149315883Y-122935000D01*
X149651081Y-122868325D01*
X149966831Y-122737537D01*
X150250998Y-122547663D01*
X150492663Y-122305998D01*
X150682537Y-122021831D01*
X150783259Y-121778665D01*
X156045000Y-121778665D01*
X156045000Y-122061335D01*
X156100147Y-122338574D01*
X156208320Y-122599727D01*
X156365363Y-122834759D01*
X156565241Y-123034637D01*
X156800273Y-123191680D01*
X157061426Y-123299853D01*
X157338665Y-123355000D01*
X157621335Y-123355000D01*
X157898574Y-123299853D01*
X158159727Y-123191680D01*
X158394759Y-123034637D01*
X158516694Y-122912702D01*
X161666903Y-122912702D01*
X161738486Y-123156671D01*
X161993996Y-123277571D01*
X162268184Y-123346300D01*
X162550512Y-123360217D01*
X162830130Y-123318787D01*
X163096292Y-123223603D01*
X163221514Y-123156671D01*
X163253204Y-123048665D01*
X163665000Y-123048665D01*
X163665000Y-123331335D01*
X163720147Y-123608574D01*
X163828320Y-123869727D01*
X163985363Y-124104759D01*
X164185241Y-124304637D01*
X164417759Y-124460000D01*
X164185241Y-124615363D01*
X163985363Y-124815241D01*
X163828320Y-125050273D01*
X163720147Y-125311426D01*
X163665000Y-125588665D01*
X163665000Y-125871335D01*
X163720147Y-126148574D01*
X163828320Y-126409727D01*
X163985363Y-126644759D01*
X164185241Y-126844637D01*
X164420273Y-127001680D01*
X164681426Y-127109853D01*
X164958665Y-127165000D01*
X165241335Y-127165000D01*
X165518574Y-127109853D01*
X165779727Y-127001680D01*
X166014759Y-126844637D01*
X166214637Y-126644759D01*
X166371680Y-126409727D01*
X166479853Y-126148574D01*
X166535000Y-125871335D01*
X166535000Y-125588665D01*
X166479853Y-125311426D01*
X166371680Y-125050273D01*
X166214637Y-124815241D01*
X166014759Y-124615363D01*
X165782241Y-124460000D01*
X166014759Y-124304637D01*
X166214637Y-124104759D01*
X166371680Y-123869727D01*
X166479853Y-123608574D01*
X166535000Y-123331335D01*
X166535000Y-123048665D01*
X166479853Y-122771426D01*
X166371680Y-122510273D01*
X166214637Y-122275241D01*
X166014759Y-122075363D01*
X165779727Y-121918320D01*
X165518574Y-121810147D01*
X165241335Y-121755000D01*
X164958665Y-121755000D01*
X164681426Y-121810147D01*
X164420273Y-121918320D01*
X164185241Y-122075363D01*
X163985363Y-122275241D01*
X163828320Y-122510273D01*
X163720147Y-122771426D01*
X163665000Y-123048665D01*
X163253204Y-123048665D01*
X163293097Y-122912702D01*
X162480000Y-122099605D01*
X161666903Y-122912702D01*
X158516694Y-122912702D01*
X158594637Y-122834759D01*
X158751680Y-122599727D01*
X158859853Y-122338574D01*
X158915000Y-122061335D01*
X158915000Y-121990512D01*
X161039783Y-121990512D01*
X161081213Y-122270130D01*
X161176397Y-122536292D01*
X161243329Y-122661514D01*
X161487298Y-122733097D01*
X162300395Y-121920000D01*
X162659605Y-121920000D01*
X163472702Y-122733097D01*
X163716671Y-122661514D01*
X163837571Y-122406004D01*
X163906300Y-122131816D01*
X163920217Y-121849488D01*
X163878787Y-121569870D01*
X163783603Y-121303708D01*
X163716671Y-121178486D01*
X163472702Y-121106903D01*
X162659605Y-121920000D01*
X162300395Y-121920000D01*
X161487298Y-121106903D01*
X161243329Y-121178486D01*
X161122429Y-121433996D01*
X161053700Y-121708184D01*
X161039783Y-121990512D01*
X158915000Y-121990512D01*
X158915000Y-121778665D01*
X158859853Y-121501426D01*
X158751680Y-121240273D01*
X158594637Y-121005241D01*
X158516694Y-120927298D01*
X161666903Y-120927298D01*
X162480000Y-121740395D01*
X163293097Y-120927298D01*
X163221514Y-120683329D01*
X162966004Y-120562429D01*
X162691816Y-120493700D01*
X162409488Y-120479783D01*
X162129870Y-120521213D01*
X161863708Y-120616397D01*
X161738486Y-120683329D01*
X161666903Y-120927298D01*
X158516694Y-120927298D01*
X158394759Y-120805363D01*
X158159727Y-120648320D01*
X157898574Y-120540147D01*
X157621335Y-120485000D01*
X157338665Y-120485000D01*
X157061426Y-120540147D01*
X156800273Y-120648320D01*
X156565241Y-120805363D01*
X156365363Y-121005241D01*
X156208320Y-121240273D01*
X156100147Y-121501426D01*
X156045000Y-121778665D01*
X150783259Y-121778665D01*
X150813325Y-121706081D01*
X150880000Y-121370883D01*
X150880000Y-121029117D01*
X150813325Y-120693919D01*
X150682537Y-120378169D01*
X150492663Y-120094002D01*
X150250998Y-119852337D01*
X149966831Y-119662463D01*
X149671851Y-119540278D01*
X153142130Y-116070000D01*
X156380375Y-116070000D01*
X156389188Y-116159482D01*
X156425498Y-116279180D01*
X156484463Y-116389494D01*
X156563815Y-116486185D01*
X156660506Y-116565537D01*
X156770820Y-116624502D01*
X156890518Y-116660812D01*
X157015000Y-116673072D01*
X159215000Y-116673072D01*
X159339482Y-116660812D01*
X159459180Y-116624502D01*
X159569494Y-116565537D01*
X159666185Y-116486185D01*
X159745537Y-116389494D01*
X159804502Y-116279180D01*
X159840812Y-116159482D01*
X159853072Y-116035000D01*
X159853072Y-113835000D01*
X159840812Y-113710518D01*
X159804502Y-113590820D01*
X159745537Y-113480506D01*
X159666185Y-113383815D01*
X159569494Y-113304463D01*
X159459180Y-113245498D01*
X159339482Y-113209188D01*
X159215000Y-113196928D01*
X157015000Y-113196928D01*
X156890518Y-113209188D01*
X156770820Y-113245498D01*
X156660506Y-113304463D01*
X156563815Y-113383815D01*
X156484463Y-113480506D01*
X156425498Y-113590820D01*
X156389188Y-113710518D01*
X156380375Y-113800000D01*
X152727741Y-113800000D01*
X152671997Y-113794510D01*
X152616253Y-113800000D01*
X152616246Y-113800000D01*
X152470491Y-113814356D01*
X152449498Y-113816423D01*
X152404742Y-113830000D01*
X152235551Y-113881324D01*
X152038375Y-113986716D01*
X151926902Y-114078200D01*
X151980000Y-113811260D01*
X151980000Y-113518740D01*
X151922932Y-113231842D01*
X151810990Y-112961589D01*
X151648475Y-112718368D01*
X151441632Y-112511525D01*
X151267240Y-112395000D01*
X151441632Y-112278475D01*
X151648475Y-112071632D01*
X151810990Y-111828411D01*
X151922932Y-111558158D01*
X151980000Y-111271260D01*
X151980000Y-110978740D01*
X151922932Y-110691842D01*
X151810990Y-110421589D01*
X151648475Y-110178368D01*
X151516620Y-110046513D01*
X151589180Y-110024502D01*
X151699494Y-109965537D01*
X151796185Y-109886185D01*
X151875537Y-109789494D01*
X151934502Y-109679180D01*
X151970812Y-109559482D01*
X151983072Y-109435000D01*
X151980000Y-108870750D01*
X151821250Y-108712000D01*
X150622000Y-108712000D01*
X150622000Y-108732000D01*
X150368000Y-108732000D01*
X150368000Y-108712000D01*
X149168750Y-108712000D01*
X149010000Y-108870750D01*
X149006928Y-109435000D01*
X149019188Y-109559482D01*
X149055498Y-109679180D01*
X149114463Y-109789494D01*
X149193815Y-109886185D01*
X149290506Y-109965537D01*
X149400820Y-110024502D01*
X149473380Y-110046513D01*
X149341525Y-110178368D01*
X149179010Y-110421589D01*
X149067068Y-110691842D01*
X149010000Y-110978740D01*
X149010000Y-111271260D01*
X149067068Y-111558158D01*
X149179010Y-111828411D01*
X149341525Y-112071632D01*
X149548368Y-112278475D01*
X149722760Y-112395000D01*
X149548368Y-112511525D01*
X149341525Y-112718368D01*
X149179010Y-112961589D01*
X149067068Y-113231842D01*
X149010000Y-113518740D01*
X149010000Y-113811260D01*
X149067068Y-114098158D01*
X149179010Y-114368411D01*
X149341525Y-114611632D01*
X149548368Y-114818475D01*
X149791589Y-114980990D01*
X150061842Y-115092932D01*
X150348740Y-115150000D01*
X150641260Y-115150000D01*
X150904161Y-115097705D01*
X144036867Y-121965000D01*
X143974117Y-121965000D01*
X143638919Y-122031675D01*
X143323169Y-122162463D01*
X143039002Y-122352337D01*
X142797337Y-122594002D01*
X142607463Y-122878169D01*
X142476675Y-123193919D01*
X142410000Y-123529117D01*
X139825000Y-123529117D01*
X139825000Y-122796285D01*
X139966831Y-122737537D01*
X140250998Y-122547663D01*
X140492663Y-122305998D01*
X140682537Y-122021831D01*
X140813325Y-121706081D01*
X140880000Y-121370883D01*
X140880000Y-121029117D01*
X140813325Y-120693919D01*
X140682537Y-120378169D01*
X140492663Y-120094002D01*
X140250998Y-119852337D01*
X139966831Y-119662463D01*
X139651081Y-119531675D01*
X139315883Y-119465000D01*
X138974117Y-119465000D01*
X138638919Y-119531675D01*
X138323169Y-119662463D01*
X138158375Y-119772575D01*
X136914917Y-118529117D01*
X142410000Y-118529117D01*
X142410000Y-118870883D01*
X142476675Y-119206081D01*
X142607463Y-119521831D01*
X142797337Y-119805998D01*
X143039002Y-120047663D01*
X143323169Y-120237537D01*
X143638919Y-120368325D01*
X143974117Y-120435000D01*
X144315883Y-120435000D01*
X144651081Y-120368325D01*
X144966831Y-120237537D01*
X145250998Y-120047663D01*
X145492663Y-119805998D01*
X145682537Y-119521831D01*
X145813325Y-119206081D01*
X145880000Y-118870883D01*
X145880000Y-118529117D01*
X145813325Y-118193919D01*
X145682537Y-117878169D01*
X145492663Y-117594002D01*
X145250998Y-117352337D01*
X144966831Y-117162463D01*
X144651081Y-117031675D01*
X144315883Y-116965000D01*
X143974117Y-116965000D01*
X143638919Y-117031675D01*
X143323169Y-117162463D01*
X143039002Y-117352337D01*
X142797337Y-117594002D01*
X142607463Y-117878169D01*
X142476675Y-118193919D01*
X142410000Y-118529117D01*
X136914917Y-118529117D01*
X133381909Y-114996110D01*
X133418411Y-114980990D01*
X133661632Y-114818475D01*
X133868475Y-114611632D01*
X134030990Y-114368411D01*
X134142932Y-114098158D01*
X134200000Y-113811260D01*
X134200000Y-113518740D01*
X134142932Y-113231842D01*
X134030990Y-112961589D01*
X133868475Y-112718368D01*
X133661632Y-112511525D01*
X133487240Y-112395000D01*
X133661632Y-112278475D01*
X133686442Y-112253665D01*
X136360000Y-112253665D01*
X136360000Y-112536335D01*
X136415147Y-112813574D01*
X136523320Y-113074727D01*
X136680363Y-113309759D01*
X136880241Y-113509637D01*
X137115273Y-113666680D01*
X137376426Y-113774853D01*
X137653665Y-113830000D01*
X137936335Y-113830000D01*
X138213574Y-113774853D01*
X138474727Y-113666680D01*
X138709759Y-113509637D01*
X138909637Y-113309759D01*
X139066680Y-113074727D01*
X139174853Y-112813574D01*
X139188684Y-112744039D01*
X144023096Y-112744039D01*
X144063754Y-112878087D01*
X144183963Y-113132420D01*
X144351481Y-113358414D01*
X144559869Y-113547385D01*
X144801119Y-113692070D01*
X145065960Y-113786909D01*
X145288000Y-113665624D01*
X145288000Y-112522000D01*
X145542000Y-112522000D01*
X145542000Y-113665624D01*
X145764040Y-113786909D01*
X146028881Y-113692070D01*
X146270131Y-113547385D01*
X146478519Y-113358414D01*
X146646037Y-113132420D01*
X146766246Y-112878087D01*
X146806904Y-112744039D01*
X146684915Y-112522000D01*
X145542000Y-112522000D01*
X145288000Y-112522000D01*
X144145085Y-112522000D01*
X144023096Y-112744039D01*
X139188684Y-112744039D01*
X139230000Y-112536335D01*
X139230000Y-112253665D01*
X139188685Y-112045961D01*
X144023096Y-112045961D01*
X144145085Y-112268000D01*
X145288000Y-112268000D01*
X145288000Y-111124376D01*
X145542000Y-111124376D01*
X145542000Y-112268000D01*
X146684915Y-112268000D01*
X146806904Y-112045961D01*
X146766246Y-111911913D01*
X146646037Y-111657580D01*
X146478519Y-111431586D01*
X146270131Y-111242615D01*
X146028881Y-111097930D01*
X145764040Y-111003091D01*
X145542000Y-111124376D01*
X145288000Y-111124376D01*
X145065960Y-111003091D01*
X144801119Y-111097930D01*
X144559869Y-111242615D01*
X144351481Y-111431586D01*
X144183963Y-111657580D01*
X144063754Y-111911913D01*
X144023096Y-112045961D01*
X139188685Y-112045961D01*
X139174853Y-111976426D01*
X139066680Y-111715273D01*
X138909637Y-111480241D01*
X138709759Y-111280363D01*
X138555000Y-111176957D01*
X138555000Y-111054801D01*
X138851729Y-110758072D01*
X140173750Y-110758072D01*
X140298232Y-110745812D01*
X140417930Y-110709502D01*
X140528244Y-110650537D01*
X140624935Y-110571185D01*
X140704287Y-110474494D01*
X140711741Y-110460550D01*
X140771103Y-110509267D01*
X141030602Y-110647972D01*
X141312175Y-110733386D01*
X141605000Y-110762227D01*
X141897826Y-110733386D01*
X142179399Y-110647972D01*
X142438898Y-110509267D01*
X142666351Y-110322601D01*
X142755413Y-110214078D01*
X142858990Y-110335702D01*
X143088512Y-110517172D01*
X143349027Y-110650378D01*
X143536736Y-110711400D01*
X143768000Y-110590195D01*
X143768000Y-109347000D01*
X144022000Y-109347000D01*
X144022000Y-110590195D01*
X144253264Y-110711400D01*
X144440973Y-110650378D01*
X144701488Y-110517172D01*
X144931010Y-110335702D01*
X145120718Y-110112941D01*
X145263323Y-109857450D01*
X145353344Y-109579048D01*
X145226354Y-109347000D01*
X144022000Y-109347000D01*
X143768000Y-109347000D01*
X143748000Y-109347000D01*
X143748000Y-109093000D01*
X143768000Y-109093000D01*
X143768000Y-107849805D01*
X144022000Y-107849805D01*
X144022000Y-109093000D01*
X145226354Y-109093000D01*
X145353344Y-108860952D01*
X145263323Y-108582550D01*
X145120718Y-108327059D01*
X144931010Y-108104298D01*
X144701488Y-107922828D01*
X144440973Y-107789622D01*
X144253264Y-107728600D01*
X144022000Y-107849805D01*
X143768000Y-107849805D01*
X143536736Y-107728600D01*
X143349027Y-107789622D01*
X143088512Y-107922828D01*
X142858990Y-108104298D01*
X142755413Y-108225921D01*
X142666351Y-108117399D01*
X142438897Y-107930733D01*
X142179398Y-107792028D01*
X141897825Y-107706614D01*
X141605000Y-107677773D01*
X141312174Y-107706614D01*
X141030601Y-107792028D01*
X140771102Y-107930733D01*
X140711740Y-107979450D01*
X140704287Y-107965506D01*
X140624935Y-107868815D01*
X140528244Y-107789463D01*
X140417930Y-107730498D01*
X140298232Y-107694188D01*
X140173750Y-107681928D01*
X140075000Y-107681928D01*
X140075000Y-96735000D01*
X149006928Y-96735000D01*
X149019188Y-96859482D01*
X149055498Y-96979180D01*
X149114463Y-97089494D01*
X149193815Y-97186185D01*
X149290506Y-97265537D01*
X149400820Y-97324502D01*
X149473380Y-97346513D01*
X149341525Y-97478368D01*
X149179010Y-97721589D01*
X149067068Y-97991842D01*
X149010000Y-98278740D01*
X149010000Y-98571260D01*
X149067068Y-98858158D01*
X149179010Y-99128411D01*
X149341525Y-99371632D01*
X149548368Y-99578475D01*
X149722760Y-99695000D01*
X149548368Y-99811525D01*
X149341525Y-100018368D01*
X149179010Y-100261589D01*
X149067068Y-100531842D01*
X149010000Y-100818740D01*
X149010000Y-101111260D01*
X149067068Y-101398158D01*
X149179010Y-101668411D01*
X149341525Y-101911632D01*
X149548368Y-102118475D01*
X149722760Y-102235000D01*
X149548368Y-102351525D01*
X149341525Y-102558368D01*
X149179010Y-102801589D01*
X149067068Y-103071842D01*
X149010000Y-103358740D01*
X149010000Y-103651260D01*
X149067068Y-103938158D01*
X149179010Y-104208411D01*
X149341525Y-104451632D01*
X149548368Y-104658475D01*
X149722760Y-104775000D01*
X149548368Y-104891525D01*
X149341525Y-105098368D01*
X149179010Y-105341589D01*
X149067068Y-105611842D01*
X149010000Y-105898740D01*
X149010000Y-106191260D01*
X149067068Y-106478158D01*
X149179010Y-106748411D01*
X149341525Y-106991632D01*
X149473380Y-107123487D01*
X149400820Y-107145498D01*
X149290506Y-107204463D01*
X149193815Y-107283815D01*
X149114463Y-107380506D01*
X149055498Y-107490820D01*
X149019188Y-107610518D01*
X149006928Y-107735000D01*
X149010000Y-108299250D01*
X149168750Y-108458000D01*
X150368000Y-108458000D01*
X150368000Y-108438000D01*
X150622000Y-108438000D01*
X150622000Y-108458000D01*
X151821250Y-108458000D01*
X151980000Y-108299250D01*
X151983072Y-107735000D01*
X151970812Y-107610518D01*
X151934502Y-107490820D01*
X151875537Y-107380506D01*
X151796185Y-107283815D01*
X151699494Y-107204463D01*
X151589180Y-107145498D01*
X151516620Y-107123487D01*
X151648475Y-106991632D01*
X151810990Y-106748411D01*
X151922932Y-106478158D01*
X151980000Y-106191260D01*
X151980000Y-105898740D01*
X151922932Y-105611842D01*
X151810990Y-105341589D01*
X151648475Y-105098368D01*
X151441632Y-104891525D01*
X151267240Y-104775000D01*
X151441632Y-104658475D01*
X151648475Y-104451632D01*
X151810990Y-104208411D01*
X151922932Y-103938158D01*
X151980000Y-103651260D01*
X151980000Y-103358740D01*
X151922932Y-103071842D01*
X151810990Y-102801589D01*
X151648475Y-102558368D01*
X151441632Y-102351525D01*
X151267240Y-102235000D01*
X151441632Y-102118475D01*
X151648475Y-101911632D01*
X151810990Y-101668411D01*
X151922932Y-101398158D01*
X151980000Y-101111260D01*
X151980000Y-100818740D01*
X151953774Y-100686890D01*
X156673524Y-100686890D01*
X156718175Y-100834099D01*
X156843359Y-101096920D01*
X157017412Y-101330269D01*
X157233645Y-101525178D01*
X157483748Y-101674157D01*
X157758109Y-101771481D01*
X157988000Y-101650814D01*
X157988000Y-100457000D01*
X156794845Y-100457000D01*
X156673524Y-100686890D01*
X151953774Y-100686890D01*
X151922932Y-100531842D01*
X151810990Y-100261589D01*
X151648475Y-100018368D01*
X151441632Y-99811525D01*
X151267240Y-99695000D01*
X151441632Y-99578475D01*
X151648475Y-99371632D01*
X151810990Y-99128411D01*
X151922932Y-98858158D01*
X151980000Y-98571260D01*
X151980000Y-98278740D01*
X151922932Y-97991842D01*
X151810990Y-97721589D01*
X151648475Y-97478368D01*
X151516620Y-97346513D01*
X151589180Y-97324502D01*
X151699494Y-97265537D01*
X151796185Y-97186185D01*
X151875537Y-97089494D01*
X151934502Y-96979180D01*
X151970812Y-96859482D01*
X151983072Y-96735000D01*
X151980000Y-96170750D01*
X151821250Y-96012000D01*
X150622000Y-96012000D01*
X150622000Y-96032000D01*
X150368000Y-96032000D01*
X150368000Y-96012000D01*
X149168750Y-96012000D01*
X149010000Y-96170750D01*
X149006928Y-96735000D01*
X140075000Y-96735000D01*
X140075000Y-89229946D01*
X140190256Y-89182205D01*
X140359774Y-89068937D01*
X140503937Y-88924774D01*
X140617205Y-88755256D01*
X140695226Y-88566898D01*
X140735000Y-88366939D01*
X140735000Y-88163061D01*
X140695226Y-87963102D01*
X140617205Y-87774744D01*
X140503937Y-87605226D01*
X140359774Y-87461063D01*
X140190256Y-87347795D01*
X140001898Y-87269774D01*
X139801939Y-87230000D01*
X139598061Y-87230000D01*
X139398102Y-87269774D01*
X139209744Y-87347795D01*
X139040226Y-87461063D01*
X138896063Y-87605226D01*
X138782795Y-87774744D01*
X138704774Y-87963102D01*
X138665000Y-88163061D01*
X138665000Y-88253835D01*
X138609454Y-88357754D01*
X138593224Y-88411260D01*
X138565998Y-88501014D01*
X138559509Y-88566898D01*
X138551324Y-88650000D01*
X138555001Y-88687333D01*
X138555000Y-107681928D01*
X138456250Y-107681928D01*
X138331768Y-107694188D01*
X138212070Y-107730498D01*
X138101756Y-107789463D01*
X138005065Y-107868815D01*
X137925713Y-107965506D01*
X137866748Y-108075820D01*
X137830438Y-108195518D01*
X137818178Y-108320000D01*
X137818178Y-109642021D01*
X137283998Y-110176201D01*
X137255000Y-110199999D01*
X137231202Y-110228997D01*
X137231201Y-110228998D01*
X137160026Y-110315724D01*
X137089454Y-110447754D01*
X137070795Y-110509267D01*
X137046247Y-110590195D01*
X137045998Y-110591015D01*
X137031324Y-110740000D01*
X137035001Y-110777332D01*
X137035001Y-111176956D01*
X136880241Y-111280363D01*
X136680363Y-111480241D01*
X136523320Y-111715273D01*
X136415147Y-111976426D01*
X136360000Y-112253665D01*
X133686442Y-112253665D01*
X133868475Y-112071632D01*
X134030990Y-111828411D01*
X134142932Y-111558158D01*
X134200000Y-111271260D01*
X134200000Y-110978740D01*
X134142932Y-110691842D01*
X134030990Y-110421589D01*
X133868475Y-110178368D01*
X133736620Y-110046513D01*
X133809180Y-110024502D01*
X133919494Y-109965537D01*
X134016185Y-109886185D01*
X134095537Y-109789494D01*
X134154502Y-109679180D01*
X134190812Y-109559482D01*
X134203072Y-109435000D01*
X134200000Y-108870750D01*
X134041250Y-108712000D01*
X132842000Y-108712000D01*
X132842000Y-108732000D01*
X132588000Y-108732000D01*
X132588000Y-108712000D01*
X131388750Y-108712000D01*
X131230000Y-108870750D01*
X131226928Y-109435000D01*
X131239188Y-109559482D01*
X131275498Y-109679180D01*
X131334463Y-109789494D01*
X131413815Y-109886185D01*
X131510506Y-109965537D01*
X131620820Y-110024502D01*
X131693380Y-110046513D01*
X131561525Y-110178368D01*
X131399010Y-110421589D01*
X131287068Y-110691842D01*
X131230000Y-110978740D01*
X131230000Y-111271260D01*
X131287068Y-111558158D01*
X131399010Y-111828411D01*
X131561525Y-112071632D01*
X131768368Y-112278475D01*
X131942760Y-112395000D01*
X131768368Y-112511525D01*
X131561525Y-112718368D01*
X131399010Y-112961589D01*
X131383890Y-112998091D01*
X130155001Y-111769202D01*
X130155001Y-111652326D01*
X130158677Y-111615001D01*
X130155001Y-111577676D01*
X130155001Y-111577668D01*
X130144004Y-111466015D01*
X130100547Y-111322754D01*
X130029975Y-111190725D01*
X129935002Y-111075000D01*
X129906005Y-111051203D01*
X129668688Y-110813886D01*
X129705000Y-110631335D01*
X129705000Y-110348665D01*
X129649853Y-110071426D01*
X129541680Y-109810273D01*
X129384637Y-109575241D01*
X129184759Y-109375363D01*
X128952241Y-109220000D01*
X129184759Y-109064637D01*
X129384637Y-108864759D01*
X129541680Y-108629727D01*
X129649853Y-108368574D01*
X129705000Y-108091335D01*
X129705000Y-107808665D01*
X129649853Y-107531426D01*
X129541680Y-107270273D01*
X129384637Y-107035241D01*
X129184759Y-106835363D01*
X129080000Y-106765365D01*
X129080000Y-104689635D01*
X129184759Y-104619637D01*
X129384637Y-104419759D01*
X129541680Y-104184727D01*
X129649853Y-103923574D01*
X129705000Y-103646335D01*
X129705000Y-103363665D01*
X129680420Y-103240093D01*
X131355982Y-101564531D01*
X131399010Y-101668411D01*
X131561525Y-101911632D01*
X131768368Y-102118475D01*
X131942760Y-102235000D01*
X131768368Y-102351525D01*
X131561525Y-102558368D01*
X131399010Y-102801589D01*
X131287068Y-103071842D01*
X131230000Y-103358740D01*
X131230000Y-103651260D01*
X131287068Y-103938158D01*
X131399010Y-104208411D01*
X131561525Y-104451632D01*
X131768368Y-104658475D01*
X131942760Y-104775000D01*
X131768368Y-104891525D01*
X131561525Y-105098368D01*
X131399010Y-105341589D01*
X131287068Y-105611842D01*
X131230000Y-105898740D01*
X131230000Y-106191260D01*
X131287068Y-106478158D01*
X131399010Y-106748411D01*
X131561525Y-106991632D01*
X131693380Y-107123487D01*
X131620820Y-107145498D01*
X131510506Y-107204463D01*
X131413815Y-107283815D01*
X131334463Y-107380506D01*
X131275498Y-107490820D01*
X131239188Y-107610518D01*
X131226928Y-107735000D01*
X131230000Y-108299250D01*
X131388750Y-108458000D01*
X132588000Y-108458000D01*
X132588000Y-108438000D01*
X132842000Y-108438000D01*
X132842000Y-108458000D01*
X134041250Y-108458000D01*
X134200000Y-108299250D01*
X134203072Y-107735000D01*
X134190812Y-107610518D01*
X134154502Y-107490820D01*
X134095537Y-107380506D01*
X134016185Y-107283815D01*
X133919494Y-107204463D01*
X133809180Y-107145498D01*
X133736620Y-107123487D01*
X133868475Y-106991632D01*
X134030990Y-106748411D01*
X134142932Y-106478158D01*
X134200000Y-106191260D01*
X134200000Y-105898740D01*
X134142932Y-105611842D01*
X134030990Y-105341589D01*
X133868475Y-105098368D01*
X133661632Y-104891525D01*
X133487240Y-104775000D01*
X133661632Y-104658475D01*
X133868475Y-104451632D01*
X134030990Y-104208411D01*
X134142932Y-103938158D01*
X134200000Y-103651260D01*
X134200000Y-103358740D01*
X134142932Y-103071842D01*
X134030990Y-102801589D01*
X133868475Y-102558368D01*
X133661632Y-102351525D01*
X133487240Y-102235000D01*
X133661632Y-102118475D01*
X133868475Y-101911632D01*
X134030990Y-101668411D01*
X134142932Y-101398158D01*
X134200000Y-101111260D01*
X134200000Y-100818740D01*
X134142932Y-100531842D01*
X134030990Y-100261589D01*
X133953259Y-100145256D01*
X135799618Y-98298897D01*
X135830528Y-98273530D01*
X135879214Y-98214206D01*
X135931749Y-98150192D01*
X136006962Y-98009476D01*
X136006963Y-98009475D01*
X136053280Y-97856790D01*
X136065000Y-97737793D01*
X136065000Y-97737790D01*
X136068919Y-97698002D01*
X136065000Y-97658214D01*
X136065000Y-80980512D01*
X149010000Y-68035513D01*
X149010000Y-68091260D01*
X149067068Y-68378158D01*
X149179010Y-68648411D01*
X149341525Y-68891632D01*
X149473380Y-69023487D01*
X149400820Y-69045498D01*
X149290506Y-69104463D01*
X149193815Y-69183815D01*
X149114463Y-69280506D01*
X149055498Y-69390820D01*
X149019188Y-69510518D01*
X149006928Y-69635000D01*
X149010000Y-70199250D01*
X149168750Y-70358000D01*
X150368000Y-70358000D01*
X150368000Y-70338000D01*
X150622000Y-70338000D01*
X150622000Y-70358000D01*
X150642000Y-70358000D01*
X150642000Y-70612000D01*
X150622000Y-70612000D01*
X150622000Y-70632000D01*
X150368000Y-70632000D01*
X150368000Y-70612000D01*
X149168750Y-70612000D01*
X149010000Y-70770750D01*
X149006928Y-71335000D01*
X149019188Y-71459482D01*
X149055498Y-71579180D01*
X149114463Y-71689494D01*
X149193815Y-71786185D01*
X149290506Y-71865537D01*
X149400820Y-71924502D01*
X149473380Y-71946513D01*
X149341525Y-72078368D01*
X149179010Y-72321589D01*
X149067068Y-72591842D01*
X149010000Y-72878740D01*
X149010000Y-73171260D01*
X149067068Y-73458158D01*
X149179010Y-73728411D01*
X149341525Y-73971632D01*
X149548368Y-74178475D01*
X149722760Y-74295000D01*
X149548368Y-74411525D01*
X149341525Y-74618368D01*
X149179010Y-74861589D01*
X149067068Y-75131842D01*
X149010000Y-75418740D01*
X149010000Y-75711260D01*
X149067068Y-75998158D01*
X149179010Y-76268411D01*
X149341525Y-76511632D01*
X149548368Y-76718475D01*
X149722760Y-76835000D01*
X149548368Y-76951525D01*
X149341525Y-77158368D01*
X149179010Y-77401589D01*
X149067068Y-77671842D01*
X149010000Y-77958740D01*
X149010000Y-78251260D01*
X149067068Y-78538158D01*
X149179010Y-78808411D01*
X149341525Y-79051632D01*
X149548368Y-79258475D01*
X149722760Y-79375000D01*
X149548368Y-79491525D01*
X149341525Y-79698368D01*
X149179010Y-79941589D01*
X149067068Y-80211842D01*
X149010000Y-80498740D01*
X149010000Y-80791260D01*
X149067068Y-81078158D01*
X149179010Y-81348411D01*
X149341525Y-81591632D01*
X149473380Y-81723487D01*
X149400820Y-81745498D01*
X149290506Y-81804463D01*
X149193815Y-81883815D01*
X149114463Y-81980506D01*
X149055498Y-82090820D01*
X149019188Y-82210518D01*
X149006928Y-82335000D01*
X149010000Y-82899250D01*
X149168750Y-83058000D01*
X150368000Y-83058000D01*
X150368000Y-83038000D01*
X150622000Y-83038000D01*
X150622000Y-83058000D01*
X150642000Y-83058000D01*
X150642000Y-83312000D01*
X150622000Y-83312000D01*
X150622000Y-83332000D01*
X150368000Y-83332000D01*
X150368000Y-83312000D01*
X149168750Y-83312000D01*
X149010000Y-83470750D01*
X149006928Y-84035000D01*
X149019188Y-84159482D01*
X149055498Y-84279180D01*
X149114463Y-84389494D01*
X149193815Y-84486185D01*
X149290506Y-84565537D01*
X149400820Y-84624502D01*
X149473380Y-84646513D01*
X149341525Y-84778368D01*
X149179010Y-85021589D01*
X149067068Y-85291842D01*
X149010000Y-85578740D01*
X149010000Y-85871260D01*
X149067068Y-86158158D01*
X149179010Y-86428411D01*
X149341525Y-86671632D01*
X149548368Y-86878475D01*
X149722760Y-86995000D01*
X149548368Y-87111525D01*
X149341525Y-87318368D01*
X149179010Y-87561589D01*
X149067068Y-87831842D01*
X149010000Y-88118740D01*
X149010000Y-88411260D01*
X149067068Y-88698158D01*
X149179010Y-88968411D01*
X149341525Y-89211632D01*
X149548368Y-89418475D01*
X149722760Y-89535000D01*
X149548368Y-89651525D01*
X149341525Y-89858368D01*
X149179010Y-90101589D01*
X149067068Y-90371842D01*
X149010000Y-90658740D01*
X149010000Y-90951260D01*
X149067068Y-91238158D01*
X149179010Y-91508411D01*
X149341525Y-91751632D01*
X149548368Y-91958475D01*
X149722760Y-92075000D01*
X149548368Y-92191525D01*
X149341525Y-92398368D01*
X149179010Y-92641589D01*
X149067068Y-92911842D01*
X149010000Y-93198740D01*
X149010000Y-93491260D01*
X149067068Y-93778158D01*
X149179010Y-94048411D01*
X149341525Y-94291632D01*
X149473380Y-94423487D01*
X149400820Y-94445498D01*
X149290506Y-94504463D01*
X149193815Y-94583815D01*
X149114463Y-94680506D01*
X149055498Y-94790820D01*
X149019188Y-94910518D01*
X149006928Y-95035000D01*
X149010000Y-95599250D01*
X149168750Y-95758000D01*
X150368000Y-95758000D01*
X150368000Y-95738000D01*
X150622000Y-95738000D01*
X150622000Y-95758000D01*
X151821250Y-95758000D01*
X151980000Y-95599250D01*
X151983072Y-95035000D01*
X151970812Y-94910518D01*
X151934502Y-94790820D01*
X151875537Y-94680506D01*
X151796185Y-94583815D01*
X151699494Y-94504463D01*
X151589180Y-94445498D01*
X151516620Y-94423487D01*
X151648475Y-94291632D01*
X151810990Y-94048411D01*
X151922932Y-93778158D01*
X151980000Y-93491260D01*
X151980000Y-93198740D01*
X151922932Y-92911842D01*
X151810990Y-92641589D01*
X151648475Y-92398368D01*
X151441632Y-92191525D01*
X151267240Y-92075000D01*
X151441632Y-91958475D01*
X151648475Y-91751632D01*
X151810990Y-91508411D01*
X151922932Y-91238158D01*
X151980000Y-90951260D01*
X151980000Y-90658740D01*
X151953774Y-90526890D01*
X156673524Y-90526890D01*
X156718175Y-90674099D01*
X156843359Y-90936920D01*
X157017412Y-91170269D01*
X157233645Y-91365178D01*
X157483748Y-91514157D01*
X157758109Y-91611481D01*
X157988000Y-91490814D01*
X157988000Y-90297000D01*
X156794845Y-90297000D01*
X156673524Y-90526890D01*
X151953774Y-90526890D01*
X151922932Y-90371842D01*
X151810990Y-90101589D01*
X151648475Y-89858368D01*
X151441632Y-89651525D01*
X151267240Y-89535000D01*
X151441632Y-89418475D01*
X151648475Y-89211632D01*
X151810990Y-88968411D01*
X151922932Y-88698158D01*
X151980000Y-88411260D01*
X151980000Y-88118740D01*
X151922932Y-87831842D01*
X151810990Y-87561589D01*
X151648475Y-87318368D01*
X151441632Y-87111525D01*
X151267240Y-86995000D01*
X151441632Y-86878475D01*
X151648475Y-86671632D01*
X151810990Y-86428411D01*
X151922932Y-86158158D01*
X151980000Y-85871260D01*
X151980000Y-85578740D01*
X151922932Y-85291842D01*
X151810990Y-85021589D01*
X151648475Y-84778368D01*
X151516620Y-84646513D01*
X151589180Y-84624502D01*
X151699494Y-84565537D01*
X151796185Y-84486185D01*
X151875537Y-84389494D01*
X151934502Y-84279180D01*
X151970812Y-84159482D01*
X151983072Y-84035000D01*
X151980000Y-83470750D01*
X151821252Y-83312002D01*
X151980000Y-83312002D01*
X151980000Y-83204801D01*
X152635000Y-83859802D01*
X152635000Y-83921939D01*
X152674774Y-84121898D01*
X152752795Y-84310256D01*
X152866063Y-84479774D01*
X153010226Y-84623937D01*
X153179744Y-84737205D01*
X153368102Y-84815226D01*
X153568061Y-84855000D01*
X153771939Y-84855000D01*
X153971898Y-84815226D01*
X154160256Y-84737205D01*
X154329774Y-84623937D01*
X154473937Y-84479774D01*
X154587205Y-84310256D01*
X154665226Y-84121898D01*
X154705000Y-83921939D01*
X154705000Y-83718061D01*
X154665226Y-83518102D01*
X154587205Y-83329744D01*
X154473937Y-83160226D01*
X154329774Y-83016063D01*
X154160256Y-82902795D01*
X153971898Y-82824774D01*
X153771939Y-82785000D01*
X153709802Y-82785000D01*
X153160000Y-82235199D01*
X153160000Y-75212748D01*
X153323286Y-75411714D01*
X153572248Y-75616031D01*
X153856285Y-75767852D01*
X154164484Y-75861343D01*
X154485000Y-75892911D01*
X154805515Y-75861343D01*
X155113714Y-75767852D01*
X155215000Y-75713714D01*
X155215000Y-82912666D01*
X155211323Y-82949999D01*
X155225997Y-83098984D01*
X155269453Y-83242245D01*
X155340025Y-83374275D01*
X155409291Y-83458675D01*
X155434999Y-83490000D01*
X155463997Y-83513798D01*
X156626928Y-84676730D01*
X156626928Y-85940000D01*
X156639188Y-86064482D01*
X156675498Y-86184180D01*
X156734463Y-86294494D01*
X156813815Y-86391185D01*
X156910506Y-86470537D01*
X157020820Y-86529502D01*
X157093380Y-86551513D01*
X156961525Y-86683368D01*
X156799010Y-86926589D01*
X156687068Y-87196842D01*
X156630000Y-87483740D01*
X156630000Y-87776260D01*
X156687068Y-88063158D01*
X156799010Y-88333411D01*
X156961525Y-88576632D01*
X157168368Y-88783475D01*
X157350534Y-88905195D01*
X157233645Y-88974822D01*
X157017412Y-89169731D01*
X156843359Y-89403080D01*
X156718175Y-89665901D01*
X156673524Y-89813110D01*
X156794845Y-90043000D01*
X157988000Y-90043000D01*
X157988000Y-90023000D01*
X158242000Y-90023000D01*
X158242000Y-90043000D01*
X158262000Y-90043000D01*
X158262000Y-90297000D01*
X158242000Y-90297000D01*
X158242000Y-91490814D01*
X158471891Y-91611481D01*
X158580002Y-91573131D01*
X158580002Y-96301928D01*
X157265000Y-96301928D01*
X157140518Y-96314188D01*
X157020820Y-96350498D01*
X156910506Y-96409463D01*
X156813815Y-96488815D01*
X156734463Y-96585506D01*
X156675498Y-96695820D01*
X156639188Y-96815518D01*
X156626928Y-96940000D01*
X156626928Y-98640000D01*
X156639188Y-98764482D01*
X156675498Y-98884180D01*
X156734463Y-98994494D01*
X156813815Y-99091185D01*
X156910506Y-99170537D01*
X157020820Y-99229502D01*
X157101466Y-99253966D01*
X157017412Y-99329731D01*
X156843359Y-99563080D01*
X156718175Y-99825901D01*
X156673524Y-99973110D01*
X156794845Y-100203000D01*
X157988000Y-100203000D01*
X157988000Y-100183000D01*
X158242000Y-100183000D01*
X158242000Y-100203000D01*
X158262000Y-100203000D01*
X158262000Y-100457000D01*
X158242000Y-100457000D01*
X158242000Y-101650814D01*
X158471891Y-101771481D01*
X158580002Y-101733131D01*
X158580002Y-102704866D01*
X158244868Y-103040000D01*
X157944117Y-103040000D01*
X157608919Y-103106675D01*
X157293169Y-103237463D01*
X157009002Y-103427337D01*
X156767337Y-103669002D01*
X156577463Y-103953169D01*
X156446675Y-104268919D01*
X156380000Y-104604117D01*
X156380000Y-104945883D01*
X156446675Y-105281081D01*
X156577463Y-105596831D01*
X156767337Y-105880998D01*
X157009002Y-106122663D01*
X157293169Y-106312537D01*
X157608919Y-106443325D01*
X157944117Y-106510000D01*
X158285883Y-106510000D01*
X158621081Y-106443325D01*
X158936831Y-106312537D01*
X159220998Y-106122663D01*
X159462663Y-105880998D01*
X159652537Y-105596831D01*
X159783325Y-105281081D01*
X159850000Y-104945883D01*
X159850000Y-104645132D01*
X160478141Y-104016990D01*
X160521450Y-103981448D01*
X160663285Y-103808622D01*
X160768677Y-103611446D01*
X160833578Y-103397498D01*
X160840680Y-103325395D01*
X160855492Y-103175000D01*
X160850001Y-103119248D01*
X160850001Y-78028762D01*
X161109848Y-77949939D01*
X161437317Y-77774903D01*
X161724345Y-77539345D01*
X161959903Y-77252317D01*
X162134939Y-76924848D01*
X162242725Y-76569524D01*
X162279120Y-76200000D01*
X162242725Y-75830476D01*
X162134939Y-75475152D01*
X161959903Y-75147683D01*
X161724345Y-74860655D01*
X161437317Y-74625097D01*
X161109848Y-74450061D01*
X160754524Y-74342275D01*
X160477597Y-74315000D01*
X158292403Y-74315000D01*
X158015476Y-74342275D01*
X157660152Y-74450061D01*
X157332683Y-74625097D01*
X157045655Y-74860655D01*
X156810097Y-75147683D01*
X156734999Y-75288181D01*
X156734999Y-70580434D01*
X156794876Y-70580434D01*
X156825856Y-70708355D01*
X156954990Y-71002761D01*
X157139078Y-71266317D01*
X157371046Y-71488895D01*
X157641980Y-71661942D01*
X157941468Y-71778807D01*
X158258000Y-71835000D01*
X159258000Y-71835000D01*
X159258000Y-70327000D01*
X159512000Y-70327000D01*
X159512000Y-71835000D01*
X160512000Y-71835000D01*
X160828532Y-71778807D01*
X161128020Y-71661942D01*
X161398954Y-71488895D01*
X161630922Y-71266317D01*
X161815010Y-71002761D01*
X161944144Y-70708355D01*
X161975124Y-70580434D01*
X161855777Y-70327000D01*
X159512000Y-70327000D01*
X159258000Y-70327000D01*
X156914223Y-70327000D01*
X156794876Y-70580434D01*
X156734999Y-70580434D01*
X156734999Y-69819566D01*
X156794876Y-69819566D01*
X156914223Y-70073000D01*
X159258000Y-70073000D01*
X159258000Y-68565000D01*
X159512000Y-68565000D01*
X159512000Y-70073000D01*
X161855777Y-70073000D01*
X161975124Y-69819566D01*
X161944144Y-69691645D01*
X161815010Y-69397239D01*
X161630922Y-69133683D01*
X161398954Y-68911105D01*
X161128020Y-68738058D01*
X160828532Y-68621193D01*
X160512000Y-68565000D01*
X159512000Y-68565000D01*
X159258000Y-68565000D01*
X158258000Y-68565000D01*
X157941468Y-68621193D01*
X157641980Y-68738058D01*
X157371046Y-68911105D01*
X157139078Y-69133683D01*
X156954990Y-69397239D01*
X156825856Y-69691645D01*
X156794876Y-69819566D01*
X156734999Y-69819566D01*
X156734999Y-67747321D01*
X156738675Y-67709998D01*
X156734999Y-67672676D01*
X156734999Y-67672666D01*
X156724002Y-67561013D01*
X156680545Y-67417752D01*
X156610000Y-67285774D01*
X156610000Y-67208061D01*
X156586491Y-67089872D01*
X166675000Y-67089872D01*
X166675000Y-67530128D01*
X166760890Y-67961925D01*
X166929369Y-68368669D01*
X167173962Y-68734729D01*
X167485271Y-69046038D01*
X167851331Y-69290631D01*
X168258075Y-69459110D01*
X168689872Y-69545000D01*
X169130128Y-69545000D01*
X169561925Y-69459110D01*
X169968669Y-69290631D01*
X170334729Y-69046038D01*
X170646038Y-68734729D01*
X170890631Y-68368669D01*
X171059110Y-67961925D01*
X171145000Y-67530128D01*
X171145000Y-67089872D01*
X171059110Y-66658075D01*
X170890631Y-66251331D01*
X170646038Y-65885271D01*
X170334729Y-65573962D01*
X169968669Y-65329369D01*
X169561925Y-65160890D01*
X169130128Y-65075000D01*
X168689872Y-65075000D01*
X168258075Y-65160890D01*
X167851331Y-65329369D01*
X167485271Y-65573962D01*
X167173962Y-65885271D01*
X166929369Y-66251331D01*
X166760890Y-66658075D01*
X166675000Y-67089872D01*
X156586491Y-67089872D01*
X156570226Y-67008102D01*
X156492205Y-66819744D01*
X156378937Y-66650226D01*
X156234774Y-66506063D01*
X156065256Y-66392795D01*
X155876898Y-66314774D01*
X155676939Y-66275000D01*
X155473061Y-66275000D01*
X155273102Y-66314774D01*
X155084744Y-66392795D01*
X154915226Y-66506063D01*
X154771063Y-66650226D01*
X154657795Y-66819744D01*
X154579774Y-67008102D01*
X154540000Y-67208061D01*
X154540000Y-67411939D01*
X154579774Y-67611898D01*
X154657795Y-67800256D01*
X154771063Y-67969774D01*
X154915226Y-68113937D01*
X155084744Y-68227205D01*
X155214999Y-68281159D01*
X155214999Y-70786286D01*
X155113715Y-70732148D01*
X154805516Y-70638657D01*
X154485000Y-70607089D01*
X154164485Y-70638657D01*
X153856286Y-70732148D01*
X153572249Y-70883969D01*
X153323287Y-71088286D01*
X153160000Y-71287253D01*
X153160000Y-70158876D01*
X153203937Y-70114939D01*
X153317205Y-69945421D01*
X153395226Y-69757063D01*
X153435000Y-69557104D01*
X153435000Y-69353226D01*
X153395226Y-69153267D01*
X153317205Y-68964909D01*
X153203937Y-68795391D01*
X153059774Y-68651228D01*
X152890256Y-68537960D01*
X152701898Y-68459939D01*
X152501939Y-68420165D01*
X152298061Y-68420165D01*
X152098102Y-68459939D01*
X151909744Y-68537960D01*
X151836457Y-68586929D01*
X151922932Y-68378158D01*
X151980000Y-68091260D01*
X151980000Y-67798740D01*
X151922932Y-67511842D01*
X151810990Y-67241589D01*
X151648475Y-66998368D01*
X151441632Y-66791525D01*
X151267240Y-66675000D01*
X151441632Y-66558475D01*
X151648475Y-66351632D01*
X151810990Y-66108411D01*
X151922932Y-65838158D01*
X151980000Y-65551260D01*
X151980000Y-65258740D01*
X151922932Y-64971842D01*
X151810990Y-64701589D01*
X151648475Y-64458368D01*
X151441632Y-64251525D01*
X151304655Y-64160000D01*
X168877721Y-64160000D01*
X169521222Y-64223096D01*
X170109164Y-64400606D01*
X170651436Y-64688937D01*
X171127364Y-65077094D01*
X171518845Y-65550314D01*
X171810951Y-66090552D01*
X171992563Y-66677244D01*
X172060000Y-67318879D01*
X172060001Y-131412711D01*
X171996904Y-132056221D01*
X171819394Y-132644164D01*
X171531063Y-133186436D01*
X171142906Y-133662364D01*
X170669686Y-134053845D01*
X170129449Y-134345950D01*
X169542756Y-134527563D01*
X168901130Y-134595000D01*
X150238139Y-134595000D01*
X150333840Y-134543847D01*
X150487633Y-134417633D01*
X150613847Y-134263840D01*
X150707632Y-134088380D01*
X150765385Y-133897994D01*
X150784886Y-133700000D01*
X150765385Y-133502006D01*
X150707632Y-133311620D01*
X150613847Y-133136160D01*
X150487633Y-132982367D01*
X150333840Y-132856153D01*
X150158380Y-132762368D01*
X149967994Y-132704615D01*
X149819608Y-132690000D01*
X148470392Y-132690000D01*
X148322006Y-132704615D01*
X148131620Y-132762368D01*
X147956160Y-132856153D01*
X147802367Y-132982367D01*
X147676153Y-133136160D01*
X147582368Y-133311620D01*
X147524615Y-133502006D01*
X147505114Y-133700000D01*
X147524615Y-133897994D01*
X147582368Y-134088380D01*
X147676153Y-134263840D01*
X147802367Y-134417633D01*
X147956160Y-134543847D01*
X148051861Y-134595000D01*
X140238139Y-134595000D01*
X140333840Y-134543847D01*
X140487633Y-134417633D01*
X140613847Y-134263840D01*
X140707632Y-134088380D01*
X140765385Y-133897994D01*
X140784886Y-133700000D01*
X140765385Y-133502006D01*
X140707632Y-133311620D01*
X140613847Y-133136160D01*
X140487633Y-132982367D01*
X140333840Y-132856153D01*
X140158380Y-132762368D01*
X139967994Y-132704615D01*
X139819608Y-132690000D01*
X138470392Y-132690000D01*
X138322006Y-132704615D01*
X138131620Y-132762368D01*
X137956160Y-132856153D01*
X137802367Y-132982367D01*
X137676153Y-133136160D01*
X137582368Y-133311620D01*
X137524615Y-133502006D01*
X137505114Y-133700000D01*
X137524615Y-133897994D01*
X137582368Y-134088380D01*
X137676153Y-134263840D01*
X137802367Y-134417633D01*
X137956160Y-134543847D01*
X138051861Y-134595000D01*
X121317279Y-134595000D01*
X120673779Y-134531904D01*
X120085836Y-134354394D01*
X119543564Y-134066063D01*
X119067636Y-133677906D01*
X118676155Y-133204686D01*
X118384050Y-132664449D01*
X118202437Y-132077756D01*
X118135000Y-131436130D01*
X118135000Y-131224872D01*
X119050000Y-131224872D01*
X119050000Y-131665128D01*
X119135890Y-132096925D01*
X119304369Y-132503669D01*
X119548962Y-132869729D01*
X119860271Y-133181038D01*
X120226331Y-133425631D01*
X120633075Y-133594110D01*
X121064872Y-133680000D01*
X121505128Y-133680000D01*
X121936925Y-133594110D01*
X122343669Y-133425631D01*
X122709729Y-133181038D01*
X123021038Y-132869729D01*
X123265631Y-132503669D01*
X123434110Y-132096925D01*
X123520000Y-131665128D01*
X123520000Y-131224872D01*
X166675000Y-131224872D01*
X166675000Y-131665128D01*
X166760890Y-132096925D01*
X166929369Y-132503669D01*
X167173962Y-132869729D01*
X167485271Y-133181038D01*
X167851331Y-133425631D01*
X168258075Y-133594110D01*
X168689872Y-133680000D01*
X169130128Y-133680000D01*
X169561925Y-133594110D01*
X169968669Y-133425631D01*
X170334729Y-133181038D01*
X170646038Y-132869729D01*
X170890631Y-132503669D01*
X171059110Y-132096925D01*
X171145000Y-131665128D01*
X171145000Y-131224872D01*
X171059110Y-130793075D01*
X170890631Y-130386331D01*
X170646038Y-130020271D01*
X170334729Y-129708962D01*
X169968669Y-129464369D01*
X169561925Y-129295890D01*
X169130128Y-129210000D01*
X168689872Y-129210000D01*
X168258075Y-129295890D01*
X167851331Y-129464369D01*
X167485271Y-129708962D01*
X167173962Y-130020271D01*
X166929369Y-130386331D01*
X166760890Y-130793075D01*
X166675000Y-131224872D01*
X123520000Y-131224872D01*
X123434110Y-130793075D01*
X123265631Y-130386331D01*
X123021038Y-130020271D01*
X122709729Y-129708962D01*
X122343669Y-129464369D01*
X121936925Y-129295890D01*
X121505128Y-129210000D01*
X121064872Y-129210000D01*
X120633075Y-129295890D01*
X120226331Y-129464369D01*
X119860271Y-129708962D01*
X119548962Y-130020271D01*
X119304369Y-130386331D01*
X119135890Y-130793075D01*
X119050000Y-131224872D01*
X118135000Y-131224872D01*
X118135000Y-115919039D01*
X119258096Y-115919039D01*
X119298754Y-116053087D01*
X119418963Y-116307420D01*
X119586481Y-116533414D01*
X119794869Y-116722385D01*
X120036119Y-116867070D01*
X120300960Y-116961909D01*
X120523000Y-116840624D01*
X120523000Y-115697000D01*
X120777000Y-115697000D01*
X120777000Y-116840624D01*
X120999040Y-116961909D01*
X121263881Y-116867070D01*
X121505131Y-116722385D01*
X121713519Y-116533414D01*
X121881037Y-116307420D01*
X122001246Y-116053087D01*
X122041904Y-115919039D01*
X126878096Y-115919039D01*
X126918754Y-116053087D01*
X127038963Y-116307420D01*
X127206481Y-116533414D01*
X127414869Y-116722385D01*
X127656119Y-116867070D01*
X127920960Y-116961909D01*
X128143000Y-116840624D01*
X128143000Y-115697000D01*
X128397000Y-115697000D01*
X128397000Y-116840624D01*
X128619040Y-116961909D01*
X128883881Y-116867070D01*
X129125131Y-116722385D01*
X129333519Y-116533414D01*
X129501037Y-116307420D01*
X129621246Y-116053087D01*
X129661904Y-115919039D01*
X129539915Y-115697000D01*
X128397000Y-115697000D01*
X128143000Y-115697000D01*
X127000085Y-115697000D01*
X126878096Y-115919039D01*
X122041904Y-115919039D01*
X121919915Y-115697000D01*
X120777000Y-115697000D01*
X120523000Y-115697000D01*
X119380085Y-115697000D01*
X119258096Y-115919039D01*
X118135000Y-115919039D01*
X118135000Y-113379039D01*
X119258096Y-113379039D01*
X119298754Y-113513087D01*
X119418963Y-113767420D01*
X119586481Y-113993414D01*
X119794869Y-114182385D01*
X119990982Y-114300000D01*
X119794869Y-114417615D01*
X119586481Y-114606586D01*
X119418963Y-114832580D01*
X119298754Y-115086913D01*
X119258096Y-115220961D01*
X119380085Y-115443000D01*
X120523000Y-115443000D01*
X120523000Y-113157000D01*
X120777000Y-113157000D01*
X120777000Y-115443000D01*
X121919915Y-115443000D01*
X122041904Y-115220961D01*
X122001246Y-115086913D01*
X121881037Y-114832580D01*
X121713519Y-114606586D01*
X121505131Y-114417615D01*
X121309018Y-114300000D01*
X121505131Y-114182385D01*
X121713519Y-113993414D01*
X121881037Y-113767420D01*
X122001246Y-113513087D01*
X122041904Y-113379039D01*
X121919915Y-113157000D01*
X120777000Y-113157000D01*
X120523000Y-113157000D01*
X119380085Y-113157000D01*
X119258096Y-113379039D01*
X118135000Y-113379039D01*
X118135000Y-110839039D01*
X119258096Y-110839039D01*
X119298754Y-110973087D01*
X119418963Y-111227420D01*
X119586481Y-111453414D01*
X119794869Y-111642385D01*
X119990982Y-111760000D01*
X119794869Y-111877615D01*
X119586481Y-112066586D01*
X119418963Y-112292580D01*
X119298754Y-112546913D01*
X119258096Y-112680961D01*
X119380085Y-112903000D01*
X120523000Y-112903000D01*
X120523000Y-110617000D01*
X120777000Y-110617000D01*
X120777000Y-112903000D01*
X121919915Y-112903000D01*
X122041904Y-112680961D01*
X122001246Y-112546913D01*
X121881037Y-112292580D01*
X121713519Y-112066586D01*
X121505131Y-111877615D01*
X121309018Y-111760000D01*
X121505131Y-111642385D01*
X121713519Y-111453414D01*
X121881037Y-111227420D01*
X122001246Y-110973087D01*
X122041904Y-110839039D01*
X121919915Y-110617000D01*
X120777000Y-110617000D01*
X120523000Y-110617000D01*
X119380085Y-110617000D01*
X119258096Y-110839039D01*
X118135000Y-110839039D01*
X118135000Y-99409039D01*
X119258096Y-99409039D01*
X119298754Y-99543087D01*
X119418963Y-99797420D01*
X119586481Y-100023414D01*
X119794869Y-100212385D01*
X120036119Y-100357070D01*
X120300960Y-100451909D01*
X120523000Y-100330624D01*
X120523000Y-99187000D01*
X119380085Y-99187000D01*
X119258096Y-99409039D01*
X118135000Y-99409039D01*
X118135000Y-77000000D01*
X119211928Y-77000000D01*
X119224188Y-77124482D01*
X119260498Y-77244180D01*
X119319463Y-77354494D01*
X119398815Y-77451185D01*
X119495506Y-77530537D01*
X119605820Y-77589502D01*
X119725518Y-77625812D01*
X119733961Y-77626643D01*
X119535363Y-77825241D01*
X119378320Y-78060273D01*
X119270147Y-78321426D01*
X119215000Y-78598665D01*
X119215000Y-78881335D01*
X119270147Y-79158574D01*
X119378320Y-79419727D01*
X119535363Y-79654759D01*
X119735241Y-79854637D01*
X119967759Y-80010000D01*
X119735241Y-80165363D01*
X119535363Y-80365241D01*
X119378320Y-80600273D01*
X119270147Y-80861426D01*
X119215000Y-81138665D01*
X119215000Y-81421335D01*
X119270147Y-81698574D01*
X119378320Y-81959727D01*
X119535363Y-82194759D01*
X119735241Y-82394637D01*
X119967759Y-82550000D01*
X119735241Y-82705363D01*
X119535363Y-82905241D01*
X119378320Y-83140273D01*
X119270147Y-83401426D01*
X119215000Y-83678665D01*
X119215000Y-83961335D01*
X119270147Y-84238574D01*
X119378320Y-84499727D01*
X119535363Y-84734759D01*
X119735241Y-84934637D01*
X119967759Y-85090000D01*
X119735241Y-85245363D01*
X119535363Y-85445241D01*
X119378320Y-85680273D01*
X119270147Y-85941426D01*
X119215000Y-86218665D01*
X119215000Y-86501335D01*
X119270147Y-86778574D01*
X119378320Y-87039727D01*
X119535363Y-87274759D01*
X119735241Y-87474637D01*
X119967759Y-87630000D01*
X119735241Y-87785363D01*
X119535363Y-87985241D01*
X119378320Y-88220273D01*
X119270147Y-88481426D01*
X119215000Y-88758665D01*
X119215000Y-89041335D01*
X119270147Y-89318574D01*
X119378320Y-89579727D01*
X119535363Y-89814759D01*
X119735241Y-90014637D01*
X119967759Y-90170000D01*
X119735241Y-90325363D01*
X119535363Y-90525241D01*
X119378320Y-90760273D01*
X119270147Y-91021426D01*
X119215000Y-91298665D01*
X119215000Y-91581335D01*
X119270147Y-91858574D01*
X119378320Y-92119727D01*
X119535363Y-92354759D01*
X119735241Y-92554637D01*
X119967759Y-92710000D01*
X119735241Y-92865363D01*
X119535363Y-93065241D01*
X119378320Y-93300273D01*
X119270147Y-93561426D01*
X119215000Y-93838665D01*
X119215000Y-94121335D01*
X119270147Y-94398574D01*
X119378320Y-94659727D01*
X119535363Y-94894759D01*
X119735241Y-95094637D01*
X119967759Y-95250000D01*
X119735241Y-95405363D01*
X119535363Y-95605241D01*
X119378320Y-95840273D01*
X119270147Y-96101426D01*
X119215000Y-96378665D01*
X119215000Y-96661335D01*
X119270147Y-96938574D01*
X119378320Y-97199727D01*
X119535363Y-97434759D01*
X119735241Y-97634637D01*
X119970273Y-97791680D01*
X119980865Y-97796067D01*
X119794869Y-97907615D01*
X119586481Y-98096586D01*
X119418963Y-98322580D01*
X119298754Y-98576913D01*
X119258096Y-98710961D01*
X119380085Y-98933000D01*
X120523000Y-98933000D01*
X120523000Y-98913000D01*
X120777000Y-98913000D01*
X120777000Y-98933000D01*
X120797000Y-98933000D01*
X120797000Y-99187000D01*
X120777000Y-99187000D01*
X120777000Y-100330624D01*
X120999040Y-100451909D01*
X121015001Y-100446193D01*
X121015001Y-106510197D01*
X121013270Y-106511928D01*
X119850000Y-106511928D01*
X119725518Y-106524188D01*
X119605820Y-106560498D01*
X119495506Y-106619463D01*
X119398815Y-106698815D01*
X119319463Y-106795506D01*
X119260498Y-106905820D01*
X119224188Y-107025518D01*
X119211928Y-107150000D01*
X119211928Y-108750000D01*
X119224188Y-108874482D01*
X119260498Y-108994180D01*
X119319463Y-109104494D01*
X119398815Y-109201185D01*
X119495506Y-109280537D01*
X119605820Y-109339502D01*
X119725518Y-109375812D01*
X119750080Y-109378231D01*
X119586481Y-109526586D01*
X119418963Y-109752580D01*
X119298754Y-110006913D01*
X119258096Y-110140961D01*
X119380085Y-110363000D01*
X120523000Y-110363000D01*
X120523000Y-110343000D01*
X120777000Y-110343000D01*
X120777000Y-110363000D01*
X121919915Y-110363000D01*
X122041904Y-110140961D01*
X122001246Y-110006913D01*
X121881037Y-109752580D01*
X121713519Y-109526586D01*
X121549920Y-109378231D01*
X121574482Y-109375812D01*
X121694180Y-109339502D01*
X121804494Y-109280537D01*
X121901185Y-109201185D01*
X121980537Y-109104494D01*
X122039502Y-108994180D01*
X122075812Y-108874482D01*
X122088072Y-108750000D01*
X122088072Y-107586730D01*
X122286005Y-107388797D01*
X122315002Y-107365000D01*
X122409975Y-107249275D01*
X122480547Y-107117246D01*
X122524004Y-106973985D01*
X122535001Y-106862332D01*
X122535001Y-106862324D01*
X122538677Y-106824999D01*
X122535001Y-106787674D01*
X122535001Y-104744754D01*
X122783996Y-104862571D01*
X123058184Y-104931300D01*
X123340512Y-104945217D01*
X123620130Y-104903787D01*
X123886292Y-104808603D01*
X124011514Y-104741671D01*
X124083097Y-104497702D01*
X123270000Y-103684605D01*
X123255858Y-103698748D01*
X123076253Y-103519143D01*
X123090395Y-103505000D01*
X123449605Y-103505000D01*
X124262702Y-104318097D01*
X124506671Y-104246514D01*
X124627571Y-103991004D01*
X124696300Y-103716816D01*
X124710217Y-103434488D01*
X124668787Y-103154870D01*
X124573603Y-102888708D01*
X124506671Y-102763486D01*
X124262702Y-102691903D01*
X123449605Y-103505000D01*
X123090395Y-103505000D01*
X123076253Y-103490858D01*
X123255858Y-103311253D01*
X123270000Y-103325395D01*
X124083097Y-102512298D01*
X124011514Y-102268329D01*
X123756004Y-102147429D01*
X123481816Y-102078700D01*
X123199488Y-102064783D01*
X122919870Y-102106213D01*
X122653708Y-102201397D01*
X122535001Y-102264847D01*
X122535001Y-99409039D01*
X126878096Y-99409039D01*
X126918754Y-99543087D01*
X127038963Y-99797420D01*
X127206481Y-100023414D01*
X127414869Y-100212385D01*
X127656119Y-100357070D01*
X127920960Y-100451909D01*
X128143000Y-100330624D01*
X128143000Y-99187000D01*
X128397000Y-99187000D01*
X128397000Y-100330624D01*
X128619040Y-100451909D01*
X128883881Y-100357070D01*
X129125131Y-100212385D01*
X129333519Y-100023414D01*
X129501037Y-99797420D01*
X129621246Y-99543087D01*
X129661904Y-99409039D01*
X129539915Y-99187000D01*
X128397000Y-99187000D01*
X128143000Y-99187000D01*
X127000085Y-99187000D01*
X126878096Y-99409039D01*
X122535001Y-99409039D01*
X122535001Y-96869039D01*
X126878096Y-96869039D01*
X126918754Y-97003087D01*
X127038963Y-97257420D01*
X127206481Y-97483414D01*
X127414869Y-97672385D01*
X127610982Y-97790000D01*
X127414869Y-97907615D01*
X127206481Y-98096586D01*
X127038963Y-98322580D01*
X126918754Y-98576913D01*
X126878096Y-98710961D01*
X127000085Y-98933000D01*
X128143000Y-98933000D01*
X128143000Y-96647000D01*
X128397000Y-96647000D01*
X128397000Y-98933000D01*
X129539915Y-98933000D01*
X129661904Y-98710961D01*
X129621246Y-98576913D01*
X129501037Y-98322580D01*
X129333519Y-98096586D01*
X129125131Y-97907615D01*
X128929018Y-97790000D01*
X129125131Y-97672385D01*
X129333519Y-97483414D01*
X129501037Y-97257420D01*
X129621246Y-97003087D01*
X129661904Y-96869039D01*
X129539915Y-96647000D01*
X128397000Y-96647000D01*
X128143000Y-96647000D01*
X127000085Y-96647000D01*
X126878096Y-96869039D01*
X122535001Y-96869039D01*
X122535001Y-94329039D01*
X126878096Y-94329039D01*
X126918754Y-94463087D01*
X127038963Y-94717420D01*
X127206481Y-94943414D01*
X127414869Y-95132385D01*
X127610982Y-95250000D01*
X127414869Y-95367615D01*
X127206481Y-95556586D01*
X127038963Y-95782580D01*
X126918754Y-96036913D01*
X126878096Y-96170961D01*
X127000085Y-96393000D01*
X128143000Y-96393000D01*
X128143000Y-94107000D01*
X128397000Y-94107000D01*
X128397000Y-96393000D01*
X129539915Y-96393000D01*
X129661904Y-96170961D01*
X129621246Y-96036913D01*
X129501037Y-95782580D01*
X129333519Y-95556586D01*
X129125131Y-95367615D01*
X128929018Y-95250000D01*
X129125131Y-95132385D01*
X129333519Y-94943414D01*
X129501037Y-94717420D01*
X129621246Y-94463087D01*
X129661904Y-94329039D01*
X129539915Y-94107000D01*
X128397000Y-94107000D01*
X128143000Y-94107000D01*
X127000085Y-94107000D01*
X126878096Y-94329039D01*
X122535001Y-94329039D01*
X122535001Y-91789039D01*
X126878096Y-91789039D01*
X126918754Y-91923087D01*
X127038963Y-92177420D01*
X127206481Y-92403414D01*
X127414869Y-92592385D01*
X127610982Y-92710000D01*
X127414869Y-92827615D01*
X127206481Y-93016586D01*
X127038963Y-93242580D01*
X126918754Y-93496913D01*
X126878096Y-93630961D01*
X127000085Y-93853000D01*
X128143000Y-93853000D01*
X128143000Y-91567000D01*
X128397000Y-91567000D01*
X128397000Y-93853000D01*
X129539915Y-93853000D01*
X129661904Y-93630961D01*
X129621246Y-93496913D01*
X129501037Y-93242580D01*
X129333519Y-93016586D01*
X129125131Y-92827615D01*
X128929018Y-92710000D01*
X129125131Y-92592385D01*
X129333519Y-92403414D01*
X129501037Y-92177420D01*
X129621246Y-91923087D01*
X129661904Y-91789039D01*
X129539915Y-91567000D01*
X128397000Y-91567000D01*
X128143000Y-91567000D01*
X127000085Y-91567000D01*
X126878096Y-91789039D01*
X122535001Y-91789039D01*
X122535001Y-89249039D01*
X126878096Y-89249039D01*
X126918754Y-89383087D01*
X127038963Y-89637420D01*
X127206481Y-89863414D01*
X127414869Y-90052385D01*
X127610982Y-90170000D01*
X127414869Y-90287615D01*
X127206481Y-90476586D01*
X127038963Y-90702580D01*
X126918754Y-90956913D01*
X126878096Y-91090961D01*
X127000085Y-91313000D01*
X128143000Y-91313000D01*
X128143000Y-89027000D01*
X128397000Y-89027000D01*
X128397000Y-91313000D01*
X129539915Y-91313000D01*
X129661904Y-91090961D01*
X129621246Y-90956913D01*
X129501037Y-90702580D01*
X129333519Y-90476586D01*
X129125131Y-90287615D01*
X128929018Y-90170000D01*
X129125131Y-90052385D01*
X129333519Y-89863414D01*
X129501037Y-89637420D01*
X129621246Y-89383087D01*
X129661904Y-89249039D01*
X129539915Y-89027000D01*
X128397000Y-89027000D01*
X128143000Y-89027000D01*
X127000085Y-89027000D01*
X126878096Y-89249039D01*
X122535001Y-89249039D01*
X122535001Y-86709039D01*
X126878096Y-86709039D01*
X126918754Y-86843087D01*
X127038963Y-87097420D01*
X127206481Y-87323414D01*
X127414869Y-87512385D01*
X127610982Y-87630000D01*
X127414869Y-87747615D01*
X127206481Y-87936586D01*
X127038963Y-88162580D01*
X126918754Y-88416913D01*
X126878096Y-88550961D01*
X127000085Y-88773000D01*
X128143000Y-88773000D01*
X128143000Y-86487000D01*
X128397000Y-86487000D01*
X128397000Y-88773000D01*
X129539915Y-88773000D01*
X129661904Y-88550961D01*
X129621246Y-88416913D01*
X129501037Y-88162580D01*
X129333519Y-87936586D01*
X129125131Y-87747615D01*
X128929018Y-87630000D01*
X129125131Y-87512385D01*
X129333519Y-87323414D01*
X129501037Y-87097420D01*
X129621246Y-86843087D01*
X129661904Y-86709039D01*
X129539915Y-86487000D01*
X128397000Y-86487000D01*
X128143000Y-86487000D01*
X127000085Y-86487000D01*
X126878096Y-86709039D01*
X122535001Y-86709039D01*
X122535001Y-84169039D01*
X126878096Y-84169039D01*
X126918754Y-84303087D01*
X127038963Y-84557420D01*
X127206481Y-84783414D01*
X127414869Y-84972385D01*
X127610982Y-85090000D01*
X127414869Y-85207615D01*
X127206481Y-85396586D01*
X127038963Y-85622580D01*
X126918754Y-85876913D01*
X126878096Y-86010961D01*
X127000085Y-86233000D01*
X128143000Y-86233000D01*
X128143000Y-83947000D01*
X128397000Y-83947000D01*
X128397000Y-86233000D01*
X129539915Y-86233000D01*
X129661904Y-86010961D01*
X129621246Y-85876913D01*
X129501037Y-85622580D01*
X129333519Y-85396586D01*
X129125131Y-85207615D01*
X128929018Y-85090000D01*
X129125131Y-84972385D01*
X129333519Y-84783414D01*
X129501037Y-84557420D01*
X129621246Y-84303087D01*
X129661904Y-84169039D01*
X129588263Y-84035000D01*
X131226928Y-84035000D01*
X131239188Y-84159482D01*
X131275498Y-84279180D01*
X131334463Y-84389494D01*
X131413815Y-84486185D01*
X131510506Y-84565537D01*
X131620820Y-84624502D01*
X131693380Y-84646513D01*
X131561525Y-84778368D01*
X131399010Y-85021589D01*
X131287068Y-85291842D01*
X131230000Y-85578740D01*
X131230000Y-85871260D01*
X131287068Y-86158158D01*
X131399010Y-86428411D01*
X131561525Y-86671632D01*
X131768368Y-86878475D01*
X131942760Y-86995000D01*
X131768368Y-87111525D01*
X131561525Y-87318368D01*
X131399010Y-87561589D01*
X131287068Y-87831842D01*
X131230000Y-88118740D01*
X131230000Y-88411260D01*
X131287068Y-88698158D01*
X131399010Y-88968411D01*
X131561525Y-89211632D01*
X131768368Y-89418475D01*
X131942760Y-89535000D01*
X131768368Y-89651525D01*
X131561525Y-89858368D01*
X131399010Y-90101589D01*
X131287068Y-90371842D01*
X131230000Y-90658740D01*
X131230000Y-90951260D01*
X131287068Y-91238158D01*
X131399010Y-91508411D01*
X131561525Y-91751632D01*
X131768368Y-91958475D01*
X131942760Y-92075000D01*
X131768368Y-92191525D01*
X131561525Y-92398368D01*
X131399010Y-92641589D01*
X131287068Y-92911842D01*
X131230000Y-93198740D01*
X131230000Y-93491260D01*
X131287068Y-93778158D01*
X131399010Y-94048411D01*
X131561525Y-94291632D01*
X131693380Y-94423487D01*
X131620820Y-94445498D01*
X131510506Y-94504463D01*
X131413815Y-94583815D01*
X131334463Y-94680506D01*
X131275498Y-94790820D01*
X131239188Y-94910518D01*
X131226928Y-95035000D01*
X131230000Y-95599250D01*
X131388750Y-95758000D01*
X132588000Y-95758000D01*
X132588000Y-95738000D01*
X132842000Y-95738000D01*
X132842000Y-95758000D01*
X134041250Y-95758000D01*
X134200000Y-95599250D01*
X134203072Y-95035000D01*
X134190812Y-94910518D01*
X134154502Y-94790820D01*
X134095537Y-94680506D01*
X134016185Y-94583815D01*
X133919494Y-94504463D01*
X133809180Y-94445498D01*
X133736620Y-94423487D01*
X133868475Y-94291632D01*
X134030990Y-94048411D01*
X134142932Y-93778158D01*
X134200000Y-93491260D01*
X134200000Y-93198740D01*
X134142932Y-92911842D01*
X134030990Y-92641589D01*
X133868475Y-92398368D01*
X133661632Y-92191525D01*
X133487240Y-92075000D01*
X133661632Y-91958475D01*
X133868475Y-91751632D01*
X134030990Y-91508411D01*
X134142932Y-91238158D01*
X134200000Y-90951260D01*
X134200000Y-90658740D01*
X134142932Y-90371842D01*
X134030990Y-90101589D01*
X133868475Y-89858368D01*
X133661632Y-89651525D01*
X133487240Y-89535000D01*
X133661632Y-89418475D01*
X133868475Y-89211632D01*
X134030990Y-88968411D01*
X134142932Y-88698158D01*
X134200000Y-88411260D01*
X134200000Y-88118740D01*
X134142932Y-87831842D01*
X134030990Y-87561589D01*
X133868475Y-87318368D01*
X133661632Y-87111525D01*
X133487240Y-86995000D01*
X133661632Y-86878475D01*
X133868475Y-86671632D01*
X134030990Y-86428411D01*
X134142932Y-86158158D01*
X134200000Y-85871260D01*
X134200000Y-85578740D01*
X134142932Y-85291842D01*
X134030990Y-85021589D01*
X133868475Y-84778368D01*
X133736620Y-84646513D01*
X133809180Y-84624502D01*
X133919494Y-84565537D01*
X134016185Y-84486185D01*
X134095537Y-84389494D01*
X134154502Y-84279180D01*
X134190812Y-84159482D01*
X134203072Y-84035000D01*
X134200000Y-83470750D01*
X134041250Y-83312000D01*
X132842000Y-83312000D01*
X132842000Y-83332000D01*
X132588000Y-83332000D01*
X132588000Y-83312000D01*
X131388750Y-83312000D01*
X131230000Y-83470750D01*
X131226928Y-84035000D01*
X129588263Y-84035000D01*
X129539915Y-83947000D01*
X128397000Y-83947000D01*
X128143000Y-83947000D01*
X127000085Y-83947000D01*
X126878096Y-84169039D01*
X122535001Y-84169039D01*
X122535001Y-83009800D01*
X122594801Y-82950000D01*
X122656939Y-82950000D01*
X122856898Y-82910226D01*
X123045256Y-82832205D01*
X123214774Y-82718937D01*
X123358937Y-82574774D01*
X123472205Y-82405256D01*
X123550226Y-82216898D01*
X123590000Y-82016939D01*
X123590000Y-81813061D01*
X123550226Y-81613102D01*
X123472205Y-81424744D01*
X123358937Y-81255226D01*
X123242376Y-81138665D01*
X126835000Y-81138665D01*
X126835000Y-81421335D01*
X126890147Y-81698574D01*
X126998320Y-81959727D01*
X127155363Y-82194759D01*
X127355241Y-82394637D01*
X127590273Y-82551680D01*
X127600865Y-82556067D01*
X127414869Y-82667615D01*
X127206481Y-82856586D01*
X127038963Y-83082580D01*
X126918754Y-83336913D01*
X126878096Y-83470961D01*
X127000085Y-83693000D01*
X128143000Y-83693000D01*
X128143000Y-83673000D01*
X128397000Y-83673000D01*
X128397000Y-83693000D01*
X129539915Y-83693000D01*
X129661904Y-83470961D01*
X129621246Y-83336913D01*
X129501037Y-83082580D01*
X129333519Y-82856586D01*
X129125131Y-82667615D01*
X128939135Y-82556067D01*
X128949727Y-82551680D01*
X129184759Y-82394637D01*
X129384637Y-82194759D01*
X129541680Y-81959727D01*
X129649853Y-81698574D01*
X129705000Y-81421335D01*
X129705000Y-81138665D01*
X129649853Y-80861426D01*
X129541680Y-80600273D01*
X129384637Y-80365241D01*
X129184759Y-80165363D01*
X128949727Y-80008320D01*
X128939135Y-80003933D01*
X129125131Y-79892385D01*
X129333519Y-79703414D01*
X129501037Y-79477420D01*
X129621246Y-79223087D01*
X129661904Y-79089039D01*
X129539915Y-78867000D01*
X128397000Y-78867000D01*
X128397000Y-78887000D01*
X128143000Y-78887000D01*
X128143000Y-78867000D01*
X127000085Y-78867000D01*
X126878096Y-79089039D01*
X126918754Y-79223087D01*
X127038963Y-79477420D01*
X127206481Y-79703414D01*
X127414869Y-79892385D01*
X127600865Y-80003933D01*
X127590273Y-80008320D01*
X127355241Y-80165363D01*
X127155363Y-80365241D01*
X126998320Y-80600273D01*
X126890147Y-80861426D01*
X126835000Y-81138665D01*
X123242376Y-81138665D01*
X123214774Y-81111063D01*
X123045256Y-80997795D01*
X122856898Y-80919774D01*
X122656939Y-80880000D01*
X122453061Y-80880000D01*
X122253102Y-80919774D01*
X122064744Y-80997795D01*
X122057890Y-81002375D01*
X122029853Y-80861426D01*
X121921680Y-80600273D01*
X121764637Y-80365241D01*
X121564759Y-80165363D01*
X121332241Y-80010000D01*
X121564759Y-79854637D01*
X121764637Y-79654759D01*
X121921680Y-79419727D01*
X122029853Y-79158574D01*
X122085000Y-78881335D01*
X122085000Y-78598665D01*
X122029853Y-78321426D01*
X121921680Y-78060273D01*
X121764637Y-77825241D01*
X121566039Y-77626643D01*
X121574482Y-77625812D01*
X121694180Y-77589502D01*
X121804494Y-77530537D01*
X121901185Y-77451185D01*
X121980537Y-77354494D01*
X122039502Y-77244180D01*
X122075812Y-77124482D01*
X122088072Y-77000000D01*
X122085000Y-76485750D01*
X121926250Y-76327000D01*
X120777000Y-76327000D01*
X120777000Y-76347000D01*
X120523000Y-76347000D01*
X120523000Y-76327000D01*
X119373750Y-76327000D01*
X119215000Y-76485750D01*
X119211928Y-77000000D01*
X118135000Y-77000000D01*
X118135000Y-75400000D01*
X119211928Y-75400000D01*
X119215000Y-75914250D01*
X119373750Y-76073000D01*
X120523000Y-76073000D01*
X120523000Y-74923750D01*
X120777000Y-74923750D01*
X120777000Y-76073000D01*
X121926250Y-76073000D01*
X122085000Y-75914250D01*
X122088072Y-75400000D01*
X122075812Y-75275518D01*
X122039502Y-75155820D01*
X121980537Y-75045506D01*
X121901185Y-74948815D01*
X121804494Y-74869463D01*
X121694180Y-74810498D01*
X121574482Y-74774188D01*
X121450000Y-74761928D01*
X120935750Y-74765000D01*
X120777000Y-74923750D01*
X120523000Y-74923750D01*
X120364250Y-74765000D01*
X119850000Y-74761928D01*
X119725518Y-74774188D01*
X119605820Y-74810498D01*
X119495506Y-74869463D01*
X119398815Y-74948815D01*
X119319463Y-75045506D01*
X119260498Y-75155820D01*
X119224188Y-75275518D01*
X119211928Y-75400000D01*
X118135000Y-75400000D01*
X118135000Y-72248665D01*
X126200000Y-72248665D01*
X126200000Y-72531335D01*
X126255147Y-72808574D01*
X126363320Y-73069727D01*
X126520363Y-73304759D01*
X126720241Y-73504637D01*
X126955273Y-73661680D01*
X127216426Y-73769853D01*
X127460000Y-73818304D01*
X127460001Y-75015365D01*
X127355241Y-75085363D01*
X127155363Y-75285241D01*
X126998320Y-75520273D01*
X126890147Y-75781426D01*
X126835000Y-76058665D01*
X126835000Y-76341335D01*
X126890147Y-76618574D01*
X126998320Y-76879727D01*
X127155363Y-77114759D01*
X127355241Y-77314637D01*
X127590273Y-77471680D01*
X127600865Y-77476067D01*
X127414869Y-77587615D01*
X127206481Y-77776586D01*
X127038963Y-78002580D01*
X126918754Y-78256913D01*
X126878096Y-78390961D01*
X127000085Y-78613000D01*
X128143000Y-78613000D01*
X128143000Y-78593000D01*
X128397000Y-78593000D01*
X128397000Y-78613000D01*
X129539915Y-78613000D01*
X129661904Y-78390961D01*
X129621246Y-78256913D01*
X129501037Y-78002580D01*
X129333519Y-77776586D01*
X129125131Y-77587615D01*
X128939135Y-77476067D01*
X128949727Y-77471680D01*
X129184759Y-77314637D01*
X129384637Y-77114759D01*
X129541680Y-76879727D01*
X129649853Y-76618574D01*
X129705000Y-76341335D01*
X129705000Y-76058665D01*
X129649853Y-75781426D01*
X129541680Y-75520273D01*
X129384637Y-75285241D01*
X129184759Y-75085363D01*
X129080000Y-75015365D01*
X129080000Y-72350209D01*
X129070000Y-72248676D01*
X129070000Y-72248665D01*
X129069998Y-72248654D01*
X129068280Y-72231212D01*
X129063192Y-72214439D01*
X129014853Y-71971426D01*
X128906680Y-71710273D01*
X128749637Y-71475241D01*
X128609396Y-71335000D01*
X131226928Y-71335000D01*
X131239188Y-71459482D01*
X131275498Y-71579180D01*
X131334463Y-71689494D01*
X131413815Y-71786185D01*
X131510506Y-71865537D01*
X131620820Y-71924502D01*
X131693380Y-71946513D01*
X131561525Y-72078368D01*
X131399010Y-72321589D01*
X131287068Y-72591842D01*
X131230000Y-72878740D01*
X131230000Y-73171260D01*
X131287068Y-73458158D01*
X131399010Y-73728411D01*
X131561525Y-73971632D01*
X131768368Y-74178475D01*
X131942760Y-74295000D01*
X131768368Y-74411525D01*
X131561525Y-74618368D01*
X131399010Y-74861589D01*
X131287068Y-75131842D01*
X131230000Y-75418740D01*
X131230000Y-75711260D01*
X131287068Y-75998158D01*
X131399010Y-76268411D01*
X131561525Y-76511632D01*
X131768368Y-76718475D01*
X131942760Y-76835000D01*
X131768368Y-76951525D01*
X131561525Y-77158368D01*
X131399010Y-77401589D01*
X131287068Y-77671842D01*
X131230000Y-77958740D01*
X131230000Y-78251260D01*
X131287068Y-78538158D01*
X131399010Y-78808411D01*
X131561525Y-79051632D01*
X131768368Y-79258475D01*
X131942760Y-79375000D01*
X131768368Y-79491525D01*
X131561525Y-79698368D01*
X131399010Y-79941589D01*
X131287068Y-80211842D01*
X131230000Y-80498740D01*
X131230000Y-80791260D01*
X131287068Y-81078158D01*
X131399010Y-81348411D01*
X131561525Y-81591632D01*
X131693380Y-81723487D01*
X131620820Y-81745498D01*
X131510506Y-81804463D01*
X131413815Y-81883815D01*
X131334463Y-81980506D01*
X131275498Y-82090820D01*
X131239188Y-82210518D01*
X131226928Y-82335000D01*
X131230000Y-82899250D01*
X131388750Y-83058000D01*
X132588000Y-83058000D01*
X132588000Y-83038000D01*
X132842000Y-83038000D01*
X132842000Y-83058000D01*
X134041250Y-83058000D01*
X134200000Y-82899250D01*
X134203072Y-82335000D01*
X134190812Y-82210518D01*
X134154502Y-82090820D01*
X134095537Y-81980506D01*
X134016185Y-81883815D01*
X133919494Y-81804463D01*
X133809180Y-81745498D01*
X133736620Y-81723487D01*
X133868475Y-81591632D01*
X134030990Y-81348411D01*
X134142932Y-81078158D01*
X134200000Y-80791260D01*
X134200000Y-80498740D01*
X134142932Y-80211842D01*
X134030990Y-79941589D01*
X133868475Y-79698368D01*
X133661632Y-79491525D01*
X133487240Y-79375000D01*
X133661632Y-79258475D01*
X133868475Y-79051632D01*
X134030990Y-78808411D01*
X134142932Y-78538158D01*
X134200000Y-78251260D01*
X134200000Y-77958740D01*
X134142932Y-77671842D01*
X134030990Y-77401589D01*
X133868475Y-77158368D01*
X133661632Y-76951525D01*
X133487240Y-76835000D01*
X133661632Y-76718475D01*
X133868475Y-76511632D01*
X134030990Y-76268411D01*
X134142932Y-75998158D01*
X134200000Y-75711260D01*
X134200000Y-75418740D01*
X134142932Y-75131842D01*
X134030990Y-74861589D01*
X133868475Y-74618368D01*
X133661632Y-74411525D01*
X133487240Y-74295000D01*
X133661632Y-74178475D01*
X133868475Y-73971632D01*
X134030990Y-73728411D01*
X134142932Y-73458158D01*
X134200000Y-73171260D01*
X134200000Y-72878740D01*
X134142932Y-72591842D01*
X134030990Y-72321589D01*
X133868475Y-72078368D01*
X133736620Y-71946513D01*
X133809180Y-71924502D01*
X133919494Y-71865537D01*
X134016185Y-71786185D01*
X134095537Y-71689494D01*
X134154502Y-71579180D01*
X134190812Y-71459482D01*
X134203072Y-71335000D01*
X134200000Y-70770750D01*
X134041250Y-70612000D01*
X132842000Y-70612000D01*
X132842000Y-70632000D01*
X132588000Y-70632000D01*
X132588000Y-70612000D01*
X131388750Y-70612000D01*
X131230000Y-70770750D01*
X131226928Y-71335000D01*
X128609396Y-71335000D01*
X128549759Y-71275363D01*
X128314727Y-71118320D01*
X128053574Y-71010147D01*
X127776335Y-70955000D01*
X127493665Y-70955000D01*
X127216426Y-71010147D01*
X126955273Y-71118320D01*
X126720241Y-71275363D01*
X126520363Y-71475241D01*
X126363320Y-71710273D01*
X126255147Y-71971426D01*
X126200000Y-72248665D01*
X118135000Y-72248665D01*
X118135000Y-67342279D01*
X118159748Y-67089872D01*
X119050000Y-67089872D01*
X119050000Y-67530128D01*
X119135890Y-67961925D01*
X119304369Y-68368669D01*
X119548962Y-68734729D01*
X119860271Y-69046038D01*
X120226331Y-69290631D01*
X120633075Y-69459110D01*
X121064872Y-69545000D01*
X121505128Y-69545000D01*
X121936925Y-69459110D01*
X122343669Y-69290631D01*
X122709729Y-69046038D01*
X123021038Y-68734729D01*
X123256254Y-68382702D01*
X126821903Y-68382702D01*
X126893486Y-68626671D01*
X127148996Y-68747571D01*
X127423184Y-68816300D01*
X127705512Y-68830217D01*
X127985130Y-68788787D01*
X128251292Y-68693603D01*
X128376514Y-68626671D01*
X128448097Y-68382702D01*
X127635000Y-67569605D01*
X126821903Y-68382702D01*
X123256254Y-68382702D01*
X123265631Y-68368669D01*
X123434110Y-67961925D01*
X123520000Y-67530128D01*
X123520000Y-67460512D01*
X126194783Y-67460512D01*
X126236213Y-67740130D01*
X126331397Y-68006292D01*
X126398329Y-68131514D01*
X126642298Y-68203097D01*
X127455395Y-67390000D01*
X127814605Y-67390000D01*
X128627702Y-68203097D01*
X128871671Y-68131514D01*
X128992571Y-67876004D01*
X129061300Y-67601816D01*
X129075217Y-67319488D01*
X129033787Y-67039870D01*
X128938603Y-66773708D01*
X128871671Y-66648486D01*
X128627702Y-66576903D01*
X127814605Y-67390000D01*
X127455395Y-67390000D01*
X126642298Y-66576903D01*
X126398329Y-66648486D01*
X126277429Y-66903996D01*
X126208700Y-67178184D01*
X126194783Y-67460512D01*
X123520000Y-67460512D01*
X123520000Y-67089872D01*
X123434110Y-66658075D01*
X123326093Y-66397298D01*
X126821903Y-66397298D01*
X127635000Y-67210395D01*
X128448097Y-66397298D01*
X128376514Y-66153329D01*
X128121004Y-66032429D01*
X127846816Y-65963700D01*
X127564488Y-65949783D01*
X127284870Y-65991213D01*
X127018708Y-66086397D01*
X126893486Y-66153329D01*
X126821903Y-66397298D01*
X123326093Y-66397298D01*
X123265631Y-66251331D01*
X123021038Y-65885271D01*
X122709729Y-65573962D01*
X122343669Y-65329369D01*
X121936925Y-65160890D01*
X121505128Y-65075000D01*
X121064872Y-65075000D01*
X120633075Y-65160890D01*
X120226331Y-65329369D01*
X119860271Y-65573962D01*
X119548962Y-65885271D01*
X119304369Y-66251331D01*
X119135890Y-66658075D01*
X119050000Y-67089872D01*
X118159748Y-67089872D01*
X118198096Y-66698778D01*
X118375606Y-66110836D01*
X118663937Y-65568564D01*
X119052094Y-65092636D01*
X119525314Y-64701155D01*
X120065552Y-64409049D01*
X120652244Y-64227437D01*
X121293879Y-64160000D01*
X131905345Y-64160000D01*
X131768368Y-64251525D01*
G37*
%TD.AperFunction*%
D28*
X156810097Y-77252317D02*
X157045655Y-77539345D01*
X157332683Y-77774903D01*
X157660152Y-77949939D01*
X158015476Y-78057725D01*
X158292403Y-78085000D01*
X158580001Y-78085000D01*
X158580001Y-83601928D01*
X157701730Y-83601928D01*
X156734999Y-82635198D01*
X156734999Y-77111819D01*
X156810097Y-77252317D01*
%TA.AperFunction,Conductor*%
D29*
G36*
X156810097Y-77252317D02*
G01*
X157045655Y-77539345D01*
X157332683Y-77774903D01*
X157660152Y-77949939D01*
X158015476Y-78057725D01*
X158292403Y-78085000D01*
X158580001Y-78085000D01*
X158580001Y-83601928D01*
X157701730Y-83601928D01*
X156734999Y-82635198D01*
X156734999Y-77111819D01*
X156810097Y-77252317D01*
G37*
%TD.AperFunction*%
%TD*%
M02*
