M48
; DRILL file {KiCad (5.1.12-1-10_14)} date Tuesday, December 20, 2022 at 09:07:49 PM
; FORMAT={-:-/ absolute / inch / decimal}
; #@! TF.CreationDate,2022-12-20T21:07:49-08:00
; #@! TF.GenerationSoftware,Kicad,Pcbnew,(5.1.12-1-10_14)
; #@! TF.FileFunction,Plated,1,2,PTH
FMAT,2
INCH
T1C0.0157
T2C0.0315
T3C0.0394
T4C0.0402
T5C0.0433
T6C0.0472
%
G90
G05
T1
X4.825Y-3.225
X4.95Y-3.175
X5.325Y-2.625
X5.475Y-5.025
X5.5Y-3.475
X5.55Y-2.675
X5.6Y-2.575
X6.0Y-2.7345
X6.05Y-3.3
X6.125Y-2.65
X6.2Y-3.15
X6.4Y-4.275
T2
X4.75Y-3.0
X4.75Y-3.1
X4.75Y-3.2
X4.75Y-3.3
X4.75Y-3.4
X4.75Y-3.5
X4.75Y-3.6
X4.75Y-3.7
X4.75Y-3.8
X4.75Y-3.9
X4.75Y-4.25
X4.75Y-4.35
X4.75Y-4.45
X4.75Y-4.55
X4.8531Y-4.075
X5.025Y-2.6531
X5.025Y-2.85
X5.05Y-3.0
X5.05Y-3.1
X5.05Y-3.2
X5.05Y-3.3
X5.05Y-3.4
X5.05Y-3.5
X5.05Y-3.6
X5.05Y-3.7
X5.05Y-3.8
X5.05Y-3.9
X5.05Y-4.075
X5.05Y-4.25
X5.05Y-4.35
X5.05Y-4.45
X5.05Y-4.55
X5.425Y-4.425
X5.725Y-4.425
X6.2Y-4.8
X6.2Y-5.025
X6.3969Y-4.8
X6.3969Y-5.025
X6.5Y-4.85
X6.5Y-4.95
T3
X6.225Y-3.35
X6.225Y-3.45
X6.225Y-3.55
X6.225Y-3.85
X6.225Y-3.95
T4
X5.225Y-2.575
X5.225Y-2.675
X5.225Y-2.775
X5.225Y-2.875
X5.225Y-2.975
X5.225Y-3.075
X5.225Y-3.175
X5.225Y-3.275
X5.225Y-3.375
X5.225Y-3.475
X5.225Y-3.575
X5.225Y-3.675
X5.225Y-3.775
X5.225Y-3.875
X5.225Y-3.975
X5.225Y-4.075
X5.225Y-4.175
X5.225Y-4.275
X5.225Y-4.375
X5.225Y-4.475
X5.925Y-2.575
X5.925Y-2.675
X5.925Y-2.775
X5.925Y-2.875
X5.925Y-2.975
X5.925Y-3.075
X5.925Y-3.175
X5.925Y-3.275
X5.925Y-3.375
X5.925Y-3.475
X5.925Y-3.575
X5.925Y-3.675
X5.925Y-3.775
X5.925Y-3.875
X5.925Y-3.975
X5.925Y-4.075
X5.925Y-4.175
X5.925Y-4.275
X5.925Y-4.375
X5.925Y-4.475
T5
X5.4848Y-4.3
X5.575Y-4.3
X5.6652Y-4.3
X6.225Y-4.125
X6.225Y-4.525
T6
X5.3797Y-4.8701
X5.4781Y-4.7717
X5.675Y-4.6732
X5.675Y-4.8701
X5.8719Y-4.7717
X5.9703Y-4.8701
T1
G00X5.4959Y-5.2638
M15
G01X5.4604Y-5.2638
M16
G05
G00X5.8896Y-5.2638
M15
G01X5.8541Y-5.2638
M16
G05
T3
G00X6.0821Y-2.8445
M15
G01X6.0821Y-2.9232
M16
G05
G00X6.2356Y-2.7638
M15
G01X6.3144Y-2.7638
M16
G05
G00X6.2258Y-3.0
M15
G01X6.3242Y-3.0
M16
G05
T0
M30
