%TF.GenerationSoftware,KiCad,Pcbnew,(5.1.12-1-10_14)*%
%TF.CreationDate,2022-12-20T21:08:20-08:00*%
%TF.ProjectId,nabu-usb-keyboard,6e616275-2d75-4736-922d-6b6579626f61,0.1*%
%TF.SameCoordinates,Original*%
%TF.FileFunction,Legend,Top*%
%TF.FilePolarity,Positive*%
%FSLAX46Y46*%
G04 Gerber Fmt 4.6, Leading zero omitted, Abs format (unit mm)*
G04 Created by KiCad (PCBNEW (5.1.12-1-10_14)) date 2022-12-20 21:08:20*
%MOMM*%
%LPD*%
G01*
G04 APERTURE LIST*
%ADD10C,0.150000*%
%ADD11C,0.300000*%
%ADD12C,0.100000*%
%ADD13C,0.010000*%
%ADD14C,0.120000*%
G04 APERTURE END LIST*
D10*
X145129285Y-109624761D02*
X145272142Y-109672380D01*
X145510238Y-109672380D01*
X145605476Y-109624761D01*
X145653095Y-109577142D01*
X145700714Y-109481904D01*
X145700714Y-109386666D01*
X145653095Y-109291428D01*
X145605476Y-109243809D01*
X145510238Y-109196190D01*
X145319761Y-109148571D01*
X145224523Y-109100952D01*
X145176904Y-109053333D01*
X145129285Y-108958095D01*
X145129285Y-108862857D01*
X145176904Y-108767619D01*
X145224523Y-108720000D01*
X145319761Y-108672380D01*
X145557857Y-108672380D01*
X145700714Y-108720000D01*
X138056904Y-108720000D02*
X137961666Y-108672380D01*
X137818809Y-108672380D01*
X137675952Y-108720000D01*
X137580714Y-108815238D01*
X137533095Y-108910476D01*
X137485476Y-109100952D01*
X137485476Y-109243809D01*
X137533095Y-109434285D01*
X137580714Y-109529523D01*
X137675952Y-109624761D01*
X137818809Y-109672380D01*
X137914047Y-109672380D01*
X138056904Y-109624761D01*
X138104523Y-109577142D01*
X138104523Y-109243809D01*
X137914047Y-109243809D01*
D11*
X167043571Y-116017500D02*
X165543571Y-115830000D01*
X167043571Y-115160357D01*
X165543571Y-114972857D01*
X166615000Y-114463928D02*
X166615000Y-113749642D01*
X167043571Y-114660357D02*
X165543571Y-113972857D01*
X167043571Y-113660357D01*
X166257857Y-112562142D02*
X166329285Y-112356785D01*
X166400714Y-112294285D01*
X166543571Y-112240714D01*
X166757857Y-112267500D01*
X166900714Y-112356785D01*
X166972142Y-112437142D01*
X167043571Y-112588928D01*
X167043571Y-113160357D01*
X165543571Y-112972857D01*
X165543571Y-112472857D01*
X165615000Y-112338928D01*
X165686428Y-112276428D01*
X165829285Y-112222857D01*
X165972142Y-112240714D01*
X166115000Y-112330000D01*
X166186428Y-112410357D01*
X166257857Y-112562142D01*
X166257857Y-113062142D01*
X165543571Y-111472857D02*
X166757857Y-111624642D01*
X166900714Y-111571071D01*
X166972142Y-111508571D01*
X167043571Y-111374642D01*
X167043571Y-111088928D01*
X166972142Y-110937142D01*
X166900714Y-110856785D01*
X166757857Y-110767500D01*
X165543571Y-110615714D01*
X167043571Y-108946071D02*
X165543571Y-108758571D01*
X167043571Y-108088928D02*
X166186428Y-108624642D01*
X165543571Y-107901428D02*
X166400714Y-108865714D01*
X166972142Y-106865714D02*
X167043571Y-107017500D01*
X167043571Y-107303214D01*
X166972142Y-107437142D01*
X166829285Y-107490714D01*
X166257857Y-107419285D01*
X166115000Y-107330000D01*
X166043571Y-107178214D01*
X166043571Y-106892500D01*
X166115000Y-106758571D01*
X166257857Y-106705000D01*
X166400714Y-106722857D01*
X166543571Y-107455000D01*
X166043571Y-106178214D02*
X167043571Y-105946071D01*
X166043571Y-105463928D02*
X167043571Y-105946071D01*
X167400714Y-106133571D01*
X167472142Y-106213928D01*
X167543571Y-106365714D01*
X167043571Y-105017500D02*
X165543571Y-104830000D01*
X166115000Y-104901428D02*
X166043571Y-104749642D01*
X166043571Y-104463928D01*
X166115000Y-104330000D01*
X166186428Y-104267500D01*
X166329285Y-104213928D01*
X166757857Y-104267500D01*
X166900714Y-104356785D01*
X166972142Y-104437142D01*
X167043571Y-104588928D01*
X167043571Y-104874642D01*
X166972142Y-105008571D01*
X167043571Y-103446071D02*
X166972142Y-103580000D01*
X166900714Y-103642500D01*
X166757857Y-103696071D01*
X166329285Y-103642500D01*
X166186428Y-103553214D01*
X166115000Y-103472857D01*
X166043571Y-103321071D01*
X166043571Y-103106785D01*
X166115000Y-102972857D01*
X166186428Y-102910357D01*
X166329285Y-102856785D01*
X166757857Y-102910357D01*
X166900714Y-102999642D01*
X166972142Y-103080000D01*
X167043571Y-103231785D01*
X167043571Y-103446071D01*
X167043571Y-101660357D02*
X166257857Y-101562142D01*
X166115000Y-101615714D01*
X166043571Y-101749642D01*
X166043571Y-102035357D01*
X166115000Y-102187142D01*
X166972142Y-101651428D02*
X167043571Y-101803214D01*
X167043571Y-102160357D01*
X166972142Y-102294285D01*
X166829285Y-102347857D01*
X166686428Y-102330000D01*
X166543571Y-102240714D01*
X166472142Y-102088928D01*
X166472142Y-101731785D01*
X166400714Y-101580000D01*
X167043571Y-100946071D02*
X166043571Y-100821071D01*
X166329285Y-100856785D02*
X166186428Y-100767500D01*
X166115000Y-100687142D01*
X166043571Y-100535357D01*
X166043571Y-100392500D01*
X167043571Y-99374642D02*
X165543571Y-99187142D01*
X166972142Y-99365714D02*
X167043571Y-99517500D01*
X167043571Y-99803214D01*
X166972142Y-99937142D01*
X166900714Y-99999642D01*
X166757857Y-100053214D01*
X166329285Y-99999642D01*
X166186428Y-99910357D01*
X166115000Y-99830000D01*
X166043571Y-99678214D01*
X166043571Y-99392500D01*
X166115000Y-99258571D01*
X166043571Y-97606785D02*
X166043571Y-97035357D01*
X165543571Y-97330000D02*
X166829285Y-97490714D01*
X166972142Y-97437142D01*
X167043571Y-97303214D01*
X167043571Y-97160357D01*
X167043571Y-96446071D02*
X166972142Y-96580000D01*
X166900714Y-96642500D01*
X166757857Y-96696071D01*
X166329285Y-96642500D01*
X166186428Y-96553214D01*
X166115000Y-96472857D01*
X166043571Y-96321071D01*
X166043571Y-96106785D01*
X166115000Y-95972857D01*
X166186428Y-95910357D01*
X166329285Y-95856785D01*
X166757857Y-95910357D01*
X166900714Y-95999642D01*
X166972142Y-96080000D01*
X167043571Y-96231785D01*
X167043571Y-96446071D01*
X165543571Y-93972857D02*
X166757857Y-94124642D01*
X166900714Y-94071071D01*
X166972142Y-94008571D01*
X167043571Y-93874642D01*
X167043571Y-93588928D01*
X166972142Y-93437142D01*
X166900714Y-93356785D01*
X166757857Y-93267500D01*
X165543571Y-93115714D01*
X166972142Y-92651428D02*
X167043571Y-92446071D01*
X167043571Y-92088928D01*
X166972142Y-91937142D01*
X166900714Y-91856785D01*
X166757857Y-91767500D01*
X166615000Y-91749642D01*
X166472142Y-91803214D01*
X166400714Y-91865714D01*
X166329285Y-91999642D01*
X166257857Y-92276428D01*
X166186428Y-92410357D01*
X166115000Y-92472857D01*
X165972142Y-92526428D01*
X165829285Y-92508571D01*
X165686428Y-92419285D01*
X165615000Y-92338928D01*
X165543571Y-92187142D01*
X165543571Y-91830000D01*
X165615000Y-91624642D01*
X166257857Y-90562142D02*
X166329285Y-90356785D01*
X166400714Y-90294285D01*
X166543571Y-90240714D01*
X166757857Y-90267500D01*
X166900714Y-90356785D01*
X166972142Y-90437142D01*
X167043571Y-90588928D01*
X167043571Y-91160357D01*
X165543571Y-90972857D01*
X165543571Y-90472857D01*
X165615000Y-90338928D01*
X165686428Y-90276428D01*
X165829285Y-90222857D01*
X165972142Y-90240714D01*
X166115000Y-90330000D01*
X166186428Y-90410357D01*
X166257857Y-90562142D01*
X166257857Y-91062142D01*
X166972142Y-89580000D02*
X167043571Y-89588928D01*
X167186428Y-89678214D01*
X167257857Y-89758571D01*
X167043571Y-86946071D02*
X166329285Y-87356785D01*
X167043571Y-87803214D02*
X165543571Y-87615714D01*
X165543571Y-87044285D01*
X165615000Y-86910357D01*
X165686428Y-86847857D01*
X165829285Y-86794285D01*
X166043571Y-86821071D01*
X166186428Y-86910357D01*
X166257857Y-86990714D01*
X166329285Y-87142500D01*
X166329285Y-87713928D01*
X166972142Y-85722857D02*
X167043571Y-85874642D01*
X167043571Y-86160357D01*
X166972142Y-86294285D01*
X166829285Y-86347857D01*
X166257857Y-86276428D01*
X166115000Y-86187142D01*
X166043571Y-86035357D01*
X166043571Y-85749642D01*
X166115000Y-85615714D01*
X166257857Y-85562142D01*
X166400714Y-85580000D01*
X166543571Y-86312142D01*
X166043571Y-85035357D02*
X167043571Y-84803214D01*
X166043571Y-84321071D01*
X165543571Y-82258571D02*
X165543571Y-82115714D01*
X165615000Y-81981785D01*
X165686428Y-81919285D01*
X165829285Y-81865714D01*
X166115000Y-81830000D01*
X166472142Y-81874642D01*
X166757857Y-81981785D01*
X166900714Y-82071071D01*
X166972142Y-82151428D01*
X167043571Y-82303214D01*
X167043571Y-82446071D01*
X166972142Y-82580000D01*
X166900714Y-82642500D01*
X166757857Y-82696071D01*
X166472142Y-82731785D01*
X166115000Y-82687142D01*
X165829285Y-82580000D01*
X165686428Y-82490714D01*
X165615000Y-82410357D01*
X165543571Y-82258571D01*
X166900714Y-81285357D02*
X166972142Y-81222857D01*
X167043571Y-81303214D01*
X166972142Y-81365714D01*
X166900714Y-81285357D01*
X167043571Y-81303214D01*
X167043571Y-79803214D02*
X167043571Y-80660357D01*
X167043571Y-80231785D02*
X165543571Y-80044285D01*
X165757857Y-80213928D01*
X165900714Y-80374642D01*
X165972142Y-80526428D01*
X170165000Y-112053214D02*
X170093571Y-112115714D01*
X169879285Y-112231785D01*
X169736428Y-112285357D01*
X169522142Y-112330000D01*
X169165000Y-112356785D01*
X168879285Y-112321071D01*
X168522142Y-112205000D01*
X168307857Y-112106785D01*
X168165000Y-112017500D01*
X167950714Y-111847857D01*
X167879285Y-111767500D01*
X169522142Y-110758571D02*
X169593571Y-110910357D01*
X169593571Y-111196071D01*
X169522142Y-111330000D01*
X169450714Y-111392500D01*
X169307857Y-111446071D01*
X168879285Y-111392500D01*
X168736428Y-111303214D01*
X168665000Y-111222857D01*
X168593571Y-111071071D01*
X168593571Y-110785357D01*
X168665000Y-110651428D01*
X170165000Y-110338928D02*
X170093571Y-110258571D01*
X169879285Y-110088928D01*
X169736428Y-109999642D01*
X169522142Y-109901428D01*
X169165000Y-109785357D01*
X168879285Y-109749642D01*
X168522142Y-109776428D01*
X168307857Y-109821071D01*
X168165000Y-109874642D01*
X167950714Y-109990714D01*
X167879285Y-110053214D01*
X168236428Y-107883571D02*
X168165000Y-107803214D01*
X168093571Y-107651428D01*
X168093571Y-107294285D01*
X168165000Y-107160357D01*
X168236428Y-107097857D01*
X168379285Y-107044285D01*
X168522142Y-107062142D01*
X168736428Y-107160357D01*
X169593571Y-108124642D01*
X169593571Y-107196071D01*
X168093571Y-106080000D02*
X168093571Y-105937142D01*
X168165000Y-105803214D01*
X168236428Y-105740714D01*
X168379285Y-105687142D01*
X168665000Y-105651428D01*
X169022142Y-105696071D01*
X169307857Y-105803214D01*
X169450714Y-105892500D01*
X169522142Y-105972857D01*
X169593571Y-106124642D01*
X169593571Y-106267500D01*
X169522142Y-106401428D01*
X169450714Y-106463928D01*
X169307857Y-106517500D01*
X169022142Y-106553214D01*
X168665000Y-106508571D01*
X168379285Y-106401428D01*
X168236428Y-106312142D01*
X168165000Y-106231785D01*
X168093571Y-106080000D01*
X168236428Y-105026428D02*
X168165000Y-104946071D01*
X168093571Y-104794285D01*
X168093571Y-104437142D01*
X168165000Y-104303214D01*
X168236428Y-104240714D01*
X168379285Y-104187142D01*
X168522142Y-104205000D01*
X168736428Y-104303214D01*
X169593571Y-105267500D01*
X169593571Y-104338928D01*
X168236428Y-103597857D02*
X168165000Y-103517500D01*
X168093571Y-103365714D01*
X168093571Y-103008571D01*
X168165000Y-102874642D01*
X168236428Y-102812142D01*
X168379285Y-102758571D01*
X168522142Y-102776428D01*
X168736428Y-102874642D01*
X169593571Y-103838928D01*
X169593571Y-102910357D01*
X168093571Y-100508571D02*
X169165000Y-100642500D01*
X169379285Y-100740714D01*
X169522142Y-100901428D01*
X169593571Y-101124642D01*
X169593571Y-101267500D01*
X169593571Y-99338928D02*
X168807857Y-99240714D01*
X168665000Y-99294285D01*
X168593571Y-99428214D01*
X168593571Y-99713928D01*
X168665000Y-99865714D01*
X169522142Y-99330000D02*
X169593571Y-99481785D01*
X169593571Y-99838928D01*
X169522142Y-99972857D01*
X169379285Y-100026428D01*
X169236428Y-100008571D01*
X169093571Y-99919285D01*
X169022142Y-99767500D01*
X169022142Y-99410357D01*
X168950714Y-99258571D01*
X169522142Y-98687142D02*
X169593571Y-98553214D01*
X169593571Y-98267500D01*
X169522142Y-98115714D01*
X169379285Y-98026428D01*
X169307857Y-98017500D01*
X169165000Y-98071071D01*
X169093571Y-98205000D01*
X169093571Y-98419285D01*
X169022142Y-98553214D01*
X168879285Y-98606785D01*
X168807857Y-98597857D01*
X168665000Y-98508571D01*
X168593571Y-98356785D01*
X168593571Y-98142500D01*
X168665000Y-98008571D01*
X169593571Y-97196071D02*
X169522142Y-97330000D01*
X169450714Y-97392500D01*
X169307857Y-97446071D01*
X168879285Y-97392500D01*
X168736428Y-97303214D01*
X168665000Y-97222857D01*
X168593571Y-97071071D01*
X168593571Y-96856785D01*
X168665000Y-96722857D01*
X168736428Y-96660357D01*
X168879285Y-96606785D01*
X169307857Y-96660357D01*
X169450714Y-96749642D01*
X169522142Y-96830000D01*
X169593571Y-96981785D01*
X169593571Y-97196071D01*
X168593571Y-95928214D02*
X169593571Y-96053214D01*
X168736428Y-95946071D02*
X168665000Y-95865714D01*
X168593571Y-95713928D01*
X168593571Y-95499642D01*
X168665000Y-95365714D01*
X168807857Y-95312142D01*
X169593571Y-95410357D01*
X169593571Y-92696071D02*
X168879285Y-93106785D01*
X169593571Y-93553214D02*
X168093571Y-93365714D01*
X168093571Y-92794285D01*
X168165000Y-92660357D01*
X168236428Y-92597857D01*
X168379285Y-92544285D01*
X168593571Y-92571071D01*
X168736428Y-92660357D01*
X168807857Y-92740714D01*
X168879285Y-92892500D01*
X168879285Y-93463928D01*
X169450714Y-92035357D02*
X169522142Y-91972857D01*
X169593571Y-92053214D01*
X169522142Y-92115714D01*
X169450714Y-92035357D01*
X169593571Y-92053214D01*
X168093571Y-90222857D02*
X168093571Y-89365714D01*
X169593571Y-89981785D02*
X168093571Y-89794285D01*
X169593571Y-89053214D02*
X168093571Y-88865714D01*
X169593571Y-88410357D02*
X168807857Y-88312142D01*
X168665000Y-88365714D01*
X168593571Y-88499642D01*
X168593571Y-88713928D01*
X168665000Y-88865714D01*
X168736428Y-88946071D01*
X169593571Y-87481785D02*
X169522142Y-87615714D01*
X169450714Y-87678214D01*
X169307857Y-87731785D01*
X168879285Y-87678214D01*
X168736428Y-87588928D01*
X168665000Y-87508571D01*
X168593571Y-87356785D01*
X168593571Y-87142500D01*
X168665000Y-87008571D01*
X168736428Y-86946071D01*
X168879285Y-86892500D01*
X169307857Y-86946071D01*
X169450714Y-87035357D01*
X169522142Y-87115714D01*
X169593571Y-87267500D01*
X169593571Y-87481785D01*
X169593571Y-86338928D02*
X168593571Y-86213928D01*
X168879285Y-86249642D02*
X168736428Y-86160357D01*
X168665000Y-86080000D01*
X168593571Y-85928214D01*
X168593571Y-85785357D01*
X168593571Y-85285357D02*
X170093571Y-85472857D01*
X168665000Y-85294285D02*
X168593571Y-85142500D01*
X168593571Y-84856785D01*
X168665000Y-84722857D01*
X168736428Y-84660357D01*
X168879285Y-84606785D01*
X169307857Y-84660357D01*
X169450714Y-84749642D01*
X169522142Y-84830000D01*
X169593571Y-84981785D01*
X169593571Y-85267500D01*
X169522142Y-85401428D01*
X169522142Y-83472857D02*
X169593571Y-83624642D01*
X169593571Y-83910357D01*
X169522142Y-84044285D01*
X169379285Y-84097857D01*
X168807857Y-84026428D01*
X168665000Y-83937142D01*
X168593571Y-83785357D01*
X168593571Y-83499642D01*
X168665000Y-83365714D01*
X168807857Y-83312142D01*
X168950714Y-83330000D01*
X169093571Y-84062142D01*
D12*
X160381785Y-100595714D02*
X159631785Y-100595714D01*
X159631785Y-100417142D01*
X159667500Y-100310000D01*
X159738928Y-100238571D01*
X159810357Y-100202857D01*
X159953214Y-100167142D01*
X160060357Y-100167142D01*
X160203214Y-100202857D01*
X160274642Y-100238571D01*
X160346071Y-100310000D01*
X160381785Y-100417142D01*
X160381785Y-100595714D01*
X160346071Y-99560000D02*
X160381785Y-99631428D01*
X160381785Y-99774285D01*
X160346071Y-99845714D01*
X160274642Y-99881428D01*
X159988928Y-99881428D01*
X159917500Y-99845714D01*
X159881785Y-99774285D01*
X159881785Y-99631428D01*
X159917500Y-99560000D01*
X159988928Y-99524285D01*
X160060357Y-99524285D01*
X160131785Y-99881428D01*
X160381785Y-99202857D02*
X159631785Y-99202857D01*
X159917500Y-99202857D02*
X159881785Y-99131428D01*
X159881785Y-98988571D01*
X159917500Y-98917142D01*
X159953214Y-98881428D01*
X160024642Y-98845714D01*
X160238928Y-98845714D01*
X160310357Y-98881428D01*
X160346071Y-98917142D01*
X160381785Y-98988571D01*
X160381785Y-99131428D01*
X160346071Y-99202857D01*
X159881785Y-98202857D02*
X160381785Y-98202857D01*
X159881785Y-98524285D02*
X160274642Y-98524285D01*
X160346071Y-98488571D01*
X160381785Y-98417142D01*
X160381785Y-98310000D01*
X160346071Y-98238571D01*
X160310357Y-98202857D01*
X159881785Y-97524285D02*
X160488928Y-97524285D01*
X160560357Y-97560000D01*
X160596071Y-97595714D01*
X160631785Y-97667142D01*
X160631785Y-97774285D01*
X160596071Y-97845714D01*
X160346071Y-97524285D02*
X160381785Y-97595714D01*
X160381785Y-97738571D01*
X160346071Y-97810000D01*
X160310357Y-97845714D01*
X160238928Y-97881428D01*
X160024642Y-97881428D01*
X159953214Y-97845714D01*
X159917500Y-97810000D01*
X159881785Y-97738571D01*
X159881785Y-97595714D01*
X159917500Y-97524285D01*
X161213928Y-100756428D02*
X161213928Y-100506428D01*
X161606785Y-100399285D02*
X161606785Y-100756428D01*
X160856785Y-100756428D01*
X160856785Y-100399285D01*
X161106785Y-100077857D02*
X161606785Y-100077857D01*
X161178214Y-100077857D02*
X161142500Y-100042142D01*
X161106785Y-99970714D01*
X161106785Y-99863571D01*
X161142500Y-99792142D01*
X161213928Y-99756428D01*
X161606785Y-99756428D01*
X161606785Y-99077857D02*
X161213928Y-99077857D01*
X161142500Y-99113571D01*
X161106785Y-99185000D01*
X161106785Y-99327857D01*
X161142500Y-99399285D01*
X161571071Y-99077857D02*
X161606785Y-99149285D01*
X161606785Y-99327857D01*
X161571071Y-99399285D01*
X161499642Y-99435000D01*
X161428214Y-99435000D01*
X161356785Y-99399285D01*
X161321071Y-99327857D01*
X161321071Y-99149285D01*
X161285357Y-99077857D01*
X161606785Y-98720714D02*
X160856785Y-98720714D01*
X161142500Y-98720714D02*
X161106785Y-98649285D01*
X161106785Y-98506428D01*
X161142500Y-98435000D01*
X161178214Y-98399285D01*
X161249642Y-98363571D01*
X161463928Y-98363571D01*
X161535357Y-98399285D01*
X161571071Y-98435000D01*
X161606785Y-98506428D01*
X161606785Y-98649285D01*
X161571071Y-98720714D01*
X161606785Y-97935000D02*
X161571071Y-98006428D01*
X161499642Y-98042142D01*
X160856785Y-98042142D01*
X161571071Y-97363571D02*
X161606785Y-97435000D01*
X161606785Y-97577857D01*
X161571071Y-97649285D01*
X161499642Y-97685000D01*
X161213928Y-97685000D01*
X161142500Y-97649285D01*
X161106785Y-97577857D01*
X161106785Y-97435000D01*
X161142500Y-97363571D01*
X161213928Y-97327857D01*
X161285357Y-97327857D01*
X161356785Y-97685000D01*
D10*
X160155000Y-91479285D02*
X160107380Y-91574523D01*
X160107380Y-91717380D01*
X160155000Y-91860238D01*
X160250238Y-91955476D01*
X160345476Y-92003095D01*
X160535952Y-92050714D01*
X160678809Y-92050714D01*
X160869285Y-92003095D01*
X160964523Y-91955476D01*
X161059761Y-91860238D01*
X161107380Y-91717380D01*
X161107380Y-91622142D01*
X161059761Y-91479285D01*
X161012142Y-91431666D01*
X160678809Y-91431666D01*
X160678809Y-91622142D01*
X161107380Y-91003095D02*
X160107380Y-91003095D01*
X161107380Y-90431666D01*
X160107380Y-90431666D01*
X161107380Y-89955476D02*
X160107380Y-89955476D01*
X160107380Y-89717380D01*
X160155000Y-89574523D01*
X160250238Y-89479285D01*
X160345476Y-89431666D01*
X160535952Y-89384047D01*
X160678809Y-89384047D01*
X160869285Y-89431666D01*
X160964523Y-89479285D01*
X161059761Y-89574523D01*
X161107380Y-89717380D01*
X161107380Y-89955476D01*
X161107380Y-87622142D02*
X160631190Y-87955476D01*
X161107380Y-88193571D02*
X160107380Y-88193571D01*
X160107380Y-87812619D01*
X160155000Y-87717380D01*
X160202619Y-87669761D01*
X160297857Y-87622142D01*
X160440714Y-87622142D01*
X160535952Y-87669761D01*
X160583571Y-87717380D01*
X160631190Y-87812619D01*
X160631190Y-88193571D01*
X161107380Y-87288809D02*
X160440714Y-86765000D01*
X160440714Y-87288809D02*
X161107380Y-86765000D01*
X160107380Y-85765000D02*
X160107380Y-85193571D01*
X161107380Y-85479285D02*
X160107380Y-85479285D01*
X161107380Y-84955476D02*
X160440714Y-84431666D01*
X160440714Y-84955476D02*
X161107380Y-84431666D01*
D13*
%TO.C,REF\u002A\u002A*%
G36*
X122694744Y-126379918D02*
G01*
X122750201Y-126407568D01*
X122799148Y-126458480D01*
X122812629Y-126477338D01*
X122827314Y-126502015D01*
X122836842Y-126528816D01*
X122842293Y-126564587D01*
X122844747Y-126616169D01*
X122845286Y-126684267D01*
X122842852Y-126777588D01*
X122834394Y-126847657D01*
X122818174Y-126899931D01*
X122792454Y-126939869D01*
X122755497Y-126972929D01*
X122752782Y-126974886D01*
X122716360Y-126994908D01*
X122672502Y-127004815D01*
X122616724Y-127007257D01*
X122526048Y-127007257D01*
X122526010Y-127095283D01*
X122525166Y-127144308D01*
X122520024Y-127173065D01*
X122506587Y-127190311D01*
X122480858Y-127204808D01*
X122474679Y-127207769D01*
X122445764Y-127221648D01*
X122423376Y-127230414D01*
X122406729Y-127231171D01*
X122395036Y-127221023D01*
X122387510Y-127197073D01*
X122383366Y-127156426D01*
X122381815Y-127096186D01*
X122382071Y-127013455D01*
X122383349Y-126905339D01*
X122383748Y-126873000D01*
X122385185Y-126761524D01*
X122386472Y-126688603D01*
X122525971Y-126688603D01*
X122526755Y-126750499D01*
X122530240Y-126790997D01*
X122538124Y-126817708D01*
X122552105Y-126838244D01*
X122561597Y-126848260D01*
X122600404Y-126877567D01*
X122634763Y-126879952D01*
X122670216Y-126855750D01*
X122671114Y-126854857D01*
X122685539Y-126836153D01*
X122694313Y-126810732D01*
X122698739Y-126771584D01*
X122700118Y-126711697D01*
X122700143Y-126698430D01*
X122696812Y-126615901D01*
X122685969Y-126558691D01*
X122666340Y-126523766D01*
X122636650Y-126508094D01*
X122619491Y-126506514D01*
X122578766Y-126513926D01*
X122550832Y-126538330D01*
X122534017Y-126582980D01*
X122526650Y-126651130D01*
X122525971Y-126688603D01*
X122386472Y-126688603D01*
X122386708Y-126675245D01*
X122388677Y-126610333D01*
X122391450Y-126562958D01*
X122395388Y-126529290D01*
X122400849Y-126505498D01*
X122408192Y-126487753D01*
X122417777Y-126472224D01*
X122421887Y-126466381D01*
X122476405Y-126411185D01*
X122545336Y-126379890D01*
X122625072Y-126371165D01*
X122694744Y-126379918D01*
G37*
X122694744Y-126379918D02*
X122750201Y-126407568D01*
X122799148Y-126458480D01*
X122812629Y-126477338D01*
X122827314Y-126502015D01*
X122836842Y-126528816D01*
X122842293Y-126564587D01*
X122844747Y-126616169D01*
X122845286Y-126684267D01*
X122842852Y-126777588D01*
X122834394Y-126847657D01*
X122818174Y-126899931D01*
X122792454Y-126939869D01*
X122755497Y-126972929D01*
X122752782Y-126974886D01*
X122716360Y-126994908D01*
X122672502Y-127004815D01*
X122616724Y-127007257D01*
X122526048Y-127007257D01*
X122526010Y-127095283D01*
X122525166Y-127144308D01*
X122520024Y-127173065D01*
X122506587Y-127190311D01*
X122480858Y-127204808D01*
X122474679Y-127207769D01*
X122445764Y-127221648D01*
X122423376Y-127230414D01*
X122406729Y-127231171D01*
X122395036Y-127221023D01*
X122387510Y-127197073D01*
X122383366Y-127156426D01*
X122381815Y-127096186D01*
X122382071Y-127013455D01*
X122383349Y-126905339D01*
X122383748Y-126873000D01*
X122385185Y-126761524D01*
X122386472Y-126688603D01*
X122525971Y-126688603D01*
X122526755Y-126750499D01*
X122530240Y-126790997D01*
X122538124Y-126817708D01*
X122552105Y-126838244D01*
X122561597Y-126848260D01*
X122600404Y-126877567D01*
X122634763Y-126879952D01*
X122670216Y-126855750D01*
X122671114Y-126854857D01*
X122685539Y-126836153D01*
X122694313Y-126810732D01*
X122698739Y-126771584D01*
X122700118Y-126711697D01*
X122700143Y-126698430D01*
X122696812Y-126615901D01*
X122685969Y-126558691D01*
X122666340Y-126523766D01*
X122636650Y-126508094D01*
X122619491Y-126506514D01*
X122578766Y-126513926D01*
X122550832Y-126538330D01*
X122534017Y-126582980D01*
X122526650Y-126651130D01*
X122525971Y-126688603D01*
X122386472Y-126688603D01*
X122386708Y-126675245D01*
X122388677Y-126610333D01*
X122391450Y-126562958D01*
X122395388Y-126529290D01*
X122400849Y-126505498D01*
X122408192Y-126487753D01*
X122417777Y-126472224D01*
X122421887Y-126466381D01*
X122476405Y-126411185D01*
X122545336Y-126379890D01*
X122625072Y-126371165D01*
X122694744Y-126379918D01*
G36*
X123811093Y-126387780D02*
G01*
X123857672Y-126414723D01*
X123890057Y-126441466D01*
X123913742Y-126469484D01*
X123930059Y-126503748D01*
X123940339Y-126549227D01*
X123945914Y-126610892D01*
X123948116Y-126693711D01*
X123948371Y-126753246D01*
X123948371Y-126972391D01*
X123886686Y-127000044D01*
X123825000Y-127027697D01*
X123817743Y-126787670D01*
X123814744Y-126698028D01*
X123811598Y-126632962D01*
X123807701Y-126588026D01*
X123802447Y-126558770D01*
X123795231Y-126540748D01*
X123785450Y-126529511D01*
X123782312Y-126527079D01*
X123734761Y-126508083D01*
X123686697Y-126515600D01*
X123658086Y-126535543D01*
X123646447Y-126549675D01*
X123638391Y-126568220D01*
X123633271Y-126596334D01*
X123630441Y-126639173D01*
X123629256Y-126701895D01*
X123629057Y-126767261D01*
X123629018Y-126849268D01*
X123627614Y-126907316D01*
X123622914Y-126946465D01*
X123612987Y-126971780D01*
X123595903Y-126988323D01*
X123569732Y-127001156D01*
X123534775Y-127014491D01*
X123496596Y-127029007D01*
X123501141Y-126771389D01*
X123502971Y-126678519D01*
X123505112Y-126609889D01*
X123508181Y-126560711D01*
X123512794Y-126526198D01*
X123519568Y-126501562D01*
X123529119Y-126482016D01*
X123540634Y-126464770D01*
X123596190Y-126409680D01*
X123663980Y-126377822D01*
X123737713Y-126370191D01*
X123811093Y-126387780D01*
G37*
X123811093Y-126387780D02*
X123857672Y-126414723D01*
X123890057Y-126441466D01*
X123913742Y-126469484D01*
X123930059Y-126503748D01*
X123940339Y-126549227D01*
X123945914Y-126610892D01*
X123948116Y-126693711D01*
X123948371Y-126753246D01*
X123948371Y-126972391D01*
X123886686Y-127000044D01*
X123825000Y-127027697D01*
X123817743Y-126787670D01*
X123814744Y-126698028D01*
X123811598Y-126632962D01*
X123807701Y-126588026D01*
X123802447Y-126558770D01*
X123795231Y-126540748D01*
X123785450Y-126529511D01*
X123782312Y-126527079D01*
X123734761Y-126508083D01*
X123686697Y-126515600D01*
X123658086Y-126535543D01*
X123646447Y-126549675D01*
X123638391Y-126568220D01*
X123633271Y-126596334D01*
X123630441Y-126639173D01*
X123629256Y-126701895D01*
X123629057Y-126767261D01*
X123629018Y-126849268D01*
X123627614Y-126907316D01*
X123622914Y-126946465D01*
X123612987Y-126971780D01*
X123595903Y-126988323D01*
X123569732Y-127001156D01*
X123534775Y-127014491D01*
X123496596Y-127029007D01*
X123501141Y-126771389D01*
X123502971Y-126678519D01*
X123505112Y-126609889D01*
X123508181Y-126560711D01*
X123512794Y-126526198D01*
X123519568Y-126501562D01*
X123529119Y-126482016D01*
X123540634Y-126464770D01*
X123596190Y-126409680D01*
X123663980Y-126377822D01*
X123737713Y-126370191D01*
X123811093Y-126387780D01*
G36*
X122136115Y-126381962D02*
G01*
X122204145Y-126417733D01*
X122254351Y-126475301D01*
X122272185Y-126512312D01*
X122286063Y-126567882D01*
X122293167Y-126638096D01*
X122293840Y-126714727D01*
X122288427Y-126789552D01*
X122277270Y-126854342D01*
X122260714Y-126900873D01*
X122255626Y-126908887D01*
X122195355Y-126968707D01*
X122123769Y-127004535D01*
X122046092Y-127015020D01*
X121967548Y-126998810D01*
X121945689Y-126989092D01*
X121903122Y-126959143D01*
X121865763Y-126919433D01*
X121862232Y-126914397D01*
X121847881Y-126890124D01*
X121838394Y-126864178D01*
X121832790Y-126830022D01*
X121830086Y-126781119D01*
X121829299Y-126710935D01*
X121829286Y-126695200D01*
X121829322Y-126690192D01*
X121974429Y-126690192D01*
X121975273Y-126756430D01*
X121978596Y-126800386D01*
X121985583Y-126828779D01*
X121997416Y-126848325D01*
X122003457Y-126854857D01*
X122038186Y-126879680D01*
X122071903Y-126878548D01*
X122105995Y-126857016D01*
X122126329Y-126834029D01*
X122138371Y-126800478D01*
X122145134Y-126747569D01*
X122145598Y-126741399D01*
X122146752Y-126645513D01*
X122134688Y-126574299D01*
X122109570Y-126528194D01*
X122071560Y-126507635D01*
X122057992Y-126506514D01*
X122022364Y-126512152D01*
X121997994Y-126531686D01*
X121983093Y-126569042D01*
X121975875Y-126628150D01*
X121974429Y-126690192D01*
X121829322Y-126690192D01*
X121829826Y-126620413D01*
X121832096Y-126568159D01*
X121837068Y-126531949D01*
X121845713Y-126505299D01*
X121859005Y-126481722D01*
X121861943Y-126477338D01*
X121911313Y-126418249D01*
X121965109Y-126383947D01*
X122030602Y-126370331D01*
X122052842Y-126369665D01*
X122136115Y-126381962D01*
G37*
X122136115Y-126381962D02*
X122204145Y-126417733D01*
X122254351Y-126475301D01*
X122272185Y-126512312D01*
X122286063Y-126567882D01*
X122293167Y-126638096D01*
X122293840Y-126714727D01*
X122288427Y-126789552D01*
X122277270Y-126854342D01*
X122260714Y-126900873D01*
X122255626Y-126908887D01*
X122195355Y-126968707D01*
X122123769Y-127004535D01*
X122046092Y-127015020D01*
X121967548Y-126998810D01*
X121945689Y-126989092D01*
X121903122Y-126959143D01*
X121865763Y-126919433D01*
X121862232Y-126914397D01*
X121847881Y-126890124D01*
X121838394Y-126864178D01*
X121832790Y-126830022D01*
X121830086Y-126781119D01*
X121829299Y-126710935D01*
X121829286Y-126695200D01*
X121829322Y-126690192D01*
X121974429Y-126690192D01*
X121975273Y-126756430D01*
X121978596Y-126800386D01*
X121985583Y-126828779D01*
X121997416Y-126848325D01*
X122003457Y-126854857D01*
X122038186Y-126879680D01*
X122071903Y-126878548D01*
X122105995Y-126857016D01*
X122126329Y-126834029D01*
X122138371Y-126800478D01*
X122145134Y-126747569D01*
X122145598Y-126741399D01*
X122146752Y-126645513D01*
X122134688Y-126574299D01*
X122109570Y-126528194D01*
X122071560Y-126507635D01*
X122057992Y-126506514D01*
X122022364Y-126512152D01*
X121997994Y-126531686D01*
X121983093Y-126569042D01*
X121975875Y-126628150D01*
X121974429Y-126690192D01*
X121829322Y-126690192D01*
X121829826Y-126620413D01*
X121832096Y-126568159D01*
X121837068Y-126531949D01*
X121845713Y-126505299D01*
X121859005Y-126481722D01*
X121861943Y-126477338D01*
X121911313Y-126418249D01*
X121965109Y-126383947D01*
X122030602Y-126370331D01*
X122052842Y-126369665D01*
X122136115Y-126381962D01*
G36*
X123263303Y-126391239D02*
G01*
X123320527Y-126429735D01*
X123364749Y-126485335D01*
X123391167Y-126556086D01*
X123396510Y-126608162D01*
X123395903Y-126629893D01*
X123390822Y-126646531D01*
X123376855Y-126661437D01*
X123349589Y-126677973D01*
X123304612Y-126699498D01*
X123237511Y-126729374D01*
X123237171Y-126729524D01*
X123175407Y-126757813D01*
X123124759Y-126782933D01*
X123090404Y-126802179D01*
X123077518Y-126812848D01*
X123077514Y-126812934D01*
X123088872Y-126836166D01*
X123115431Y-126861774D01*
X123145923Y-126880221D01*
X123161370Y-126883886D01*
X123203515Y-126871212D01*
X123239808Y-126839471D01*
X123257517Y-126804572D01*
X123274552Y-126778845D01*
X123307922Y-126749546D01*
X123347149Y-126724235D01*
X123381756Y-126710471D01*
X123388993Y-126709714D01*
X123397139Y-126722160D01*
X123397630Y-126753972D01*
X123391643Y-126796866D01*
X123380357Y-126842558D01*
X123364950Y-126882761D01*
X123364171Y-126884322D01*
X123317804Y-126949062D01*
X123257711Y-126993097D01*
X123189465Y-127014711D01*
X123118638Y-127012185D01*
X123050804Y-126983804D01*
X123047788Y-126981808D01*
X122994427Y-126933448D01*
X122959340Y-126870352D01*
X122939922Y-126787387D01*
X122937316Y-126764078D01*
X122932701Y-126654055D01*
X122938233Y-126602748D01*
X123077514Y-126602748D01*
X123079324Y-126634753D01*
X123089222Y-126644093D01*
X123113898Y-126637105D01*
X123152795Y-126620587D01*
X123196275Y-126599881D01*
X123197356Y-126599333D01*
X123234209Y-126579949D01*
X123249000Y-126567013D01*
X123245353Y-126553451D01*
X123229995Y-126535632D01*
X123190923Y-126509845D01*
X123148846Y-126507950D01*
X123111103Y-126526717D01*
X123085034Y-126562915D01*
X123077514Y-126602748D01*
X122938233Y-126602748D01*
X122942194Y-126566027D01*
X122966550Y-126496212D01*
X123000456Y-126447302D01*
X123061653Y-126397878D01*
X123129063Y-126373359D01*
X123197880Y-126371797D01*
X123263303Y-126391239D01*
G37*
X123263303Y-126391239D02*
X123320527Y-126429735D01*
X123364749Y-126485335D01*
X123391167Y-126556086D01*
X123396510Y-126608162D01*
X123395903Y-126629893D01*
X123390822Y-126646531D01*
X123376855Y-126661437D01*
X123349589Y-126677973D01*
X123304612Y-126699498D01*
X123237511Y-126729374D01*
X123237171Y-126729524D01*
X123175407Y-126757813D01*
X123124759Y-126782933D01*
X123090404Y-126802179D01*
X123077518Y-126812848D01*
X123077514Y-126812934D01*
X123088872Y-126836166D01*
X123115431Y-126861774D01*
X123145923Y-126880221D01*
X123161370Y-126883886D01*
X123203515Y-126871212D01*
X123239808Y-126839471D01*
X123257517Y-126804572D01*
X123274552Y-126778845D01*
X123307922Y-126749546D01*
X123347149Y-126724235D01*
X123381756Y-126710471D01*
X123388993Y-126709714D01*
X123397139Y-126722160D01*
X123397630Y-126753972D01*
X123391643Y-126796866D01*
X123380357Y-126842558D01*
X123364950Y-126882761D01*
X123364171Y-126884322D01*
X123317804Y-126949062D01*
X123257711Y-126993097D01*
X123189465Y-127014711D01*
X123118638Y-127012185D01*
X123050804Y-126983804D01*
X123047788Y-126981808D01*
X122994427Y-126933448D01*
X122959340Y-126870352D01*
X122939922Y-126787387D01*
X122937316Y-126764078D01*
X122932701Y-126654055D01*
X122938233Y-126602748D01*
X123077514Y-126602748D01*
X123079324Y-126634753D01*
X123089222Y-126644093D01*
X123113898Y-126637105D01*
X123152795Y-126620587D01*
X123196275Y-126599881D01*
X123197356Y-126599333D01*
X123234209Y-126579949D01*
X123249000Y-126567013D01*
X123245353Y-126553451D01*
X123229995Y-126535632D01*
X123190923Y-126509845D01*
X123148846Y-126507950D01*
X123111103Y-126526717D01*
X123085034Y-126562915D01*
X123077514Y-126602748D01*
X122938233Y-126602748D01*
X122942194Y-126566027D01*
X122966550Y-126496212D01*
X123000456Y-126447302D01*
X123061653Y-126397878D01*
X123129063Y-126373359D01*
X123197880Y-126371797D01*
X123263303Y-126391239D01*
G36*
X124470886Y-126311289D02*
G01*
X124475139Y-126370613D01*
X124480025Y-126405572D01*
X124486795Y-126420820D01*
X124496702Y-126421015D01*
X124499914Y-126419195D01*
X124542644Y-126406015D01*
X124598227Y-126406785D01*
X124654737Y-126420333D01*
X124690082Y-126437861D01*
X124726321Y-126465861D01*
X124752813Y-126497549D01*
X124770999Y-126537813D01*
X124782322Y-126591543D01*
X124788222Y-126663626D01*
X124790143Y-126758951D01*
X124790177Y-126777237D01*
X124790200Y-126982646D01*
X124744491Y-126998580D01*
X124712027Y-127009420D01*
X124694215Y-127014468D01*
X124693691Y-127014514D01*
X124691937Y-127000828D01*
X124690444Y-126963076D01*
X124689326Y-126906224D01*
X124688697Y-126835234D01*
X124688600Y-126792073D01*
X124688398Y-126706973D01*
X124687358Y-126645981D01*
X124684831Y-126604177D01*
X124680164Y-126576642D01*
X124672707Y-126558456D01*
X124661811Y-126544698D01*
X124655007Y-126538073D01*
X124608272Y-126511375D01*
X124557272Y-126509375D01*
X124511001Y-126531955D01*
X124502444Y-126540107D01*
X124489893Y-126555436D01*
X124481188Y-126573618D01*
X124475631Y-126599909D01*
X124472526Y-126639562D01*
X124471176Y-126697832D01*
X124470886Y-126778173D01*
X124470886Y-126982646D01*
X124425177Y-126998580D01*
X124392713Y-127009420D01*
X124374901Y-127014468D01*
X124374377Y-127014514D01*
X124373037Y-127000623D01*
X124371828Y-126961439D01*
X124370801Y-126900700D01*
X124370002Y-126822141D01*
X124369481Y-126729498D01*
X124369286Y-126626509D01*
X124369286Y-126229342D01*
X124416457Y-126209444D01*
X124463629Y-126189547D01*
X124470886Y-126311289D01*
G37*
X124470886Y-126311289D02*
X124475139Y-126370613D01*
X124480025Y-126405572D01*
X124486795Y-126420820D01*
X124496702Y-126421015D01*
X124499914Y-126419195D01*
X124542644Y-126406015D01*
X124598227Y-126406785D01*
X124654737Y-126420333D01*
X124690082Y-126437861D01*
X124726321Y-126465861D01*
X124752813Y-126497549D01*
X124770999Y-126537813D01*
X124782322Y-126591543D01*
X124788222Y-126663626D01*
X124790143Y-126758951D01*
X124790177Y-126777237D01*
X124790200Y-126982646D01*
X124744491Y-126998580D01*
X124712027Y-127009420D01*
X124694215Y-127014468D01*
X124693691Y-127014514D01*
X124691937Y-127000828D01*
X124690444Y-126963076D01*
X124689326Y-126906224D01*
X124688697Y-126835234D01*
X124688600Y-126792073D01*
X124688398Y-126706973D01*
X124687358Y-126645981D01*
X124684831Y-126604177D01*
X124680164Y-126576642D01*
X124672707Y-126558456D01*
X124661811Y-126544698D01*
X124655007Y-126538073D01*
X124608272Y-126511375D01*
X124557272Y-126509375D01*
X124511001Y-126531955D01*
X124502444Y-126540107D01*
X124489893Y-126555436D01*
X124481188Y-126573618D01*
X124475631Y-126599909D01*
X124472526Y-126639562D01*
X124471176Y-126697832D01*
X124470886Y-126778173D01*
X124470886Y-126982646D01*
X124425177Y-126998580D01*
X124392713Y-127009420D01*
X124374901Y-127014468D01*
X124374377Y-127014514D01*
X124373037Y-127000623D01*
X124371828Y-126961439D01*
X124370801Y-126900700D01*
X124370002Y-126822141D01*
X124369481Y-126729498D01*
X124369286Y-126626509D01*
X124369286Y-126229342D01*
X124416457Y-126209444D01*
X124463629Y-126189547D01*
X124470886Y-126311289D01*
G36*
X125134744Y-126410968D02*
G01*
X125191616Y-126432087D01*
X125192267Y-126432493D01*
X125227440Y-126458380D01*
X125253407Y-126488633D01*
X125271670Y-126528058D01*
X125283732Y-126581462D01*
X125291096Y-126653651D01*
X125295264Y-126749432D01*
X125295629Y-126763078D01*
X125300876Y-126968842D01*
X125256716Y-126991678D01*
X125224763Y-127007110D01*
X125205470Y-127014423D01*
X125204578Y-127014514D01*
X125201239Y-127001022D01*
X125198587Y-126964626D01*
X125196956Y-126911452D01*
X125196600Y-126868393D01*
X125196592Y-126798641D01*
X125193403Y-126754837D01*
X125182288Y-126733944D01*
X125158501Y-126732925D01*
X125117296Y-126748741D01*
X125055086Y-126777815D01*
X125009341Y-126801963D01*
X124985813Y-126822913D01*
X124978896Y-126845747D01*
X124978886Y-126846877D01*
X124990299Y-126886212D01*
X125024092Y-126907462D01*
X125075809Y-126910539D01*
X125113061Y-126910006D01*
X125132703Y-126920735D01*
X125144952Y-126946505D01*
X125152002Y-126979337D01*
X125141842Y-126997966D01*
X125138017Y-127000632D01*
X125102001Y-127011340D01*
X125051566Y-127012856D01*
X124999626Y-127005759D01*
X124962822Y-126992788D01*
X124911938Y-126949585D01*
X124883014Y-126889446D01*
X124877286Y-126842462D01*
X124881657Y-126800082D01*
X124897475Y-126765488D01*
X124928797Y-126734763D01*
X124979678Y-126703990D01*
X125054176Y-126669252D01*
X125058714Y-126667288D01*
X125125821Y-126636287D01*
X125167232Y-126610862D01*
X125184981Y-126588014D01*
X125181107Y-126564745D01*
X125157643Y-126538056D01*
X125150627Y-126531914D01*
X125103630Y-126508100D01*
X125054933Y-126509103D01*
X125012522Y-126532451D01*
X124984384Y-126575675D01*
X124981769Y-126584160D01*
X124956308Y-126625308D01*
X124924001Y-126645128D01*
X124877286Y-126664770D01*
X124877286Y-126613950D01*
X124891496Y-126540082D01*
X124933675Y-126472327D01*
X124955624Y-126449661D01*
X125005517Y-126420569D01*
X125068967Y-126407400D01*
X125134744Y-126410968D01*
G37*
X125134744Y-126410968D02*
X125191616Y-126432087D01*
X125192267Y-126432493D01*
X125227440Y-126458380D01*
X125253407Y-126488633D01*
X125271670Y-126528058D01*
X125283732Y-126581462D01*
X125291096Y-126653651D01*
X125295264Y-126749432D01*
X125295629Y-126763078D01*
X125300876Y-126968842D01*
X125256716Y-126991678D01*
X125224763Y-127007110D01*
X125205470Y-127014423D01*
X125204578Y-127014514D01*
X125201239Y-127001022D01*
X125198587Y-126964626D01*
X125196956Y-126911452D01*
X125196600Y-126868393D01*
X125196592Y-126798641D01*
X125193403Y-126754837D01*
X125182288Y-126733944D01*
X125158501Y-126732925D01*
X125117296Y-126748741D01*
X125055086Y-126777815D01*
X125009341Y-126801963D01*
X124985813Y-126822913D01*
X124978896Y-126845747D01*
X124978886Y-126846877D01*
X124990299Y-126886212D01*
X125024092Y-126907462D01*
X125075809Y-126910539D01*
X125113061Y-126910006D01*
X125132703Y-126920735D01*
X125144952Y-126946505D01*
X125152002Y-126979337D01*
X125141842Y-126997966D01*
X125138017Y-127000632D01*
X125102001Y-127011340D01*
X125051566Y-127012856D01*
X124999626Y-127005759D01*
X124962822Y-126992788D01*
X124911938Y-126949585D01*
X124883014Y-126889446D01*
X124877286Y-126842462D01*
X124881657Y-126800082D01*
X124897475Y-126765488D01*
X124928797Y-126734763D01*
X124979678Y-126703990D01*
X125054176Y-126669252D01*
X125058714Y-126667288D01*
X125125821Y-126636287D01*
X125167232Y-126610862D01*
X125184981Y-126588014D01*
X125181107Y-126564745D01*
X125157643Y-126538056D01*
X125150627Y-126531914D01*
X125103630Y-126508100D01*
X125054933Y-126509103D01*
X125012522Y-126532451D01*
X124984384Y-126575675D01*
X124981769Y-126584160D01*
X124956308Y-126625308D01*
X124924001Y-126645128D01*
X124877286Y-126664770D01*
X124877286Y-126613950D01*
X124891496Y-126540082D01*
X124933675Y-126472327D01*
X124955624Y-126449661D01*
X125005517Y-126420569D01*
X125068967Y-126407400D01*
X125134744Y-126410968D01*
G36*
X125624926Y-126409755D02*
G01*
X125690858Y-126434084D01*
X125744273Y-126477117D01*
X125765164Y-126507409D01*
X125787939Y-126562994D01*
X125787466Y-126603186D01*
X125763562Y-126630217D01*
X125754717Y-126634813D01*
X125716530Y-126649144D01*
X125697028Y-126645472D01*
X125690422Y-126621407D01*
X125690086Y-126608114D01*
X125677992Y-126559210D01*
X125646471Y-126524999D01*
X125602659Y-126508476D01*
X125553695Y-126512634D01*
X125513894Y-126534227D01*
X125500450Y-126546544D01*
X125490921Y-126561487D01*
X125484485Y-126584075D01*
X125480317Y-126619328D01*
X125477597Y-126672266D01*
X125475502Y-126747907D01*
X125474960Y-126771857D01*
X125472981Y-126853790D01*
X125470731Y-126911455D01*
X125467357Y-126949608D01*
X125462006Y-126973004D01*
X125453824Y-126986398D01*
X125441959Y-126994545D01*
X125434362Y-126998144D01*
X125402102Y-127010452D01*
X125383111Y-127014514D01*
X125376836Y-127000948D01*
X125373006Y-126959934D01*
X125371600Y-126890999D01*
X125372598Y-126793669D01*
X125372908Y-126778657D01*
X125375101Y-126689859D01*
X125377693Y-126625019D01*
X125381382Y-126579067D01*
X125386864Y-126546935D01*
X125394835Y-126523553D01*
X125405993Y-126503852D01*
X125411830Y-126495410D01*
X125445296Y-126458057D01*
X125482727Y-126429003D01*
X125487309Y-126426467D01*
X125554426Y-126406443D01*
X125624926Y-126409755D01*
G37*
X125624926Y-126409755D02*
X125690858Y-126434084D01*
X125744273Y-126477117D01*
X125765164Y-126507409D01*
X125787939Y-126562994D01*
X125787466Y-126603186D01*
X125763562Y-126630217D01*
X125754717Y-126634813D01*
X125716530Y-126649144D01*
X125697028Y-126645472D01*
X125690422Y-126621407D01*
X125690086Y-126608114D01*
X125677992Y-126559210D01*
X125646471Y-126524999D01*
X125602659Y-126508476D01*
X125553695Y-126512634D01*
X125513894Y-126534227D01*
X125500450Y-126546544D01*
X125490921Y-126561487D01*
X125484485Y-126584075D01*
X125480317Y-126619328D01*
X125477597Y-126672266D01*
X125475502Y-126747907D01*
X125474960Y-126771857D01*
X125472981Y-126853790D01*
X125470731Y-126911455D01*
X125467357Y-126949608D01*
X125462006Y-126973004D01*
X125453824Y-126986398D01*
X125441959Y-126994545D01*
X125434362Y-126998144D01*
X125402102Y-127010452D01*
X125383111Y-127014514D01*
X125376836Y-127000948D01*
X125373006Y-126959934D01*
X125371600Y-126890999D01*
X125372598Y-126793669D01*
X125372908Y-126778657D01*
X125375101Y-126689859D01*
X125377693Y-126625019D01*
X125381382Y-126579067D01*
X125386864Y-126546935D01*
X125394835Y-126523553D01*
X125405993Y-126503852D01*
X125411830Y-126495410D01*
X125445296Y-126458057D01*
X125482727Y-126429003D01*
X125487309Y-126426467D01*
X125554426Y-126406443D01*
X125624926Y-126409755D01*
G36*
X126285117Y-126525358D02*
G01*
X126284933Y-126633837D01*
X126284219Y-126717287D01*
X126282675Y-126779704D01*
X126280001Y-126825085D01*
X126275894Y-126857429D01*
X126270055Y-126880733D01*
X126262182Y-126898995D01*
X126256221Y-126909418D01*
X126206855Y-126965945D01*
X126144264Y-127001377D01*
X126075013Y-127014090D01*
X126005668Y-127002463D01*
X125964375Y-126981568D01*
X125921025Y-126945422D01*
X125891481Y-126901276D01*
X125873655Y-126843462D01*
X125865463Y-126766313D01*
X125864302Y-126709714D01*
X125864458Y-126705647D01*
X125965857Y-126705647D01*
X125966476Y-126770550D01*
X125969314Y-126813514D01*
X125975840Y-126841622D01*
X125987523Y-126861953D01*
X126001483Y-126877288D01*
X126048365Y-126906890D01*
X126098701Y-126909419D01*
X126146276Y-126884705D01*
X126149979Y-126881356D01*
X126165783Y-126863935D01*
X126175693Y-126843209D01*
X126181058Y-126812362D01*
X126183228Y-126764577D01*
X126183571Y-126711748D01*
X126182827Y-126645381D01*
X126179748Y-126601106D01*
X126173061Y-126572009D01*
X126161496Y-126551173D01*
X126152013Y-126540107D01*
X126107960Y-126512198D01*
X126057224Y-126508843D01*
X126008796Y-126530159D01*
X125999450Y-126538073D01*
X125983540Y-126555647D01*
X125973610Y-126576587D01*
X125968278Y-126607782D01*
X125966163Y-126656122D01*
X125965857Y-126705647D01*
X125864458Y-126705647D01*
X125867810Y-126618568D01*
X125879726Y-126550086D01*
X125902135Y-126498600D01*
X125937124Y-126458443D01*
X125964375Y-126437861D01*
X126013907Y-126415625D01*
X126071316Y-126405304D01*
X126124682Y-126408067D01*
X126154543Y-126419212D01*
X126166261Y-126422383D01*
X126174037Y-126410557D01*
X126179465Y-126378866D01*
X126183571Y-126330593D01*
X126188067Y-126276829D01*
X126194313Y-126244482D01*
X126205676Y-126225985D01*
X126225528Y-126213770D01*
X126238000Y-126208362D01*
X126285171Y-126188601D01*
X126285117Y-126525358D01*
G37*
X126285117Y-126525358D02*
X126284933Y-126633837D01*
X126284219Y-126717287D01*
X126282675Y-126779704D01*
X126280001Y-126825085D01*
X126275894Y-126857429D01*
X126270055Y-126880733D01*
X126262182Y-126898995D01*
X126256221Y-126909418D01*
X126206855Y-126965945D01*
X126144264Y-127001377D01*
X126075013Y-127014090D01*
X126005668Y-127002463D01*
X125964375Y-126981568D01*
X125921025Y-126945422D01*
X125891481Y-126901276D01*
X125873655Y-126843462D01*
X125865463Y-126766313D01*
X125864302Y-126709714D01*
X125864458Y-126705647D01*
X125965857Y-126705647D01*
X125966476Y-126770550D01*
X125969314Y-126813514D01*
X125975840Y-126841622D01*
X125987523Y-126861953D01*
X126001483Y-126877288D01*
X126048365Y-126906890D01*
X126098701Y-126909419D01*
X126146276Y-126884705D01*
X126149979Y-126881356D01*
X126165783Y-126863935D01*
X126175693Y-126843209D01*
X126181058Y-126812362D01*
X126183228Y-126764577D01*
X126183571Y-126711748D01*
X126182827Y-126645381D01*
X126179748Y-126601106D01*
X126173061Y-126572009D01*
X126161496Y-126551173D01*
X126152013Y-126540107D01*
X126107960Y-126512198D01*
X126057224Y-126508843D01*
X126008796Y-126530159D01*
X125999450Y-126538073D01*
X125983540Y-126555647D01*
X125973610Y-126576587D01*
X125968278Y-126607782D01*
X125966163Y-126656122D01*
X125965857Y-126705647D01*
X125864458Y-126705647D01*
X125867810Y-126618568D01*
X125879726Y-126550086D01*
X125902135Y-126498600D01*
X125937124Y-126458443D01*
X125964375Y-126437861D01*
X126013907Y-126415625D01*
X126071316Y-126405304D01*
X126124682Y-126408067D01*
X126154543Y-126419212D01*
X126166261Y-126422383D01*
X126174037Y-126410557D01*
X126179465Y-126378866D01*
X126183571Y-126330593D01*
X126188067Y-126276829D01*
X126194313Y-126244482D01*
X126205676Y-126225985D01*
X126225528Y-126213770D01*
X126238000Y-126208362D01*
X126285171Y-126188601D01*
X126285117Y-126525358D01*
G36*
X126874833Y-126418663D02*
G01*
X126877048Y-126456850D01*
X126878784Y-126514886D01*
X126879899Y-126588180D01*
X126880257Y-126665055D01*
X126880257Y-126925196D01*
X126834326Y-126971127D01*
X126802675Y-126999429D01*
X126774890Y-127010893D01*
X126736915Y-127010168D01*
X126721840Y-127008321D01*
X126674726Y-127002948D01*
X126635756Y-126999869D01*
X126626257Y-126999585D01*
X126594233Y-127001445D01*
X126548432Y-127006114D01*
X126530674Y-127008321D01*
X126487057Y-127011735D01*
X126457745Y-127004320D01*
X126428680Y-126981427D01*
X126418188Y-126971127D01*
X126372257Y-126925196D01*
X126372257Y-126438602D01*
X126409226Y-126421758D01*
X126441059Y-126409282D01*
X126459683Y-126404914D01*
X126464458Y-126418718D01*
X126468921Y-126457286D01*
X126472775Y-126516356D01*
X126475722Y-126591663D01*
X126477143Y-126655286D01*
X126481114Y-126905657D01*
X126515759Y-126910556D01*
X126547268Y-126907131D01*
X126562708Y-126896041D01*
X126567023Y-126875308D01*
X126570708Y-126831145D01*
X126573469Y-126769146D01*
X126575012Y-126694909D01*
X126575235Y-126656706D01*
X126575457Y-126436783D01*
X126621166Y-126420849D01*
X126653518Y-126410015D01*
X126671115Y-126404962D01*
X126671623Y-126404914D01*
X126673388Y-126418648D01*
X126675329Y-126456730D01*
X126677282Y-126514482D01*
X126679084Y-126587227D01*
X126680343Y-126655286D01*
X126684314Y-126905657D01*
X126771400Y-126905657D01*
X126775396Y-126677240D01*
X126779392Y-126448822D01*
X126821847Y-126426868D01*
X126853192Y-126411793D01*
X126871744Y-126404951D01*
X126872279Y-126404914D01*
X126874833Y-126418663D01*
G37*
X126874833Y-126418663D02*
X126877048Y-126456850D01*
X126878784Y-126514886D01*
X126879899Y-126588180D01*
X126880257Y-126665055D01*
X126880257Y-126925196D01*
X126834326Y-126971127D01*
X126802675Y-126999429D01*
X126774890Y-127010893D01*
X126736915Y-127010168D01*
X126721840Y-127008321D01*
X126674726Y-127002948D01*
X126635756Y-126999869D01*
X126626257Y-126999585D01*
X126594233Y-127001445D01*
X126548432Y-127006114D01*
X126530674Y-127008321D01*
X126487057Y-127011735D01*
X126457745Y-127004320D01*
X126428680Y-126981427D01*
X126418188Y-126971127D01*
X126372257Y-126925196D01*
X126372257Y-126438602D01*
X126409226Y-126421758D01*
X126441059Y-126409282D01*
X126459683Y-126404914D01*
X126464458Y-126418718D01*
X126468921Y-126457286D01*
X126472775Y-126516356D01*
X126475722Y-126591663D01*
X126477143Y-126655286D01*
X126481114Y-126905657D01*
X126515759Y-126910556D01*
X126547268Y-126907131D01*
X126562708Y-126896041D01*
X126567023Y-126875308D01*
X126570708Y-126831145D01*
X126573469Y-126769146D01*
X126575012Y-126694909D01*
X126575235Y-126656706D01*
X126575457Y-126436783D01*
X126621166Y-126420849D01*
X126653518Y-126410015D01*
X126671115Y-126404962D01*
X126671623Y-126404914D01*
X126673388Y-126418648D01*
X126675329Y-126456730D01*
X126677282Y-126514482D01*
X126679084Y-126587227D01*
X126680343Y-126655286D01*
X126684314Y-126905657D01*
X126771400Y-126905657D01*
X126775396Y-126677240D01*
X126779392Y-126448822D01*
X126821847Y-126426868D01*
X126853192Y-126411793D01*
X126871744Y-126404951D01*
X126872279Y-126404914D01*
X126874833Y-126418663D01*
G36*
X127239876Y-126416335D02*
G01*
X127281667Y-126435344D01*
X127314469Y-126458378D01*
X127338503Y-126484133D01*
X127355097Y-126517358D01*
X127365577Y-126562800D01*
X127371271Y-126625207D01*
X127373507Y-126709327D01*
X127373743Y-126764721D01*
X127373743Y-126980826D01*
X127336774Y-126997670D01*
X127307656Y-127009981D01*
X127293231Y-127014514D01*
X127290472Y-127001025D01*
X127288282Y-126964653D01*
X127286942Y-126911542D01*
X127286657Y-126869372D01*
X127285434Y-126808447D01*
X127282136Y-126760115D01*
X127277321Y-126730518D01*
X127273496Y-126724229D01*
X127247783Y-126730652D01*
X127207418Y-126747125D01*
X127160679Y-126769458D01*
X127115845Y-126793457D01*
X127081193Y-126814930D01*
X127065002Y-126829685D01*
X127064938Y-126829845D01*
X127066330Y-126857152D01*
X127078818Y-126883219D01*
X127100743Y-126904392D01*
X127132743Y-126911474D01*
X127160092Y-126910649D01*
X127198826Y-126910042D01*
X127219158Y-126919116D01*
X127231369Y-126943092D01*
X127232909Y-126947613D01*
X127238203Y-126981806D01*
X127224047Y-127002568D01*
X127187148Y-127012462D01*
X127147289Y-127014292D01*
X127075562Y-127000727D01*
X127038432Y-126981355D01*
X126992576Y-126935845D01*
X126968256Y-126879983D01*
X126966073Y-126820957D01*
X126986629Y-126765953D01*
X127017549Y-126731486D01*
X127048420Y-126712189D01*
X127096942Y-126687759D01*
X127153485Y-126662985D01*
X127162910Y-126659199D01*
X127225019Y-126631791D01*
X127260822Y-126607634D01*
X127272337Y-126583619D01*
X127261580Y-126556635D01*
X127243114Y-126535543D01*
X127199469Y-126509572D01*
X127151446Y-126507624D01*
X127107406Y-126527637D01*
X127075709Y-126567551D01*
X127071549Y-126577848D01*
X127047327Y-126615724D01*
X127011965Y-126643842D01*
X126967343Y-126666917D01*
X126967343Y-126601485D01*
X126969969Y-126561506D01*
X126981230Y-126529997D01*
X127006199Y-126496378D01*
X127030169Y-126470484D01*
X127067441Y-126433817D01*
X127096401Y-126414121D01*
X127127505Y-126406220D01*
X127162713Y-126404914D01*
X127239876Y-126416335D01*
G37*
X127239876Y-126416335D02*
X127281667Y-126435344D01*
X127314469Y-126458378D01*
X127338503Y-126484133D01*
X127355097Y-126517358D01*
X127365577Y-126562800D01*
X127371271Y-126625207D01*
X127373507Y-126709327D01*
X127373743Y-126764721D01*
X127373743Y-126980826D01*
X127336774Y-126997670D01*
X127307656Y-127009981D01*
X127293231Y-127014514D01*
X127290472Y-127001025D01*
X127288282Y-126964653D01*
X127286942Y-126911542D01*
X127286657Y-126869372D01*
X127285434Y-126808447D01*
X127282136Y-126760115D01*
X127277321Y-126730518D01*
X127273496Y-126724229D01*
X127247783Y-126730652D01*
X127207418Y-126747125D01*
X127160679Y-126769458D01*
X127115845Y-126793457D01*
X127081193Y-126814930D01*
X127065002Y-126829685D01*
X127064938Y-126829845D01*
X127066330Y-126857152D01*
X127078818Y-126883219D01*
X127100743Y-126904392D01*
X127132743Y-126911474D01*
X127160092Y-126910649D01*
X127198826Y-126910042D01*
X127219158Y-126919116D01*
X127231369Y-126943092D01*
X127232909Y-126947613D01*
X127238203Y-126981806D01*
X127224047Y-127002568D01*
X127187148Y-127012462D01*
X127147289Y-127014292D01*
X127075562Y-127000727D01*
X127038432Y-126981355D01*
X126992576Y-126935845D01*
X126968256Y-126879983D01*
X126966073Y-126820957D01*
X126986629Y-126765953D01*
X127017549Y-126731486D01*
X127048420Y-126712189D01*
X127096942Y-126687759D01*
X127153485Y-126662985D01*
X127162910Y-126659199D01*
X127225019Y-126631791D01*
X127260822Y-126607634D01*
X127272337Y-126583619D01*
X127261580Y-126556635D01*
X127243114Y-126535543D01*
X127199469Y-126509572D01*
X127151446Y-126507624D01*
X127107406Y-126527637D01*
X127075709Y-126567551D01*
X127071549Y-126577848D01*
X127047327Y-126615724D01*
X127011965Y-126643842D01*
X126967343Y-126666917D01*
X126967343Y-126601485D01*
X126969969Y-126561506D01*
X126981230Y-126529997D01*
X127006199Y-126496378D01*
X127030169Y-126470484D01*
X127067441Y-126433817D01*
X127096401Y-126414121D01*
X127127505Y-126406220D01*
X127162713Y-126404914D01*
X127239876Y-126416335D01*
G36*
X127747600Y-126418752D02*
G01*
X127764948Y-126426334D01*
X127806356Y-126459128D01*
X127841765Y-126506547D01*
X127863664Y-126557151D01*
X127867229Y-126582098D01*
X127855279Y-126616927D01*
X127829067Y-126635357D01*
X127800964Y-126646516D01*
X127788095Y-126648572D01*
X127781829Y-126633649D01*
X127769456Y-126601175D01*
X127764028Y-126586502D01*
X127733590Y-126535744D01*
X127689520Y-126510427D01*
X127633010Y-126511206D01*
X127628825Y-126512203D01*
X127598655Y-126526507D01*
X127576476Y-126554393D01*
X127561327Y-126599287D01*
X127552250Y-126664615D01*
X127548286Y-126753804D01*
X127547914Y-126801261D01*
X127547730Y-126876071D01*
X127546522Y-126927069D01*
X127543309Y-126959471D01*
X127537109Y-126978495D01*
X127526940Y-126989356D01*
X127511819Y-126997272D01*
X127510946Y-126997670D01*
X127481828Y-127009981D01*
X127467403Y-127014514D01*
X127465186Y-127000809D01*
X127463289Y-126962925D01*
X127461847Y-126905715D01*
X127460998Y-126834027D01*
X127460829Y-126781565D01*
X127461692Y-126680047D01*
X127465070Y-126603032D01*
X127472142Y-126546023D01*
X127484088Y-126504526D01*
X127502090Y-126474043D01*
X127527327Y-126450080D01*
X127552247Y-126433355D01*
X127612171Y-126411097D01*
X127681911Y-126406076D01*
X127747600Y-126418752D01*
G37*
X127747600Y-126418752D02*
X127764948Y-126426334D01*
X127806356Y-126459128D01*
X127841765Y-126506547D01*
X127863664Y-126557151D01*
X127867229Y-126582098D01*
X127855279Y-126616927D01*
X127829067Y-126635357D01*
X127800964Y-126646516D01*
X127788095Y-126648572D01*
X127781829Y-126633649D01*
X127769456Y-126601175D01*
X127764028Y-126586502D01*
X127733590Y-126535744D01*
X127689520Y-126510427D01*
X127633010Y-126511206D01*
X127628825Y-126512203D01*
X127598655Y-126526507D01*
X127576476Y-126554393D01*
X127561327Y-126599287D01*
X127552250Y-126664615D01*
X127548286Y-126753804D01*
X127547914Y-126801261D01*
X127547730Y-126876071D01*
X127546522Y-126927069D01*
X127543309Y-126959471D01*
X127537109Y-126978495D01*
X127526940Y-126989356D01*
X127511819Y-126997272D01*
X127510946Y-126997670D01*
X127481828Y-127009981D01*
X127467403Y-127014514D01*
X127465186Y-127000809D01*
X127463289Y-126962925D01*
X127461847Y-126905715D01*
X127460998Y-126834027D01*
X127460829Y-126781565D01*
X127461692Y-126680047D01*
X127465070Y-126603032D01*
X127472142Y-126546023D01*
X127484088Y-126504526D01*
X127502090Y-126474043D01*
X127527327Y-126450080D01*
X127552247Y-126433355D01*
X127612171Y-126411097D01*
X127681911Y-126406076D01*
X127747600Y-126418752D01*
G36*
X128248595Y-126426966D02*
G01*
X128306021Y-126464497D01*
X128333719Y-126498096D01*
X128355662Y-126559064D01*
X128357405Y-126607308D01*
X128353457Y-126671816D01*
X128204686Y-126736934D01*
X128132349Y-126770202D01*
X128085084Y-126796964D01*
X128060507Y-126820144D01*
X128056237Y-126842667D01*
X128069889Y-126867455D01*
X128084943Y-126883886D01*
X128128746Y-126910235D01*
X128176389Y-126912081D01*
X128220145Y-126891546D01*
X128252289Y-126850752D01*
X128258038Y-126836347D01*
X128285576Y-126791356D01*
X128317258Y-126772182D01*
X128360714Y-126755779D01*
X128360714Y-126817966D01*
X128356872Y-126860283D01*
X128341823Y-126895969D01*
X128310280Y-126936943D01*
X128305592Y-126942267D01*
X128270506Y-126978720D01*
X128240347Y-126998283D01*
X128202615Y-127007283D01*
X128171335Y-127010230D01*
X128115385Y-127010965D01*
X128075555Y-127001660D01*
X128050708Y-126987846D01*
X128011656Y-126957467D01*
X127984625Y-126924613D01*
X127967517Y-126883294D01*
X127958238Y-126827521D01*
X127954693Y-126751305D01*
X127954410Y-126712622D01*
X127955372Y-126666247D01*
X128043007Y-126666247D01*
X128044023Y-126691126D01*
X128046556Y-126695200D01*
X128063274Y-126689665D01*
X128099249Y-126675017D01*
X128147331Y-126654190D01*
X128157386Y-126649714D01*
X128218152Y-126618814D01*
X128251632Y-126591657D01*
X128258990Y-126566220D01*
X128241391Y-126540481D01*
X128226856Y-126529109D01*
X128174410Y-126506364D01*
X128125322Y-126510122D01*
X128084227Y-126537884D01*
X128055758Y-126587152D01*
X128046631Y-126626257D01*
X128043007Y-126666247D01*
X127955372Y-126666247D01*
X127956285Y-126622249D01*
X127963196Y-126555384D01*
X127976884Y-126506695D01*
X127999096Y-126470849D01*
X128031574Y-126442513D01*
X128045733Y-126433355D01*
X128110053Y-126409507D01*
X128180473Y-126408006D01*
X128248595Y-126426966D01*
G37*
X128248595Y-126426966D02*
X128306021Y-126464497D01*
X128333719Y-126498096D01*
X128355662Y-126559064D01*
X128357405Y-126607308D01*
X128353457Y-126671816D01*
X128204686Y-126736934D01*
X128132349Y-126770202D01*
X128085084Y-126796964D01*
X128060507Y-126820144D01*
X128056237Y-126842667D01*
X128069889Y-126867455D01*
X128084943Y-126883886D01*
X128128746Y-126910235D01*
X128176389Y-126912081D01*
X128220145Y-126891546D01*
X128252289Y-126850752D01*
X128258038Y-126836347D01*
X128285576Y-126791356D01*
X128317258Y-126772182D01*
X128360714Y-126755779D01*
X128360714Y-126817966D01*
X128356872Y-126860283D01*
X128341823Y-126895969D01*
X128310280Y-126936943D01*
X128305592Y-126942267D01*
X128270506Y-126978720D01*
X128240347Y-126998283D01*
X128202615Y-127007283D01*
X128171335Y-127010230D01*
X128115385Y-127010965D01*
X128075555Y-127001660D01*
X128050708Y-126987846D01*
X128011656Y-126957467D01*
X127984625Y-126924613D01*
X127967517Y-126883294D01*
X127958238Y-126827521D01*
X127954693Y-126751305D01*
X127954410Y-126712622D01*
X127955372Y-126666247D01*
X128043007Y-126666247D01*
X128044023Y-126691126D01*
X128046556Y-126695200D01*
X128063274Y-126689665D01*
X128099249Y-126675017D01*
X128147331Y-126654190D01*
X128157386Y-126649714D01*
X128218152Y-126618814D01*
X128251632Y-126591657D01*
X128258990Y-126566220D01*
X128241391Y-126540481D01*
X128226856Y-126529109D01*
X128174410Y-126506364D01*
X128125322Y-126510122D01*
X128084227Y-126537884D01*
X128055758Y-126587152D01*
X128046631Y-126626257D01*
X128043007Y-126666247D01*
X127955372Y-126666247D01*
X127956285Y-126622249D01*
X127963196Y-126555384D01*
X127976884Y-126506695D01*
X127999096Y-126470849D01*
X128031574Y-126442513D01*
X128045733Y-126433355D01*
X128110053Y-126409507D01*
X128180473Y-126408006D01*
X128248595Y-126426966D01*
G36*
X125198910Y-121702348D02*
G01*
X125277454Y-121702778D01*
X125334298Y-121703942D01*
X125373105Y-121706207D01*
X125397538Y-121709940D01*
X125411262Y-121715506D01*
X125417940Y-121723273D01*
X125421236Y-121733605D01*
X125421556Y-121734943D01*
X125426562Y-121759079D01*
X125435829Y-121806701D01*
X125448392Y-121872741D01*
X125463287Y-121952128D01*
X125479551Y-122039796D01*
X125480119Y-122042875D01*
X125496410Y-122128789D01*
X125511652Y-122204696D01*
X125524861Y-122266045D01*
X125535054Y-122308282D01*
X125541248Y-122326855D01*
X125541543Y-122327184D01*
X125559788Y-122336253D01*
X125597405Y-122351367D01*
X125646271Y-122369262D01*
X125646543Y-122369358D01*
X125708093Y-122392493D01*
X125780657Y-122421965D01*
X125849057Y-122451597D01*
X125852294Y-122453062D01*
X125963702Y-122503626D01*
X126210399Y-122335160D01*
X126286077Y-122283803D01*
X126354631Y-122237889D01*
X126412088Y-122200030D01*
X126454476Y-122172837D01*
X126477825Y-122158921D01*
X126480042Y-122157889D01*
X126497010Y-122162484D01*
X126528701Y-122184655D01*
X126576352Y-122225447D01*
X126641198Y-122285905D01*
X126707397Y-122350227D01*
X126771214Y-122413612D01*
X126828329Y-122471451D01*
X126875305Y-122520175D01*
X126908703Y-122556210D01*
X126925085Y-122575984D01*
X126925694Y-122577002D01*
X126927505Y-122590572D01*
X126920683Y-122612733D01*
X126903540Y-122646478D01*
X126874393Y-122694800D01*
X126831555Y-122760692D01*
X126774448Y-122845517D01*
X126723766Y-122920177D01*
X126678461Y-122987140D01*
X126641150Y-123042516D01*
X126614452Y-123082420D01*
X126600985Y-123102962D01*
X126600137Y-123104356D01*
X126601781Y-123124038D01*
X126614245Y-123162293D01*
X126635048Y-123211889D01*
X126642462Y-123227728D01*
X126674814Y-123298290D01*
X126709328Y-123378353D01*
X126737365Y-123447629D01*
X126757568Y-123499045D01*
X126773615Y-123538119D01*
X126782888Y-123558541D01*
X126784041Y-123560114D01*
X126801096Y-123562721D01*
X126841298Y-123569863D01*
X126899302Y-123580523D01*
X126969763Y-123593685D01*
X127047335Y-123608333D01*
X127126672Y-123623449D01*
X127202431Y-123638018D01*
X127269264Y-123651022D01*
X127321828Y-123661445D01*
X127354776Y-123668270D01*
X127362857Y-123670199D01*
X127371205Y-123674962D01*
X127377506Y-123685718D01*
X127382045Y-123706098D01*
X127385104Y-123739734D01*
X127386967Y-123790255D01*
X127387918Y-123861292D01*
X127388240Y-123956476D01*
X127388257Y-123995492D01*
X127388257Y-124312799D01*
X127312057Y-124327839D01*
X127269663Y-124335995D01*
X127206400Y-124347899D01*
X127129962Y-124362116D01*
X127048043Y-124377210D01*
X127025400Y-124381355D01*
X126949806Y-124396053D01*
X126883953Y-124410505D01*
X126833366Y-124423375D01*
X126803574Y-124433322D01*
X126798612Y-124436287D01*
X126786426Y-124457283D01*
X126768953Y-124497967D01*
X126749577Y-124550322D01*
X126745734Y-124561600D01*
X126720339Y-124631523D01*
X126688817Y-124710418D01*
X126657969Y-124781266D01*
X126657817Y-124781595D01*
X126606447Y-124892733D01*
X126775399Y-125141253D01*
X126944352Y-125389772D01*
X126727429Y-125607058D01*
X126661819Y-125671726D01*
X126601979Y-125728733D01*
X126551267Y-125775033D01*
X126513046Y-125807584D01*
X126490675Y-125823343D01*
X126487466Y-125824343D01*
X126468626Y-125816469D01*
X126430180Y-125794578D01*
X126376330Y-125761267D01*
X126311276Y-125719131D01*
X126240940Y-125671943D01*
X126169555Y-125623810D01*
X126105908Y-125581928D01*
X126054041Y-125548871D01*
X126017995Y-125527218D01*
X126001867Y-125519543D01*
X125982189Y-125526037D01*
X125944875Y-125543150D01*
X125897621Y-125567326D01*
X125892612Y-125570013D01*
X125828977Y-125601927D01*
X125785341Y-125617579D01*
X125758202Y-125617745D01*
X125744057Y-125603204D01*
X125743975Y-125603000D01*
X125736905Y-125585779D01*
X125720042Y-125544899D01*
X125694695Y-125483525D01*
X125662171Y-125404819D01*
X125623778Y-125311947D01*
X125580822Y-125208072D01*
X125539222Y-125107502D01*
X125493504Y-124996516D01*
X125451526Y-124893703D01*
X125414548Y-124802215D01*
X125383827Y-124725201D01*
X125360622Y-124665815D01*
X125346190Y-124627209D01*
X125341743Y-124612800D01*
X125352896Y-124596272D01*
X125382069Y-124569930D01*
X125420971Y-124540887D01*
X125531757Y-124449039D01*
X125618351Y-124343759D01*
X125679716Y-124227266D01*
X125714815Y-124101776D01*
X125722608Y-123969507D01*
X125716943Y-123908457D01*
X125686078Y-123781795D01*
X125632920Y-123669941D01*
X125560767Y-123574001D01*
X125472917Y-123495076D01*
X125372665Y-123434270D01*
X125263310Y-123392687D01*
X125148147Y-123371428D01*
X125030475Y-123371599D01*
X124913590Y-123394301D01*
X124800789Y-123440638D01*
X124695369Y-123511713D01*
X124651368Y-123551911D01*
X124566979Y-123655129D01*
X124508222Y-123767925D01*
X124474704Y-123887010D01*
X124466035Y-124009095D01*
X124481823Y-124130893D01*
X124521678Y-124249116D01*
X124585207Y-124360475D01*
X124672021Y-124461684D01*
X124769029Y-124540887D01*
X124809437Y-124571162D01*
X124837982Y-124597219D01*
X124848257Y-124612825D01*
X124842877Y-124629843D01*
X124827575Y-124670500D01*
X124803612Y-124731642D01*
X124772244Y-124810119D01*
X124734732Y-124902780D01*
X124692333Y-125006472D01*
X124650663Y-125107526D01*
X124604690Y-125218607D01*
X124562107Y-125321541D01*
X124524221Y-125413165D01*
X124492340Y-125490316D01*
X124467771Y-125549831D01*
X124451820Y-125588544D01*
X124445910Y-125603000D01*
X124431948Y-125617685D01*
X124404940Y-125617642D01*
X124361413Y-125602099D01*
X124297890Y-125570284D01*
X124297388Y-125570013D01*
X124249560Y-125545323D01*
X124210897Y-125527338D01*
X124189095Y-125519614D01*
X124188133Y-125519543D01*
X124171721Y-125527378D01*
X124135487Y-125549165D01*
X124083474Y-125582328D01*
X124019725Y-125624291D01*
X123949060Y-125671943D01*
X123877116Y-125720191D01*
X123812274Y-125762151D01*
X123758735Y-125795227D01*
X123720697Y-125816821D01*
X123702533Y-125824343D01*
X123685808Y-125814457D01*
X123652180Y-125786826D01*
X123605010Y-125744495D01*
X123547658Y-125690505D01*
X123483484Y-125627899D01*
X123462497Y-125606983D01*
X123245499Y-125389623D01*
X123410668Y-125147220D01*
X123460864Y-125072781D01*
X123504919Y-125005972D01*
X123540362Y-124950665D01*
X123564719Y-124910729D01*
X123575522Y-124890036D01*
X123575838Y-124888563D01*
X123570143Y-124869058D01*
X123554826Y-124829822D01*
X123532537Y-124777430D01*
X123516893Y-124742355D01*
X123487641Y-124675201D01*
X123460094Y-124607358D01*
X123438737Y-124550034D01*
X123432935Y-124532572D01*
X123416452Y-124485938D01*
X123400340Y-124449905D01*
X123391490Y-124436287D01*
X123371960Y-124427952D01*
X123329334Y-124416137D01*
X123269145Y-124402181D01*
X123196922Y-124387422D01*
X123164600Y-124381355D01*
X123082522Y-124366273D01*
X123003795Y-124351669D01*
X122936109Y-124338980D01*
X122887160Y-124329642D01*
X122877943Y-124327839D01*
X122801743Y-124312799D01*
X122801743Y-123995492D01*
X122801914Y-123891154D01*
X122802616Y-123812213D01*
X122804134Y-123755038D01*
X122806749Y-123715999D01*
X122810746Y-123691465D01*
X122816409Y-123677805D01*
X122824020Y-123671389D01*
X122827143Y-123670199D01*
X122845978Y-123665980D01*
X122887588Y-123657562D01*
X122946630Y-123645961D01*
X123017757Y-123632195D01*
X123095625Y-123617280D01*
X123174887Y-123602232D01*
X123250198Y-123588069D01*
X123316213Y-123575806D01*
X123367587Y-123566461D01*
X123398975Y-123561050D01*
X123405959Y-123560114D01*
X123412285Y-123547596D01*
X123426290Y-123514246D01*
X123445355Y-123466377D01*
X123452634Y-123447629D01*
X123481996Y-123375195D01*
X123516571Y-123295170D01*
X123547537Y-123227728D01*
X123570323Y-123176159D01*
X123585482Y-123133785D01*
X123590542Y-123107834D01*
X123589736Y-123104356D01*
X123579041Y-123087936D01*
X123554620Y-123051417D01*
X123519095Y-122998687D01*
X123475087Y-122933635D01*
X123425217Y-122860151D01*
X123415356Y-122845645D01*
X123357492Y-122759704D01*
X123314956Y-122694261D01*
X123286054Y-122646304D01*
X123269090Y-122612820D01*
X123262367Y-122590795D01*
X123264190Y-122577217D01*
X123264236Y-122577131D01*
X123278586Y-122559297D01*
X123310323Y-122524817D01*
X123356010Y-122477268D01*
X123412204Y-122420222D01*
X123475468Y-122357255D01*
X123482602Y-122350227D01*
X123562330Y-122273020D01*
X123623857Y-122216330D01*
X123668421Y-122179110D01*
X123697257Y-122160315D01*
X123709958Y-122157889D01*
X123728494Y-122168471D01*
X123766961Y-122192916D01*
X123821386Y-122228612D01*
X123887798Y-122272947D01*
X123962225Y-122323311D01*
X123979601Y-122335160D01*
X124226297Y-122503626D01*
X124337706Y-122453062D01*
X124405457Y-122423595D01*
X124478183Y-122393959D01*
X124540703Y-122370330D01*
X124543457Y-122369358D01*
X124592360Y-122351457D01*
X124630057Y-122336320D01*
X124648425Y-122327210D01*
X124648456Y-122327184D01*
X124654285Y-122310717D01*
X124664192Y-122270219D01*
X124677195Y-122210242D01*
X124692309Y-122135340D01*
X124708552Y-122050064D01*
X124709881Y-122042875D01*
X124726175Y-121955014D01*
X124741133Y-121875260D01*
X124753791Y-121808681D01*
X124763186Y-121760347D01*
X124768354Y-121735325D01*
X124768444Y-121734943D01*
X124771589Y-121724299D01*
X124777704Y-121716262D01*
X124790453Y-121710467D01*
X124813500Y-121706547D01*
X124850509Y-121704135D01*
X124905144Y-121702865D01*
X124981067Y-121702371D01*
X125081944Y-121702286D01*
X125095000Y-121702286D01*
X125198910Y-121702348D01*
G37*
X125198910Y-121702348D02*
X125277454Y-121702778D01*
X125334298Y-121703942D01*
X125373105Y-121706207D01*
X125397538Y-121709940D01*
X125411262Y-121715506D01*
X125417940Y-121723273D01*
X125421236Y-121733605D01*
X125421556Y-121734943D01*
X125426562Y-121759079D01*
X125435829Y-121806701D01*
X125448392Y-121872741D01*
X125463287Y-121952128D01*
X125479551Y-122039796D01*
X125480119Y-122042875D01*
X125496410Y-122128789D01*
X125511652Y-122204696D01*
X125524861Y-122266045D01*
X125535054Y-122308282D01*
X125541248Y-122326855D01*
X125541543Y-122327184D01*
X125559788Y-122336253D01*
X125597405Y-122351367D01*
X125646271Y-122369262D01*
X125646543Y-122369358D01*
X125708093Y-122392493D01*
X125780657Y-122421965D01*
X125849057Y-122451597D01*
X125852294Y-122453062D01*
X125963702Y-122503626D01*
X126210399Y-122335160D01*
X126286077Y-122283803D01*
X126354631Y-122237889D01*
X126412088Y-122200030D01*
X126454476Y-122172837D01*
X126477825Y-122158921D01*
X126480042Y-122157889D01*
X126497010Y-122162484D01*
X126528701Y-122184655D01*
X126576352Y-122225447D01*
X126641198Y-122285905D01*
X126707397Y-122350227D01*
X126771214Y-122413612D01*
X126828329Y-122471451D01*
X126875305Y-122520175D01*
X126908703Y-122556210D01*
X126925085Y-122575984D01*
X126925694Y-122577002D01*
X126927505Y-122590572D01*
X126920683Y-122612733D01*
X126903540Y-122646478D01*
X126874393Y-122694800D01*
X126831555Y-122760692D01*
X126774448Y-122845517D01*
X126723766Y-122920177D01*
X126678461Y-122987140D01*
X126641150Y-123042516D01*
X126614452Y-123082420D01*
X126600985Y-123102962D01*
X126600137Y-123104356D01*
X126601781Y-123124038D01*
X126614245Y-123162293D01*
X126635048Y-123211889D01*
X126642462Y-123227728D01*
X126674814Y-123298290D01*
X126709328Y-123378353D01*
X126737365Y-123447629D01*
X126757568Y-123499045D01*
X126773615Y-123538119D01*
X126782888Y-123558541D01*
X126784041Y-123560114D01*
X126801096Y-123562721D01*
X126841298Y-123569863D01*
X126899302Y-123580523D01*
X126969763Y-123593685D01*
X127047335Y-123608333D01*
X127126672Y-123623449D01*
X127202431Y-123638018D01*
X127269264Y-123651022D01*
X127321828Y-123661445D01*
X127354776Y-123668270D01*
X127362857Y-123670199D01*
X127371205Y-123674962D01*
X127377506Y-123685718D01*
X127382045Y-123706098D01*
X127385104Y-123739734D01*
X127386967Y-123790255D01*
X127387918Y-123861292D01*
X127388240Y-123956476D01*
X127388257Y-123995492D01*
X127388257Y-124312799D01*
X127312057Y-124327839D01*
X127269663Y-124335995D01*
X127206400Y-124347899D01*
X127129962Y-124362116D01*
X127048043Y-124377210D01*
X127025400Y-124381355D01*
X126949806Y-124396053D01*
X126883953Y-124410505D01*
X126833366Y-124423375D01*
X126803574Y-124433322D01*
X126798612Y-124436287D01*
X126786426Y-124457283D01*
X126768953Y-124497967D01*
X126749577Y-124550322D01*
X126745734Y-124561600D01*
X126720339Y-124631523D01*
X126688817Y-124710418D01*
X126657969Y-124781266D01*
X126657817Y-124781595D01*
X126606447Y-124892733D01*
X126775399Y-125141253D01*
X126944352Y-125389772D01*
X126727429Y-125607058D01*
X126661819Y-125671726D01*
X126601979Y-125728733D01*
X126551267Y-125775033D01*
X126513046Y-125807584D01*
X126490675Y-125823343D01*
X126487466Y-125824343D01*
X126468626Y-125816469D01*
X126430180Y-125794578D01*
X126376330Y-125761267D01*
X126311276Y-125719131D01*
X126240940Y-125671943D01*
X126169555Y-125623810D01*
X126105908Y-125581928D01*
X126054041Y-125548871D01*
X126017995Y-125527218D01*
X126001867Y-125519543D01*
X125982189Y-125526037D01*
X125944875Y-125543150D01*
X125897621Y-125567326D01*
X125892612Y-125570013D01*
X125828977Y-125601927D01*
X125785341Y-125617579D01*
X125758202Y-125617745D01*
X125744057Y-125603204D01*
X125743975Y-125603000D01*
X125736905Y-125585779D01*
X125720042Y-125544899D01*
X125694695Y-125483525D01*
X125662171Y-125404819D01*
X125623778Y-125311947D01*
X125580822Y-125208072D01*
X125539222Y-125107502D01*
X125493504Y-124996516D01*
X125451526Y-124893703D01*
X125414548Y-124802215D01*
X125383827Y-124725201D01*
X125360622Y-124665815D01*
X125346190Y-124627209D01*
X125341743Y-124612800D01*
X125352896Y-124596272D01*
X125382069Y-124569930D01*
X125420971Y-124540887D01*
X125531757Y-124449039D01*
X125618351Y-124343759D01*
X125679716Y-124227266D01*
X125714815Y-124101776D01*
X125722608Y-123969507D01*
X125716943Y-123908457D01*
X125686078Y-123781795D01*
X125632920Y-123669941D01*
X125560767Y-123574001D01*
X125472917Y-123495076D01*
X125372665Y-123434270D01*
X125263310Y-123392687D01*
X125148147Y-123371428D01*
X125030475Y-123371599D01*
X124913590Y-123394301D01*
X124800789Y-123440638D01*
X124695369Y-123511713D01*
X124651368Y-123551911D01*
X124566979Y-123655129D01*
X124508222Y-123767925D01*
X124474704Y-123887010D01*
X124466035Y-124009095D01*
X124481823Y-124130893D01*
X124521678Y-124249116D01*
X124585207Y-124360475D01*
X124672021Y-124461684D01*
X124769029Y-124540887D01*
X124809437Y-124571162D01*
X124837982Y-124597219D01*
X124848257Y-124612825D01*
X124842877Y-124629843D01*
X124827575Y-124670500D01*
X124803612Y-124731642D01*
X124772244Y-124810119D01*
X124734732Y-124902780D01*
X124692333Y-125006472D01*
X124650663Y-125107526D01*
X124604690Y-125218607D01*
X124562107Y-125321541D01*
X124524221Y-125413165D01*
X124492340Y-125490316D01*
X124467771Y-125549831D01*
X124451820Y-125588544D01*
X124445910Y-125603000D01*
X124431948Y-125617685D01*
X124404940Y-125617642D01*
X124361413Y-125602099D01*
X124297890Y-125570284D01*
X124297388Y-125570013D01*
X124249560Y-125545323D01*
X124210897Y-125527338D01*
X124189095Y-125519614D01*
X124188133Y-125519543D01*
X124171721Y-125527378D01*
X124135487Y-125549165D01*
X124083474Y-125582328D01*
X124019725Y-125624291D01*
X123949060Y-125671943D01*
X123877116Y-125720191D01*
X123812274Y-125762151D01*
X123758735Y-125795227D01*
X123720697Y-125816821D01*
X123702533Y-125824343D01*
X123685808Y-125814457D01*
X123652180Y-125786826D01*
X123605010Y-125744495D01*
X123547658Y-125690505D01*
X123483484Y-125627899D01*
X123462497Y-125606983D01*
X123245499Y-125389623D01*
X123410668Y-125147220D01*
X123460864Y-125072781D01*
X123504919Y-125005972D01*
X123540362Y-124950665D01*
X123564719Y-124910729D01*
X123575522Y-124890036D01*
X123575838Y-124888563D01*
X123570143Y-124869058D01*
X123554826Y-124829822D01*
X123532537Y-124777430D01*
X123516893Y-124742355D01*
X123487641Y-124675201D01*
X123460094Y-124607358D01*
X123438737Y-124550034D01*
X123432935Y-124532572D01*
X123416452Y-124485938D01*
X123400340Y-124449905D01*
X123391490Y-124436287D01*
X123371960Y-124427952D01*
X123329334Y-124416137D01*
X123269145Y-124402181D01*
X123196922Y-124387422D01*
X123164600Y-124381355D01*
X123082522Y-124366273D01*
X123003795Y-124351669D01*
X122936109Y-124338980D01*
X122887160Y-124329642D01*
X122877943Y-124327839D01*
X122801743Y-124312799D01*
X122801743Y-123995492D01*
X122801914Y-123891154D01*
X122802616Y-123812213D01*
X122804134Y-123755038D01*
X122806749Y-123715999D01*
X122810746Y-123691465D01*
X122816409Y-123677805D01*
X122824020Y-123671389D01*
X122827143Y-123670199D01*
X122845978Y-123665980D01*
X122887588Y-123657562D01*
X122946630Y-123645961D01*
X123017757Y-123632195D01*
X123095625Y-123617280D01*
X123174887Y-123602232D01*
X123250198Y-123588069D01*
X123316213Y-123575806D01*
X123367587Y-123566461D01*
X123398975Y-123561050D01*
X123405959Y-123560114D01*
X123412285Y-123547596D01*
X123426290Y-123514246D01*
X123445355Y-123466377D01*
X123452634Y-123447629D01*
X123481996Y-123375195D01*
X123516571Y-123295170D01*
X123547537Y-123227728D01*
X123570323Y-123176159D01*
X123585482Y-123133785D01*
X123590542Y-123107834D01*
X123589736Y-123104356D01*
X123579041Y-123087936D01*
X123554620Y-123051417D01*
X123519095Y-122998687D01*
X123475087Y-122933635D01*
X123425217Y-122860151D01*
X123415356Y-122845645D01*
X123357492Y-122759704D01*
X123314956Y-122694261D01*
X123286054Y-122646304D01*
X123269090Y-122612820D01*
X123262367Y-122590795D01*
X123264190Y-122577217D01*
X123264236Y-122577131D01*
X123278586Y-122559297D01*
X123310323Y-122524817D01*
X123356010Y-122477268D01*
X123412204Y-122420222D01*
X123475468Y-122357255D01*
X123482602Y-122350227D01*
X123562330Y-122273020D01*
X123623857Y-122216330D01*
X123668421Y-122179110D01*
X123697257Y-122160315D01*
X123709958Y-122157889D01*
X123728494Y-122168471D01*
X123766961Y-122192916D01*
X123821386Y-122228612D01*
X123887798Y-122272947D01*
X123962225Y-122323311D01*
X123979601Y-122335160D01*
X124226297Y-122503626D01*
X124337706Y-122453062D01*
X124405457Y-122423595D01*
X124478183Y-122393959D01*
X124540703Y-122370330D01*
X124543457Y-122369358D01*
X124592360Y-122351457D01*
X124630057Y-122336320D01*
X124648425Y-122327210D01*
X124648456Y-122327184D01*
X124654285Y-122310717D01*
X124664192Y-122270219D01*
X124677195Y-122210242D01*
X124692309Y-122135340D01*
X124708552Y-122050064D01*
X124709881Y-122042875D01*
X124726175Y-121955014D01*
X124741133Y-121875260D01*
X124753791Y-121808681D01*
X124763186Y-121760347D01*
X124768354Y-121735325D01*
X124768444Y-121734943D01*
X124771589Y-121724299D01*
X124777704Y-121716262D01*
X124790453Y-121710467D01*
X124813500Y-121706547D01*
X124850509Y-121704135D01*
X124905144Y-121702865D01*
X124981067Y-121702371D01*
X125081944Y-121702286D01*
X125095000Y-121702286D01*
X125198910Y-121702348D01*
D14*
%TO.C,U3*%
X129600000Y-106560000D02*
X119320000Y-106560000D01*
X129600000Y-116960000D02*
X129600000Y-106560000D01*
X119320000Y-116960000D02*
X129600000Y-116960000D01*
X119320000Y-106560000D02*
X119320000Y-116960000D01*
X127110000Y-106620000D02*
X125460000Y-106620000D01*
X127110000Y-116900000D02*
X127110000Y-106620000D01*
X121810000Y-116900000D02*
X127110000Y-116900000D01*
X121810000Y-106620000D02*
X121810000Y-116900000D01*
X123460000Y-106620000D02*
X121810000Y-106620000D01*
X125460000Y-106620000D02*
G75*
G02*
X123460000Y-106620000I-1000000J0D01*
G01*
%TO.C,J2*%
X133545000Y-134200000D02*
X133545000Y-117200000D01*
X154745000Y-134200000D02*
X154745000Y-117200000D01*
X154745000Y-117200000D02*
X133545000Y-117200000D01*
%TO.C,U2*%
X142705000Y-115035000D02*
X143105000Y-115035000D01*
X140105000Y-115035000D02*
X140505000Y-115035000D01*
X152105000Y-115035000D02*
X145305000Y-115035000D01*
X152105000Y-104635000D02*
X152105000Y-105035000D01*
X152105000Y-96935000D02*
X152105000Y-97335000D01*
X152105000Y-71535000D02*
X152105000Y-71935000D01*
X152105000Y-64035000D02*
X152105000Y-64335000D01*
X152105000Y-86835000D02*
X152105000Y-87235000D01*
X152105000Y-102035000D02*
X152105000Y-102435000D01*
X152105000Y-81735000D02*
X152105000Y-82135000D01*
X152105000Y-76635000D02*
X152105000Y-77035000D01*
X152105000Y-89335000D02*
X152105000Y-89735000D01*
X152105000Y-94435000D02*
X152105000Y-94835000D01*
X152105000Y-109635000D02*
X152105000Y-110035000D01*
X152105000Y-112235000D02*
X152105000Y-112635000D01*
X152105000Y-107135000D02*
X152105000Y-107535000D01*
X152105000Y-74135000D02*
X152105000Y-74535000D01*
X152105000Y-66435000D02*
X152105000Y-66835000D01*
X152105000Y-69035000D02*
X152105000Y-69435000D01*
X152105000Y-99535000D02*
X152105000Y-99935000D01*
X152105000Y-91835000D02*
X152105000Y-92235000D01*
X152105000Y-84235000D02*
X152105000Y-84635000D01*
X152105000Y-79135000D02*
X152105000Y-79535000D01*
X131105000Y-112235000D02*
X131105000Y-112635000D01*
X131105000Y-109635000D02*
X131105000Y-110035000D01*
X131105000Y-107135000D02*
X131105000Y-107535000D01*
X131105000Y-104635000D02*
X131105000Y-105035000D01*
X131105000Y-102035000D02*
X131105000Y-102435000D01*
X131105000Y-99535000D02*
X131105000Y-99935000D01*
X131105000Y-96935000D02*
X131105000Y-97335000D01*
X131105000Y-94435000D02*
X131105000Y-94835000D01*
X131105000Y-91835000D02*
X131105000Y-92235000D01*
X131105000Y-89335000D02*
X131105000Y-89735000D01*
X131105000Y-86835000D02*
X131105000Y-87235000D01*
X131105000Y-84235000D02*
X131105000Y-84635000D01*
X131105000Y-81735000D02*
X131105000Y-82135000D01*
X131105000Y-79135000D02*
X131105000Y-79535000D01*
X131105000Y-76635000D02*
X131105000Y-77035000D01*
X131105000Y-74135000D02*
X131105000Y-74535000D01*
X131105000Y-71535000D02*
X131105000Y-71935000D01*
X131105000Y-69035000D02*
X131105000Y-69435000D01*
X131105000Y-66435000D02*
X131105000Y-66835000D01*
X131105000Y-64035000D02*
X131105000Y-64335000D01*
X134112000Y-66702000D02*
X134112000Y-64035000D01*
X131105000Y-66702000D02*
X134112000Y-66702000D01*
X137905000Y-115035000D02*
X131105000Y-115035000D01*
X131105000Y-64035000D02*
X152105000Y-64035000D01*
%TO.C,J1*%
X156785000Y-83760000D02*
X158115000Y-83760000D01*
X156785000Y-85090000D02*
X156785000Y-83760000D01*
X156785000Y-86360000D02*
X159445000Y-86360000D01*
X159445000Y-86360000D02*
X159445000Y-91500000D01*
X156785000Y-86360000D02*
X156785000Y-91500000D01*
X156785000Y-91500000D02*
X159445000Y-91500000D01*
%TO.C,JP1*%
X156785000Y-96460000D02*
X158115000Y-96460000D01*
X156785000Y-97790000D02*
X156785000Y-96460000D01*
X156785000Y-99060000D02*
X159445000Y-99060000D01*
X159445000Y-99060000D02*
X159445000Y-101660000D01*
X156785000Y-99060000D02*
X156785000Y-101660000D01*
X156785000Y-101660000D02*
X159445000Y-101660000D01*
%TO.C,U1*%
X129600000Y-74810000D02*
X119320000Y-74810000D01*
X129600000Y-100450000D02*
X129600000Y-74810000D01*
X119320000Y-100450000D02*
X129600000Y-100450000D01*
X119320000Y-74810000D02*
X119320000Y-100450000D01*
X127110000Y-74870000D02*
X125460000Y-74870000D01*
X127110000Y-100390000D02*
X127110000Y-74870000D01*
X121810000Y-100390000D02*
X127110000Y-100390000D01*
X121810000Y-74870000D02*
X121810000Y-100390000D01*
X123460000Y-74870000D02*
X121810000Y-74870000D01*
X125460000Y-74870000D02*
G75*
G02*
X123460000Y-74870000I-1000000J0D01*
G01*
%TO.C,Q1*%
X143895000Y-106840000D02*
X143895000Y-108170000D01*
X141605000Y-106840000D02*
X141605000Y-108170000D01*
X139315000Y-106840000D02*
X139315000Y-108170000D01*
X145015000Y-99600000D02*
X145015000Y-106840000D01*
X138195000Y-99600000D02*
X138195000Y-106840000D01*
X144606000Y-99600000D02*
X145015000Y-99600000D01*
X138195000Y-99600000D02*
X138604000Y-99600000D01*
X138195000Y-106840000D02*
X145015000Y-106840000D01*
%TO.C,C3*%
X163100000Y-122845000D02*
X163100000Y-124241000D01*
X163100000Y-119599000D02*
X163100000Y-120995000D01*
X156860000Y-122845000D02*
X156860000Y-124241000D01*
X156860000Y-119599000D02*
X156860000Y-120995000D01*
X156860000Y-124241000D02*
X163100000Y-124241000D01*
X156860000Y-119599000D02*
X163100000Y-119599000D01*
%TO.C,C4*%
X156860000Y-125314000D02*
X163100000Y-125314000D01*
X156860000Y-129956000D02*
X163100000Y-129956000D01*
X156860000Y-125314000D02*
X156860000Y-126710000D01*
X156860000Y-128560000D02*
X156860000Y-129956000D01*
X163100000Y-125314000D02*
X163100000Y-126710000D01*
X163100000Y-128560000D02*
X163100000Y-129956000D01*
%TO.C,R1*%
X144875000Y-113765000D02*
X144875000Y-113435000D01*
X138335000Y-113765000D02*
X144875000Y-113765000D01*
X138335000Y-113435000D02*
X138335000Y-113765000D01*
X144875000Y-111025000D02*
X144875000Y-111355000D01*
X138335000Y-111025000D02*
X144875000Y-111025000D01*
X138335000Y-111355000D02*
X138335000Y-111025000D01*
%TO.C,R2*%
X165100000Y-124360000D02*
X165100000Y-124290000D01*
X166470000Y-125730000D02*
G75*
G03*
X166470000Y-125730000I-1370000J0D01*
G01*
%TO.C,C1*%
X125314000Y-73010000D02*
X125314000Y-66770000D01*
X129956000Y-73010000D02*
X129956000Y-66770000D01*
X125314000Y-73010000D02*
X126710000Y-73010000D01*
X128560000Y-73010000D02*
X129956000Y-73010000D01*
X125314000Y-66770000D02*
X126710000Y-66770000D01*
X128560000Y-66770000D02*
X129956000Y-66770000D01*
%TO.C,C2*%
X122650000Y-102580000D02*
X122650000Y-101184000D01*
X122650000Y-105826000D02*
X122650000Y-104430000D01*
X128890000Y-102580000D02*
X128890000Y-101184000D01*
X128890000Y-105826000D02*
X128890000Y-104430000D01*
X128890000Y-101184000D02*
X122650000Y-101184000D01*
X128890000Y-105826000D02*
X122650000Y-105826000D01*
%TO.C,J3*%
X164285000Y-77000000D02*
X164285000Y-66000000D01*
X154485000Y-66000000D02*
X154485000Y-70500000D01*
X154485000Y-77000000D02*
X156845000Y-77000000D01*
X164285000Y-77000000D02*
X161925000Y-77000000D01*
X164285000Y-66000000D02*
X154485000Y-66000000D01*
X154485000Y-76000000D02*
X154485000Y-77000000D01*
%TO.C,D1*%
X156645000Y-111795000D02*
X159585000Y-111795000D01*
X156645000Y-111555000D02*
X159585000Y-111555000D01*
X156645000Y-111675000D02*
X159585000Y-111675000D01*
X158115000Y-106115000D02*
X158115000Y-107135000D01*
X158115000Y-113595000D02*
X158115000Y-112575000D01*
X156645000Y-107135000D02*
X156645000Y-112575000D01*
X159585000Y-107135000D02*
X156645000Y-107135000D01*
X159585000Y-112575000D02*
X159585000Y-107135000D01*
X156645000Y-112575000D02*
X159585000Y-112575000D01*
%TO.C,U3*%
D10*
X123698095Y-117562380D02*
X123698095Y-118371904D01*
X123745714Y-118467142D01*
X123793333Y-118514761D01*
X123888571Y-118562380D01*
X124079047Y-118562380D01*
X124174285Y-118514761D01*
X124221904Y-118467142D01*
X124269523Y-118371904D01*
X124269523Y-117562380D01*
X124650476Y-117562380D02*
X125269523Y-117562380D01*
X124936190Y-117943333D01*
X125079047Y-117943333D01*
X125174285Y-117990952D01*
X125221904Y-118038571D01*
X125269523Y-118133809D01*
X125269523Y-118371904D01*
X125221904Y-118467142D01*
X125174285Y-118514761D01*
X125079047Y-118562380D01*
X124793333Y-118562380D01*
X124698095Y-118514761D01*
X124650476Y-118467142D01*
X124864761Y-116514047D02*
X124912380Y-116371190D01*
X124912380Y-116133095D01*
X124864761Y-116037857D01*
X124817142Y-115990238D01*
X124721904Y-115942619D01*
X124626666Y-115942619D01*
X124531428Y-115990238D01*
X124483809Y-116037857D01*
X124436190Y-116133095D01*
X124388571Y-116323571D01*
X124340952Y-116418809D01*
X124293333Y-116466428D01*
X124198095Y-116514047D01*
X124102857Y-116514047D01*
X124007619Y-116466428D01*
X123960000Y-116418809D01*
X123912380Y-116323571D01*
X123912380Y-116085476D01*
X123960000Y-115942619D01*
X124912380Y-115514047D02*
X123912380Y-115514047D01*
X124912380Y-114942619D01*
X123912380Y-114942619D01*
X123912380Y-114561666D02*
X123912380Y-113895000D01*
X124912380Y-114323571D01*
X123912380Y-113037857D02*
X123912380Y-113514047D01*
X124388571Y-113561666D01*
X124340952Y-113514047D01*
X124293333Y-113418809D01*
X124293333Y-113180714D01*
X124340952Y-113085476D01*
X124388571Y-113037857D01*
X124483809Y-112990238D01*
X124721904Y-112990238D01*
X124817142Y-113037857D01*
X124864761Y-113085476D01*
X124912380Y-113180714D01*
X124912380Y-113418809D01*
X124864761Y-113514047D01*
X124817142Y-113561666D01*
X124912380Y-112037857D02*
X124912380Y-112609285D01*
X124912380Y-112323571D02*
X123912380Y-112323571D01*
X124055238Y-112418809D01*
X124150476Y-112514047D01*
X124198095Y-112609285D01*
X123912380Y-111704523D02*
X123912380Y-111037857D01*
X124912380Y-111466428D01*
X123912380Y-110228333D02*
X123912380Y-110418809D01*
X123960000Y-110514047D01*
X124007619Y-110561666D01*
X124150476Y-110656904D01*
X124340952Y-110704523D01*
X124721904Y-110704523D01*
X124817142Y-110656904D01*
X124864761Y-110609285D01*
X124912380Y-110514047D01*
X124912380Y-110323571D01*
X124864761Y-110228333D01*
X124817142Y-110180714D01*
X124721904Y-110133095D01*
X124483809Y-110133095D01*
X124388571Y-110180714D01*
X124340952Y-110228333D01*
X124293333Y-110323571D01*
X124293333Y-110514047D01*
X124340952Y-110609285D01*
X124388571Y-110656904D01*
X124483809Y-110704523D01*
X124626666Y-109752142D02*
X124626666Y-109275952D01*
X124912380Y-109847380D02*
X123912380Y-109514047D01*
X124912380Y-109180714D01*
X124912380Y-108847380D02*
X123912380Y-108847380D01*
X123912380Y-108466428D01*
X123960000Y-108371190D01*
X124007619Y-108323571D01*
X124102857Y-108275952D01*
X124245714Y-108275952D01*
X124340952Y-108323571D01*
X124388571Y-108371190D01*
X124436190Y-108466428D01*
X124436190Y-108847380D01*
%TO.C,J2*%
X131746666Y-125532380D02*
X131746666Y-126246666D01*
X131699047Y-126389523D01*
X131603809Y-126484761D01*
X131460952Y-126532380D01*
X131365714Y-126532380D01*
X132175238Y-125627619D02*
X132222857Y-125580000D01*
X132318095Y-125532380D01*
X132556190Y-125532380D01*
X132651428Y-125580000D01*
X132699047Y-125627619D01*
X132746666Y-125722857D01*
X132746666Y-125818095D01*
X132699047Y-125960952D01*
X132127619Y-126532380D01*
X132746666Y-126532380D01*
X144335476Y-120452380D02*
X144145000Y-120452380D01*
X144049761Y-120500000D01*
X144002142Y-120547619D01*
X143906904Y-120690476D01*
X143859285Y-120880952D01*
X143859285Y-121261904D01*
X143906904Y-121357142D01*
X143954523Y-121404761D01*
X144049761Y-121452380D01*
X144240238Y-121452380D01*
X144335476Y-121404761D01*
X144383095Y-121357142D01*
X144430714Y-121261904D01*
X144430714Y-121023809D01*
X144383095Y-120928571D01*
X144335476Y-120880952D01*
X144240238Y-120833333D01*
X144049761Y-120833333D01*
X143954523Y-120880952D01*
X143906904Y-120928571D01*
X143859285Y-121023809D01*
X136763095Y-125532380D02*
X136286904Y-125532380D01*
X136239285Y-126008571D01*
X136286904Y-125960952D01*
X136382142Y-125913333D01*
X136620238Y-125913333D01*
X136715476Y-125960952D01*
X136763095Y-126008571D01*
X136810714Y-126103809D01*
X136810714Y-126341904D01*
X136763095Y-126437142D01*
X136715476Y-126484761D01*
X136620238Y-126532380D01*
X136382142Y-126532380D01*
X136286904Y-126484761D01*
X136239285Y-126437142D01*
X143811666Y-125532380D02*
X144430714Y-125532380D01*
X144097380Y-125913333D01*
X144240238Y-125913333D01*
X144335476Y-125960952D01*
X144383095Y-126008571D01*
X144430714Y-126103809D01*
X144430714Y-126341904D01*
X144383095Y-126437142D01*
X144335476Y-126484761D01*
X144240238Y-126532380D01*
X143954523Y-126532380D01*
X143859285Y-126484761D01*
X143811666Y-126437142D01*
X148939285Y-123087619D02*
X148986904Y-123040000D01*
X149082142Y-122992380D01*
X149320238Y-122992380D01*
X149415476Y-123040000D01*
X149463095Y-123087619D01*
X149510714Y-123182857D01*
X149510714Y-123278095D01*
X149463095Y-123420952D01*
X148891666Y-123992380D01*
X149510714Y-123992380D01*
X152050714Y-126532380D02*
X151479285Y-126532380D01*
X151765000Y-126532380D02*
X151765000Y-125532380D01*
X151669761Y-125675238D01*
X151574523Y-125770476D01*
X151479285Y-125818095D01*
%TO.C,U2*%
X140843095Y-88987380D02*
X140843095Y-89796904D01*
X140890714Y-89892142D01*
X140938333Y-89939761D01*
X141033571Y-89987380D01*
X141224047Y-89987380D01*
X141319285Y-89939761D01*
X141366904Y-89892142D01*
X141414523Y-89796904D01*
X141414523Y-88987380D01*
X141843095Y-89082619D02*
X141890714Y-89035000D01*
X141985952Y-88987380D01*
X142224047Y-88987380D01*
X142319285Y-89035000D01*
X142366904Y-89082619D01*
X142414523Y-89177857D01*
X142414523Y-89273095D01*
X142366904Y-89415952D01*
X141795476Y-89987380D01*
X142414523Y-89987380D01*
%TO.C,J1*%
X157781666Y-82002380D02*
X157781666Y-82716666D01*
X157734047Y-82859523D01*
X157638809Y-82954761D01*
X157495952Y-83002380D01*
X157400714Y-83002380D01*
X158781666Y-83002380D02*
X158210238Y-83002380D01*
X158495952Y-83002380D02*
X158495952Y-82002380D01*
X158400714Y-82145238D01*
X158305476Y-82240476D01*
X158210238Y-82288095D01*
%TO.C,JP1*%
X157281666Y-94912380D02*
X157281666Y-95626666D01*
X157234047Y-95769523D01*
X157138809Y-95864761D01*
X156995952Y-95912380D01*
X156900714Y-95912380D01*
X157757857Y-95912380D02*
X157757857Y-94912380D01*
X158138809Y-94912380D01*
X158234047Y-94960000D01*
X158281666Y-95007619D01*
X158329285Y-95102857D01*
X158329285Y-95245714D01*
X158281666Y-95340952D01*
X158234047Y-95388571D01*
X158138809Y-95436190D01*
X157757857Y-95436190D01*
X159281666Y-95912380D02*
X158710238Y-95912380D01*
X158995952Y-95912380D02*
X158995952Y-94912380D01*
X158900714Y-95055238D01*
X158805476Y-95150476D01*
X158710238Y-95198095D01*
%TO.C,U1*%
X122428095Y-73112380D02*
X122428095Y-73921904D01*
X122475714Y-74017142D01*
X122523333Y-74064761D01*
X122618571Y-74112380D01*
X122809047Y-74112380D01*
X122904285Y-74064761D01*
X122951904Y-74017142D01*
X122999523Y-73921904D01*
X122999523Y-73112380D01*
X123999523Y-74112380D02*
X123428095Y-74112380D01*
X123713809Y-74112380D02*
X123713809Y-73112380D01*
X123618571Y-73255238D01*
X123523333Y-73350476D01*
X123428095Y-73398095D01*
X123912380Y-91836428D02*
X123912380Y-91169761D01*
X124912380Y-91598333D01*
X124245714Y-90360238D02*
X124912380Y-90360238D01*
X123864761Y-90598333D02*
X124579047Y-90836428D01*
X124579047Y-90217380D01*
X124912380Y-89360238D02*
X124912380Y-89836428D01*
X123912380Y-89836428D01*
X123912380Y-89169761D02*
X124912380Y-88836428D01*
X123912380Y-88503095D01*
X124817142Y-87598333D02*
X124864761Y-87645952D01*
X124912380Y-87788809D01*
X124912380Y-87884047D01*
X124864761Y-88026904D01*
X124769523Y-88122142D01*
X124674285Y-88169761D01*
X124483809Y-88217380D01*
X124340952Y-88217380D01*
X124150476Y-88169761D01*
X124055238Y-88122142D01*
X123960000Y-88026904D01*
X123912380Y-87884047D01*
X123912380Y-87788809D01*
X123960000Y-87645952D01*
X124007619Y-87598333D01*
X124007619Y-87217380D02*
X123960000Y-87169761D01*
X123912380Y-87074523D01*
X123912380Y-86836428D01*
X123960000Y-86741190D01*
X124007619Y-86693571D01*
X124102857Y-86645952D01*
X124198095Y-86645952D01*
X124340952Y-86693571D01*
X124912380Y-87265000D01*
X124912380Y-86645952D01*
X124245714Y-85788809D02*
X124912380Y-85788809D01*
X123864761Y-86026904D02*
X124579047Y-86265000D01*
X124579047Y-85645952D01*
X123912380Y-84788809D02*
X123912380Y-85265000D01*
X124388571Y-85312619D01*
X124340952Y-85265000D01*
X124293333Y-85169761D01*
X124293333Y-84931666D01*
X124340952Y-84836428D01*
X124388571Y-84788809D01*
X124483809Y-84741190D01*
X124721904Y-84741190D01*
X124817142Y-84788809D01*
X124864761Y-84836428D01*
X124912380Y-84931666D01*
X124912380Y-85169761D01*
X124864761Y-85265000D01*
X124817142Y-85312619D01*
%TO.C,Q1*%
X141509761Y-98114286D02*
X141414523Y-98066667D01*
X141319285Y-97971428D01*
X141176428Y-97828571D01*
X141081190Y-97780952D01*
X140985952Y-97780952D01*
X141033571Y-98019047D02*
X140938333Y-97971428D01*
X140843095Y-97876190D01*
X140795476Y-97685714D01*
X140795476Y-97352381D01*
X140843095Y-97161905D01*
X140938333Y-97066667D01*
X141033571Y-97019047D01*
X141224047Y-97019047D01*
X141319285Y-97066667D01*
X141414523Y-97161905D01*
X141462142Y-97352381D01*
X141462142Y-97685714D01*
X141414523Y-97876190D01*
X141319285Y-97971428D01*
X141224047Y-98019047D01*
X141033571Y-98019047D01*
X142414523Y-98019047D02*
X141843095Y-98019047D01*
X142128809Y-98019047D02*
X142128809Y-97019047D01*
X142033571Y-97161905D01*
X141938333Y-97257143D01*
X141843095Y-97304762D01*
%TO.C,C3*%
X159813333Y-118827142D02*
X159765714Y-118874761D01*
X159622857Y-118922380D01*
X159527619Y-118922380D01*
X159384761Y-118874761D01*
X159289523Y-118779523D01*
X159241904Y-118684285D01*
X159194285Y-118493809D01*
X159194285Y-118350952D01*
X159241904Y-118160476D01*
X159289523Y-118065238D01*
X159384761Y-117970000D01*
X159527619Y-117922380D01*
X159622857Y-117922380D01*
X159765714Y-117970000D01*
X159813333Y-118017619D01*
X160146666Y-117922380D02*
X160765714Y-117922380D01*
X160432380Y-118303333D01*
X160575238Y-118303333D01*
X160670476Y-118350952D01*
X160718095Y-118398571D01*
X160765714Y-118493809D01*
X160765714Y-118731904D01*
X160718095Y-118827142D01*
X160670476Y-118874761D01*
X160575238Y-118922380D01*
X160289523Y-118922380D01*
X160194285Y-118874761D01*
X160146666Y-118827142D01*
X159384761Y-122372380D02*
X158813333Y-122372380D01*
X159099047Y-122372380D02*
X159099047Y-121372380D01*
X159003809Y-121515238D01*
X158908571Y-121610476D01*
X158813333Y-121658095D01*
X159813333Y-121705714D02*
X159813333Y-122372380D01*
X159813333Y-121800952D02*
X159860952Y-121753333D01*
X159956190Y-121705714D01*
X160099047Y-121705714D01*
X160194285Y-121753333D01*
X160241904Y-121848571D01*
X160241904Y-122372380D01*
X161051428Y-121848571D02*
X160718095Y-121848571D01*
X160718095Y-122372380D02*
X160718095Y-121372380D01*
X161194285Y-121372380D01*
%TO.C,C4*%
X159813333Y-131802142D02*
X159765714Y-131849761D01*
X159622857Y-131897380D01*
X159527619Y-131897380D01*
X159384761Y-131849761D01*
X159289523Y-131754523D01*
X159241904Y-131659285D01*
X159194285Y-131468809D01*
X159194285Y-131325952D01*
X159241904Y-131135476D01*
X159289523Y-131040238D01*
X159384761Y-130945000D01*
X159527619Y-130897380D01*
X159622857Y-130897380D01*
X159765714Y-130945000D01*
X159813333Y-130992619D01*
X160670476Y-131230714D02*
X160670476Y-131897380D01*
X160432380Y-130849761D02*
X160194285Y-131564047D01*
X160813333Y-131564047D01*
X159424761Y-128087380D02*
X158853333Y-128087380D01*
X159139047Y-128087380D02*
X159139047Y-127087380D01*
X159043809Y-127230238D01*
X158948571Y-127325476D01*
X158853333Y-127373095D01*
X159853333Y-127420714D02*
X159853333Y-128087380D01*
X159853333Y-127515952D02*
X159900952Y-127468333D01*
X159996190Y-127420714D01*
X160139047Y-127420714D01*
X160234285Y-127468333D01*
X160281904Y-127563571D01*
X160281904Y-128087380D01*
X161091428Y-127563571D02*
X160758095Y-127563571D01*
X160758095Y-128087380D02*
X160758095Y-127087380D01*
X161234285Y-127087380D01*
%TO.C,R1*%
X141438333Y-115387380D02*
X141105000Y-114911190D01*
X140866904Y-115387380D02*
X140866904Y-114387380D01*
X141247857Y-114387380D01*
X141343095Y-114435000D01*
X141390714Y-114482619D01*
X141438333Y-114577857D01*
X141438333Y-114720714D01*
X141390714Y-114815952D01*
X141343095Y-114863571D01*
X141247857Y-114911190D01*
X140866904Y-114911190D01*
X142390714Y-115387380D02*
X141819285Y-115387380D01*
X142105000Y-115387380D02*
X142105000Y-114387380D01*
X142009761Y-114530238D01*
X141914523Y-114625476D01*
X141819285Y-114673095D01*
X140914523Y-112847380D02*
X140343095Y-112847380D01*
X140628809Y-112847380D02*
X140628809Y-111847380D01*
X140533571Y-111990238D01*
X140438333Y-112085476D01*
X140343095Y-112133095D01*
X141533571Y-111847380D02*
X141628809Y-111847380D01*
X141724047Y-111895000D01*
X141771666Y-111942619D01*
X141819285Y-112037857D01*
X141866904Y-112228333D01*
X141866904Y-112466428D01*
X141819285Y-112656904D01*
X141771666Y-112752142D01*
X141724047Y-112799761D01*
X141628809Y-112847380D01*
X141533571Y-112847380D01*
X141438333Y-112799761D01*
X141390714Y-112752142D01*
X141343095Y-112656904D01*
X141295476Y-112466428D01*
X141295476Y-112228333D01*
X141343095Y-112037857D01*
X141390714Y-111942619D01*
X141438333Y-111895000D01*
X141533571Y-111847380D01*
X142295476Y-112847380D02*
X142295476Y-111847380D01*
X142866904Y-112847380D02*
X142438333Y-112275952D01*
X142866904Y-111847380D02*
X142295476Y-112418809D01*
%TO.C,R2*%
X168092380Y-124626666D02*
X167616190Y-124960000D01*
X168092380Y-125198095D02*
X167092380Y-125198095D01*
X167092380Y-124817142D01*
X167140000Y-124721904D01*
X167187619Y-124674285D01*
X167282857Y-124626666D01*
X167425714Y-124626666D01*
X167520952Y-124674285D01*
X167568571Y-124721904D01*
X167616190Y-124817142D01*
X167616190Y-125198095D01*
X167187619Y-124245714D02*
X167140000Y-124198095D01*
X167092380Y-124102857D01*
X167092380Y-123864761D01*
X167140000Y-123769523D01*
X167187619Y-123721904D01*
X167282857Y-123674285D01*
X167378095Y-123674285D01*
X167520952Y-123721904D01*
X168092380Y-124293333D01*
X168092380Y-123674285D01*
X164433333Y-121737380D02*
X163861904Y-121737380D01*
X164147619Y-121737380D02*
X164147619Y-120737380D01*
X164052380Y-120880238D01*
X163957142Y-120975476D01*
X163861904Y-121023095D01*
X165004761Y-121165952D02*
X164909523Y-121118333D01*
X164861904Y-121070714D01*
X164814285Y-120975476D01*
X164814285Y-120927857D01*
X164861904Y-120832619D01*
X164909523Y-120785000D01*
X165004761Y-120737380D01*
X165195238Y-120737380D01*
X165290476Y-120785000D01*
X165338095Y-120832619D01*
X165385714Y-120927857D01*
X165385714Y-120975476D01*
X165338095Y-121070714D01*
X165290476Y-121118333D01*
X165195238Y-121165952D01*
X165004761Y-121165952D01*
X164909523Y-121213571D01*
X164861904Y-121261190D01*
X164814285Y-121356428D01*
X164814285Y-121546904D01*
X164861904Y-121642142D01*
X164909523Y-121689761D01*
X165004761Y-121737380D01*
X165195238Y-121737380D01*
X165290476Y-121689761D01*
X165338095Y-121642142D01*
X165385714Y-121546904D01*
X165385714Y-121356428D01*
X165338095Y-121261190D01*
X165290476Y-121213571D01*
X165195238Y-121165952D01*
X166004761Y-120737380D02*
X166100000Y-120737380D01*
X166195238Y-120785000D01*
X166242857Y-120832619D01*
X166290476Y-120927857D01*
X166338095Y-121118333D01*
X166338095Y-121356428D01*
X166290476Y-121546904D01*
X166242857Y-121642142D01*
X166195238Y-121689761D01*
X166100000Y-121737380D01*
X166004761Y-121737380D01*
X165909523Y-121689761D01*
X165861904Y-121642142D01*
X165814285Y-121546904D01*
X165766666Y-121356428D01*
X165766666Y-121118333D01*
X165814285Y-120927857D01*
X165861904Y-120832619D01*
X165909523Y-120785000D01*
X166004761Y-120737380D01*
%TO.C,C1*%
X127468333Y-65762142D02*
X127420714Y-65809761D01*
X127277857Y-65857380D01*
X127182619Y-65857380D01*
X127039761Y-65809761D01*
X126944523Y-65714523D01*
X126896904Y-65619285D01*
X126849285Y-65428809D01*
X126849285Y-65285952D01*
X126896904Y-65095476D01*
X126944523Y-65000238D01*
X127039761Y-64905000D01*
X127182619Y-64857380D01*
X127277857Y-64857380D01*
X127420714Y-64905000D01*
X127468333Y-64952619D01*
X128420714Y-65857380D02*
X127849285Y-65857380D01*
X128135000Y-65857380D02*
X128135000Y-64857380D01*
X128039761Y-65000238D01*
X127944523Y-65095476D01*
X127849285Y-65143095D01*
X125920714Y-69302380D02*
X126015952Y-69302380D01*
X126111190Y-69350000D01*
X126158809Y-69397619D01*
X126206428Y-69492857D01*
X126254047Y-69683333D01*
X126254047Y-69921428D01*
X126206428Y-70111904D01*
X126158809Y-70207142D01*
X126111190Y-70254761D01*
X126015952Y-70302380D01*
X125920714Y-70302380D01*
X125825476Y-70254761D01*
X125777857Y-70207142D01*
X125730238Y-70111904D01*
X125682619Y-69921428D01*
X125682619Y-69683333D01*
X125730238Y-69492857D01*
X125777857Y-69397619D01*
X125825476Y-69350000D01*
X125920714Y-69302380D01*
X126682619Y-70207142D02*
X126730238Y-70254761D01*
X126682619Y-70302380D01*
X126635000Y-70254761D01*
X126682619Y-70207142D01*
X126682619Y-70302380D01*
X127682619Y-70302380D02*
X127111190Y-70302380D01*
X127396904Y-70302380D02*
X127396904Y-69302380D01*
X127301666Y-69445238D01*
X127206428Y-69540476D01*
X127111190Y-69588095D01*
X128111190Y-69635714D02*
X128111190Y-70635714D01*
X128587380Y-70159523D02*
X128635000Y-70254761D01*
X128730238Y-70302380D01*
X128111190Y-70159523D02*
X128158809Y-70254761D01*
X128254047Y-70302380D01*
X128444523Y-70302380D01*
X128539761Y-70254761D01*
X128587380Y-70159523D01*
X128587380Y-69635714D01*
X129492142Y-69778571D02*
X129158809Y-69778571D01*
X129158809Y-70302380D02*
X129158809Y-69302380D01*
X129635000Y-69302380D01*
%TO.C,C2*%
X120483333Y-103862142D02*
X120435714Y-103909761D01*
X120292857Y-103957380D01*
X120197619Y-103957380D01*
X120054761Y-103909761D01*
X119959523Y-103814523D01*
X119911904Y-103719285D01*
X119864285Y-103528809D01*
X119864285Y-103385952D01*
X119911904Y-103195476D01*
X119959523Y-103100238D01*
X120054761Y-103005000D01*
X120197619Y-102957380D01*
X120292857Y-102957380D01*
X120435714Y-103005000D01*
X120483333Y-103052619D01*
X120864285Y-103052619D02*
X120911904Y-103005000D01*
X121007142Y-102957380D01*
X121245238Y-102957380D01*
X121340476Y-103005000D01*
X121388095Y-103052619D01*
X121435714Y-103147857D01*
X121435714Y-103243095D01*
X121388095Y-103385952D01*
X120816666Y-103957380D01*
X121435714Y-103957380D01*
X125222380Y-105219285D02*
X125222380Y-105124047D01*
X125270000Y-105028809D01*
X125317619Y-104981190D01*
X125412857Y-104933571D01*
X125603333Y-104885952D01*
X125841428Y-104885952D01*
X126031904Y-104933571D01*
X126127142Y-104981190D01*
X126174761Y-105028809D01*
X126222380Y-105124047D01*
X126222380Y-105219285D01*
X126174761Y-105314523D01*
X126127142Y-105362142D01*
X126031904Y-105409761D01*
X125841428Y-105457380D01*
X125603333Y-105457380D01*
X125412857Y-105409761D01*
X125317619Y-105362142D01*
X125270000Y-105314523D01*
X125222380Y-105219285D01*
X126127142Y-104457380D02*
X126174761Y-104409761D01*
X126222380Y-104457380D01*
X126174761Y-104505000D01*
X126127142Y-104457380D01*
X126222380Y-104457380D01*
X126222380Y-103457380D02*
X126222380Y-104028809D01*
X126222380Y-103743095D02*
X125222380Y-103743095D01*
X125365238Y-103838333D01*
X125460476Y-103933571D01*
X125508095Y-104028809D01*
X125555714Y-103028809D02*
X126555714Y-103028809D01*
X126079523Y-102552619D02*
X126174761Y-102505000D01*
X126222380Y-102409761D01*
X126079523Y-103028809D02*
X126174761Y-102981190D01*
X126222380Y-102885952D01*
X126222380Y-102695476D01*
X126174761Y-102600238D01*
X126079523Y-102552619D01*
X125555714Y-102552619D01*
X125698571Y-101647857D02*
X125698571Y-101981190D01*
X126222380Y-101981190D02*
X125222380Y-101981190D01*
X125222380Y-101505000D01*
%TO.C,J3*%
X165401666Y-72747380D02*
X165401666Y-73461666D01*
X165354047Y-73604523D01*
X165258809Y-73699761D01*
X165115952Y-73747380D01*
X165020714Y-73747380D01*
X165782619Y-72747380D02*
X166401666Y-72747380D01*
X166068333Y-73128333D01*
X166211190Y-73128333D01*
X166306428Y-73175952D01*
X166354047Y-73223571D01*
X166401666Y-73318809D01*
X166401666Y-73556904D01*
X166354047Y-73652142D01*
X166306428Y-73699761D01*
X166211190Y-73747380D01*
X165925476Y-73747380D01*
X165830238Y-73699761D01*
X165782619Y-73652142D01*
%TO.C,D1*%
X156097380Y-110593095D02*
X155097380Y-110593095D01*
X155097380Y-110355000D01*
X155145000Y-110212142D01*
X155240238Y-110116904D01*
X155335476Y-110069285D01*
X155525952Y-110021666D01*
X155668809Y-110021666D01*
X155859285Y-110069285D01*
X155954523Y-110116904D01*
X156049761Y-110212142D01*
X156097380Y-110355000D01*
X156097380Y-110593095D01*
X156097380Y-109069285D02*
X156097380Y-109640714D01*
X156097380Y-109355000D02*
X155097380Y-109355000D01*
X155240238Y-109450238D01*
X155335476Y-109545476D01*
X155383095Y-109640714D01*
D12*
X158341190Y-110291428D02*
X158341190Y-110577142D01*
X158341190Y-110434285D02*
X157841190Y-110434285D01*
X157912619Y-110481904D01*
X157960238Y-110529523D01*
X157984047Y-110577142D01*
X158341190Y-110077142D02*
X157841190Y-110077142D01*
X158341190Y-109791428D01*
X157841190Y-109791428D01*
X158007857Y-109339047D02*
X158341190Y-109339047D01*
X157817380Y-109458095D02*
X158174523Y-109577142D01*
X158174523Y-109267619D01*
X157841190Y-108981904D02*
X157841190Y-108934285D01*
X157865000Y-108886666D01*
X157888809Y-108862857D01*
X157936428Y-108839047D01*
X158031666Y-108815238D01*
X158150714Y-108815238D01*
X158245952Y-108839047D01*
X158293571Y-108862857D01*
X158317380Y-108886666D01*
X158341190Y-108934285D01*
X158341190Y-108981904D01*
X158317380Y-109029523D01*
X158293571Y-109053333D01*
X158245952Y-109077142D01*
X158150714Y-109100952D01*
X158031666Y-109100952D01*
X157936428Y-109077142D01*
X157888809Y-109053333D01*
X157865000Y-109029523D01*
X157841190Y-108981904D01*
X157841190Y-108505714D02*
X157841190Y-108458095D01*
X157865000Y-108410476D01*
X157888809Y-108386666D01*
X157936428Y-108362857D01*
X158031666Y-108339047D01*
X158150714Y-108339047D01*
X158245952Y-108362857D01*
X158293571Y-108386666D01*
X158317380Y-108410476D01*
X158341190Y-108458095D01*
X158341190Y-108505714D01*
X158317380Y-108553333D01*
X158293571Y-108577142D01*
X158245952Y-108600952D01*
X158150714Y-108624761D01*
X158031666Y-108624761D01*
X157936428Y-108600952D01*
X157888809Y-108577142D01*
X157865000Y-108553333D01*
X157841190Y-108505714D01*
X158341190Y-107862857D02*
X158341190Y-108148571D01*
X158341190Y-108005714D02*
X157841190Y-108005714D01*
X157912619Y-108053333D01*
X157960238Y-108100952D01*
X157984047Y-108148571D01*
D10*
X156467380Y-115196904D02*
X155467380Y-115196904D01*
X156467380Y-114625476D02*
X155895952Y-115054047D01*
X155467380Y-114625476D02*
X156038809Y-115196904D01*
%TD*%
M02*
